%TF.GenerationSoftware,KiCad,Pcbnew,(5.1.6)-1*%
%TF.CreationDate,2021-01-07T08:24:20+01:00*%
%TF.ProjectId,carteAdaptatrice,63617274-6541-4646-9170-746174726963,rev?*%
%TF.SameCoordinates,Original*%
%TF.FileFunction,Legend,Top*%
%TF.FilePolarity,Positive*%
%FSLAX46Y46*%
G04 Gerber Fmt 4.6, Leading zero omitted, Abs format (unit mm)*
G04 Created by KiCad (PCBNEW (5.1.6)-1) date 2021-01-07 08:24:20*
%MOMM*%
%LPD*%
G01*
G04 APERTURE LIST*
%ADD10C,0.150000*%
%ADD11C,0.400000*%
%ADD12C,0.300000*%
%ADD13C,0.120000*%
G04 APERTURE END LIST*
D10*
X177014285Y-96337380D02*
X177014285Y-95337380D01*
X177585714Y-96337380D01*
X177585714Y-95337380D01*
X178633333Y-96242142D02*
X178585714Y-96289761D01*
X178442857Y-96337380D01*
X178347619Y-96337380D01*
X178204761Y-96289761D01*
X178109523Y-96194523D01*
X178061904Y-96099285D01*
X178014285Y-95908809D01*
X178014285Y-95765952D01*
X178061904Y-95575476D01*
X178109523Y-95480238D01*
X178204761Y-95385000D01*
X178347619Y-95337380D01*
X178442857Y-95337380D01*
X178585714Y-95385000D01*
X178633333Y-95432619D01*
X168124285Y-96337380D02*
X168124285Y-95337380D01*
X168695714Y-96337380D01*
X168695714Y-95337380D01*
X169743333Y-96242142D02*
X169695714Y-96289761D01*
X169552857Y-96337380D01*
X169457619Y-96337380D01*
X169314761Y-96289761D01*
X169219523Y-96194523D01*
X169171904Y-96099285D01*
X169124285Y-95908809D01*
X169124285Y-95765952D01*
X169171904Y-95575476D01*
X169219523Y-95480238D01*
X169314761Y-95385000D01*
X169457619Y-95337380D01*
X169552857Y-95337380D01*
X169695714Y-95385000D01*
X169743333Y-95432619D01*
X107164285Y-96337380D02*
X107164285Y-95337380D01*
X107735714Y-96337380D01*
X107735714Y-95337380D01*
X108783333Y-96242142D02*
X108735714Y-96289761D01*
X108592857Y-96337380D01*
X108497619Y-96337380D01*
X108354761Y-96289761D01*
X108259523Y-96194523D01*
X108211904Y-96099285D01*
X108164285Y-95908809D01*
X108164285Y-95765952D01*
X108211904Y-95575476D01*
X108259523Y-95480238D01*
X108354761Y-95385000D01*
X108497619Y-95337380D01*
X108592857Y-95337380D01*
X108735714Y-95385000D01*
X108783333Y-95432619D01*
X116054285Y-96337380D02*
X116054285Y-95337380D01*
X116625714Y-96337380D01*
X116625714Y-95337380D01*
X117673333Y-96242142D02*
X117625714Y-96289761D01*
X117482857Y-96337380D01*
X117387619Y-96337380D01*
X117244761Y-96289761D01*
X117149523Y-96194523D01*
X117101904Y-96099285D01*
X117054285Y-95908809D01*
X117054285Y-95765952D01*
X117101904Y-95575476D01*
X117149523Y-95480238D01*
X117244761Y-95385000D01*
X117387619Y-95337380D01*
X117482857Y-95337380D01*
X117625714Y-95385000D01*
X117673333Y-95432619D01*
D11*
X153686190Y-76374761D02*
X153686190Y-77993809D01*
X153781428Y-78184285D01*
X153876666Y-78279523D01*
X154067142Y-78374761D01*
X154448095Y-78374761D01*
X154638571Y-78279523D01*
X154733809Y-78184285D01*
X154829047Y-77993809D01*
X154829047Y-76374761D01*
X155686190Y-78279523D02*
X155971904Y-78374761D01*
X156448095Y-78374761D01*
X156638571Y-78279523D01*
X156733809Y-78184285D01*
X156829047Y-77993809D01*
X156829047Y-77803333D01*
X156733809Y-77612857D01*
X156638571Y-77517619D01*
X156448095Y-77422380D01*
X156067142Y-77327142D01*
X155876666Y-77231904D01*
X155781428Y-77136666D01*
X155686190Y-76946190D01*
X155686190Y-76755714D01*
X155781428Y-76565238D01*
X155876666Y-76470000D01*
X156067142Y-76374761D01*
X156543333Y-76374761D01*
X156829047Y-76470000D01*
X158352857Y-77327142D02*
X158638571Y-77422380D01*
X158733809Y-77517619D01*
X158829047Y-77708095D01*
X158829047Y-77993809D01*
X158733809Y-78184285D01*
X158638571Y-78279523D01*
X158448095Y-78374761D01*
X157686190Y-78374761D01*
X157686190Y-76374761D01*
X158352857Y-76374761D01*
X158543333Y-76470000D01*
X158638571Y-76565238D01*
X158733809Y-76755714D01*
X158733809Y-76946190D01*
X158638571Y-77136666D01*
X158543333Y-77231904D01*
X158352857Y-77327142D01*
X157686190Y-77327142D01*
D10*
X205962857Y-135390000D02*
X205867619Y-135342380D01*
X205724761Y-135342380D01*
X205581904Y-135390000D01*
X205486666Y-135485238D01*
X205439047Y-135580476D01*
X205391428Y-135770952D01*
X205391428Y-135913809D01*
X205439047Y-136104285D01*
X205486666Y-136199523D01*
X205581904Y-136294761D01*
X205724761Y-136342380D01*
X205820000Y-136342380D01*
X205962857Y-136294761D01*
X206010476Y-136247142D01*
X206010476Y-135913809D01*
X205820000Y-135913809D01*
X206867619Y-136342380D02*
X206867619Y-135818571D01*
X206820000Y-135723333D01*
X206724761Y-135675714D01*
X206534285Y-135675714D01*
X206439047Y-135723333D01*
X206867619Y-136294761D02*
X206772380Y-136342380D01*
X206534285Y-136342380D01*
X206439047Y-136294761D01*
X206391428Y-136199523D01*
X206391428Y-136104285D01*
X206439047Y-136009047D01*
X206534285Y-135961428D01*
X206772380Y-135961428D01*
X206867619Y-135913809D01*
X207343809Y-136342380D02*
X207343809Y-135675714D01*
X207343809Y-135342380D02*
X207296190Y-135390000D01*
X207343809Y-135437619D01*
X207391428Y-135390000D01*
X207343809Y-135342380D01*
X207343809Y-135437619D01*
X207820000Y-135675714D02*
X207820000Y-136342380D01*
X207820000Y-135770952D02*
X207867619Y-135723333D01*
X207962857Y-135675714D01*
X208105714Y-135675714D01*
X208200952Y-135723333D01*
X208248571Y-135818571D01*
X208248571Y-136342380D01*
X209677142Y-135342380D02*
X209867619Y-135342380D01*
X209962857Y-135390000D01*
X210058095Y-135485238D01*
X210105714Y-135675714D01*
X210105714Y-136009047D01*
X210058095Y-136199523D01*
X209962857Y-136294761D01*
X209867619Y-136342380D01*
X209677142Y-136342380D01*
X209581904Y-136294761D01*
X209486666Y-136199523D01*
X209439047Y-136009047D01*
X209439047Y-135675714D01*
X209486666Y-135485238D01*
X209581904Y-135390000D01*
X209677142Y-135342380D01*
X210962857Y-135675714D02*
X210962857Y-136342380D01*
X210534285Y-135675714D02*
X210534285Y-136199523D01*
X210581904Y-136294761D01*
X210677142Y-136342380D01*
X210820000Y-136342380D01*
X210915238Y-136294761D01*
X210962857Y-136247142D01*
X211296190Y-135675714D02*
X211677142Y-135675714D01*
X211439047Y-135342380D02*
X211439047Y-136199523D01*
X211486666Y-136294761D01*
X211581904Y-136342380D01*
X211677142Y-136342380D01*
X212962857Y-135866190D02*
X212962857Y-136342380D01*
X212629523Y-135342380D02*
X212962857Y-135866190D01*
X213296190Y-135342380D01*
X214677142Y-136723333D02*
X214629523Y-136675714D01*
X214534285Y-136532857D01*
X214486666Y-136437619D01*
X214439047Y-136294761D01*
X214391428Y-136056666D01*
X214391428Y-135866190D01*
X214439047Y-135628095D01*
X214486666Y-135485238D01*
X214534285Y-135390000D01*
X214629523Y-135247142D01*
X214677142Y-135199523D01*
X215581904Y-136342380D02*
X215010476Y-136342380D01*
X215296190Y-136342380D02*
X215296190Y-135342380D01*
X215200952Y-135485238D01*
X215105714Y-135580476D01*
X215010476Y-135628095D01*
X215915238Y-136723333D02*
X215962857Y-136675714D01*
X216058095Y-136532857D01*
X216105714Y-136437619D01*
X216153333Y-136294761D01*
X216200952Y-136056666D01*
X216200952Y-135866190D01*
X216153333Y-135628095D01*
X216105714Y-135485238D01*
X216058095Y-135390000D01*
X215962857Y-135247142D01*
X215915238Y-135199523D01*
X231100714Y-116340000D02*
X231005476Y-116292380D01*
X230862619Y-116292380D01*
X230719761Y-116340000D01*
X230624523Y-116435238D01*
X230576904Y-116530476D01*
X230529285Y-116720952D01*
X230529285Y-116863809D01*
X230576904Y-117054285D01*
X230624523Y-117149523D01*
X230719761Y-117244761D01*
X230862619Y-117292380D01*
X230957857Y-117292380D01*
X231100714Y-117244761D01*
X231148333Y-117197142D01*
X231148333Y-116863809D01*
X230957857Y-116863809D01*
X232005476Y-117292380D02*
X232005476Y-116768571D01*
X231957857Y-116673333D01*
X231862619Y-116625714D01*
X231672142Y-116625714D01*
X231576904Y-116673333D01*
X232005476Y-117244761D02*
X231910238Y-117292380D01*
X231672142Y-117292380D01*
X231576904Y-117244761D01*
X231529285Y-117149523D01*
X231529285Y-117054285D01*
X231576904Y-116959047D01*
X231672142Y-116911428D01*
X231910238Y-116911428D01*
X232005476Y-116863809D01*
X232481666Y-117292380D02*
X232481666Y-116625714D01*
X232481666Y-116292380D02*
X232434047Y-116340000D01*
X232481666Y-116387619D01*
X232529285Y-116340000D01*
X232481666Y-116292380D01*
X232481666Y-116387619D01*
X232957857Y-116625714D02*
X232957857Y-117292380D01*
X232957857Y-116720952D02*
X233005476Y-116673333D01*
X233100714Y-116625714D01*
X233243571Y-116625714D01*
X233338809Y-116673333D01*
X233386428Y-116768571D01*
X233386428Y-117292380D01*
X234815000Y-116816190D02*
X234815000Y-117292380D01*
X234481666Y-116292380D02*
X234815000Y-116816190D01*
X235148333Y-116292380D01*
X236529285Y-117673333D02*
X236481666Y-117625714D01*
X236386428Y-117482857D01*
X236338809Y-117387619D01*
X236291190Y-117244761D01*
X236243571Y-117006666D01*
X236243571Y-116816190D01*
X236291190Y-116578095D01*
X236338809Y-116435238D01*
X236386428Y-116340000D01*
X236481666Y-116197142D01*
X236529285Y-116149523D01*
X237338809Y-116292380D02*
X237148333Y-116292380D01*
X237053095Y-116340000D01*
X237005476Y-116387619D01*
X236910238Y-116530476D01*
X236862619Y-116720952D01*
X236862619Y-117101904D01*
X236910238Y-117197142D01*
X236957857Y-117244761D01*
X237053095Y-117292380D01*
X237243571Y-117292380D01*
X237338809Y-117244761D01*
X237386428Y-117197142D01*
X237434047Y-117101904D01*
X237434047Y-116863809D01*
X237386428Y-116768571D01*
X237338809Y-116720952D01*
X237243571Y-116673333D01*
X237053095Y-116673333D01*
X236957857Y-116720952D01*
X236910238Y-116768571D01*
X236862619Y-116863809D01*
X237767380Y-117673333D02*
X237815000Y-117625714D01*
X237910238Y-117482857D01*
X237957857Y-117387619D01*
X238005476Y-117244761D01*
X238053095Y-117006666D01*
X238053095Y-116816190D01*
X238005476Y-116578095D01*
X237957857Y-116435238D01*
X237910238Y-116340000D01*
X237815000Y-116197142D01*
X237767380Y-116149523D01*
X231053095Y-109990000D02*
X230957857Y-109942380D01*
X230815000Y-109942380D01*
X230672142Y-109990000D01*
X230576904Y-110085238D01*
X230529285Y-110180476D01*
X230481666Y-110370952D01*
X230481666Y-110513809D01*
X230529285Y-110704285D01*
X230576904Y-110799523D01*
X230672142Y-110894761D01*
X230815000Y-110942380D01*
X230910238Y-110942380D01*
X231053095Y-110894761D01*
X231100714Y-110847142D01*
X231100714Y-110513809D01*
X230910238Y-110513809D01*
X231957857Y-110942380D02*
X231957857Y-110418571D01*
X231910238Y-110323333D01*
X231815000Y-110275714D01*
X231624523Y-110275714D01*
X231529285Y-110323333D01*
X231957857Y-110894761D02*
X231862619Y-110942380D01*
X231624523Y-110942380D01*
X231529285Y-110894761D01*
X231481666Y-110799523D01*
X231481666Y-110704285D01*
X231529285Y-110609047D01*
X231624523Y-110561428D01*
X231862619Y-110561428D01*
X231957857Y-110513809D01*
X232434047Y-110942380D02*
X232434047Y-110275714D01*
X232434047Y-109942380D02*
X232386428Y-109990000D01*
X232434047Y-110037619D01*
X232481666Y-109990000D01*
X232434047Y-109942380D01*
X232434047Y-110037619D01*
X232910238Y-110275714D02*
X232910238Y-110942380D01*
X232910238Y-110370952D02*
X232957857Y-110323333D01*
X233053095Y-110275714D01*
X233195952Y-110275714D01*
X233291190Y-110323333D01*
X233338809Y-110418571D01*
X233338809Y-110942380D01*
X234481666Y-109942380D02*
X235148333Y-110942380D01*
X235148333Y-109942380D02*
X234481666Y-110942380D01*
X236576904Y-111323333D02*
X236529285Y-111275714D01*
X236434047Y-111132857D01*
X236386428Y-111037619D01*
X236338809Y-110894761D01*
X236291190Y-110656666D01*
X236291190Y-110466190D01*
X236338809Y-110228095D01*
X236386428Y-110085238D01*
X236434047Y-109990000D01*
X236529285Y-109847142D01*
X236576904Y-109799523D01*
X237386428Y-109942380D02*
X237195952Y-109942380D01*
X237100714Y-109990000D01*
X237053095Y-110037619D01*
X236957857Y-110180476D01*
X236910238Y-110370952D01*
X236910238Y-110751904D01*
X236957857Y-110847142D01*
X237005476Y-110894761D01*
X237100714Y-110942380D01*
X237291190Y-110942380D01*
X237386428Y-110894761D01*
X237434047Y-110847142D01*
X237481666Y-110751904D01*
X237481666Y-110513809D01*
X237434047Y-110418571D01*
X237386428Y-110370952D01*
X237291190Y-110323333D01*
X237100714Y-110323333D01*
X237005476Y-110370952D01*
X236957857Y-110418571D01*
X236910238Y-110513809D01*
X237815000Y-111323333D02*
X237862619Y-111275714D01*
X237957857Y-111132857D01*
X238005476Y-111037619D01*
X238053095Y-110894761D01*
X238100714Y-110656666D01*
X238100714Y-110466190D01*
X238053095Y-110228095D01*
X238005476Y-110085238D01*
X237957857Y-109990000D01*
X237862619Y-109847142D01*
X237815000Y-109799523D01*
X205915238Y-90940000D02*
X205820000Y-90892380D01*
X205677142Y-90892380D01*
X205534285Y-90940000D01*
X205439047Y-91035238D01*
X205391428Y-91130476D01*
X205343809Y-91320952D01*
X205343809Y-91463809D01*
X205391428Y-91654285D01*
X205439047Y-91749523D01*
X205534285Y-91844761D01*
X205677142Y-91892380D01*
X205772380Y-91892380D01*
X205915238Y-91844761D01*
X205962857Y-91797142D01*
X205962857Y-91463809D01*
X205772380Y-91463809D01*
X206820000Y-91892380D02*
X206820000Y-91368571D01*
X206772380Y-91273333D01*
X206677142Y-91225714D01*
X206486666Y-91225714D01*
X206391428Y-91273333D01*
X206820000Y-91844761D02*
X206724761Y-91892380D01*
X206486666Y-91892380D01*
X206391428Y-91844761D01*
X206343809Y-91749523D01*
X206343809Y-91654285D01*
X206391428Y-91559047D01*
X206486666Y-91511428D01*
X206724761Y-91511428D01*
X206820000Y-91463809D01*
X207296190Y-91892380D02*
X207296190Y-91225714D01*
X207296190Y-90892380D02*
X207248571Y-90940000D01*
X207296190Y-90987619D01*
X207343809Y-90940000D01*
X207296190Y-90892380D01*
X207296190Y-90987619D01*
X207772380Y-91225714D02*
X207772380Y-91892380D01*
X207772380Y-91320952D02*
X207820000Y-91273333D01*
X207915238Y-91225714D01*
X208058095Y-91225714D01*
X208153333Y-91273333D01*
X208200952Y-91368571D01*
X208200952Y-91892380D01*
X209629523Y-90892380D02*
X209820000Y-90892380D01*
X209915238Y-90940000D01*
X210010476Y-91035238D01*
X210058095Y-91225714D01*
X210058095Y-91559047D01*
X210010476Y-91749523D01*
X209915238Y-91844761D01*
X209820000Y-91892380D01*
X209629523Y-91892380D01*
X209534285Y-91844761D01*
X209439047Y-91749523D01*
X209391428Y-91559047D01*
X209391428Y-91225714D01*
X209439047Y-91035238D01*
X209534285Y-90940000D01*
X209629523Y-90892380D01*
X210915238Y-91225714D02*
X210915238Y-91892380D01*
X210486666Y-91225714D02*
X210486666Y-91749523D01*
X210534285Y-91844761D01*
X210629523Y-91892380D01*
X210772380Y-91892380D01*
X210867619Y-91844761D01*
X210915238Y-91797142D01*
X211248571Y-91225714D02*
X211629523Y-91225714D01*
X211391428Y-90892380D02*
X211391428Y-91749523D01*
X211439047Y-91844761D01*
X211534285Y-91892380D01*
X211629523Y-91892380D01*
X212629523Y-90892380D02*
X213296190Y-91892380D01*
X213296190Y-90892380D02*
X212629523Y-91892380D01*
X214724761Y-92273333D02*
X214677142Y-92225714D01*
X214581904Y-92082857D01*
X214534285Y-91987619D01*
X214486666Y-91844761D01*
X214439047Y-91606666D01*
X214439047Y-91416190D01*
X214486666Y-91178095D01*
X214534285Y-91035238D01*
X214581904Y-90940000D01*
X214677142Y-90797142D01*
X214724761Y-90749523D01*
X215629523Y-91892380D02*
X215058095Y-91892380D01*
X215343809Y-91892380D02*
X215343809Y-90892380D01*
X215248571Y-91035238D01*
X215153333Y-91130476D01*
X215058095Y-91178095D01*
X215962857Y-92273333D02*
X216010476Y-92225714D01*
X216105714Y-92082857D01*
X216153333Y-91987619D01*
X216200952Y-91844761D01*
X216248571Y-91606666D01*
X216248571Y-91416190D01*
X216200952Y-91178095D01*
X216153333Y-91035238D01*
X216105714Y-90940000D01*
X216010476Y-90797142D01*
X215962857Y-90749523D01*
X223464761Y-116292380D02*
X223655238Y-116292380D01*
X223750476Y-116340000D01*
X223845714Y-116435238D01*
X223893333Y-116625714D01*
X223893333Y-116959047D01*
X223845714Y-117149523D01*
X223750476Y-117244761D01*
X223655238Y-117292380D01*
X223464761Y-117292380D01*
X223369523Y-117244761D01*
X223274285Y-117149523D01*
X223226666Y-116959047D01*
X223226666Y-116625714D01*
X223274285Y-116435238D01*
X223369523Y-116340000D01*
X223464761Y-116292380D01*
X224179047Y-116625714D02*
X224560000Y-116625714D01*
X224321904Y-117292380D02*
X224321904Y-116435238D01*
X224369523Y-116340000D01*
X224464761Y-116292380D01*
X224560000Y-116292380D01*
X224750476Y-116625714D02*
X225131428Y-116625714D01*
X224893333Y-117292380D02*
X224893333Y-116435238D01*
X224940952Y-116340000D01*
X225036190Y-116292380D01*
X225131428Y-116292380D01*
X225417142Y-117244761D02*
X225512380Y-117292380D01*
X225702857Y-117292380D01*
X225798095Y-117244761D01*
X225845714Y-117149523D01*
X225845714Y-117101904D01*
X225798095Y-117006666D01*
X225702857Y-116959047D01*
X225560000Y-116959047D01*
X225464761Y-116911428D01*
X225417142Y-116816190D01*
X225417142Y-116768571D01*
X225464761Y-116673333D01*
X225560000Y-116625714D01*
X225702857Y-116625714D01*
X225798095Y-116673333D01*
X226655238Y-117244761D02*
X226560000Y-117292380D01*
X226369523Y-117292380D01*
X226274285Y-117244761D01*
X226226666Y-117149523D01*
X226226666Y-116768571D01*
X226274285Y-116673333D01*
X226369523Y-116625714D01*
X226560000Y-116625714D01*
X226655238Y-116673333D01*
X226702857Y-116768571D01*
X226702857Y-116863809D01*
X226226666Y-116959047D01*
X226988571Y-116625714D02*
X227369523Y-116625714D01*
X227131428Y-116292380D02*
X227131428Y-117149523D01*
X227179047Y-117244761D01*
X227274285Y-117292380D01*
X227369523Y-117292380D01*
X228655238Y-116816190D02*
X228655238Y-117292380D01*
X228321904Y-116292380D02*
X228655238Y-116816190D01*
X228988571Y-116292380D01*
X223417142Y-109942380D02*
X223607619Y-109942380D01*
X223702857Y-109990000D01*
X223798095Y-110085238D01*
X223845714Y-110275714D01*
X223845714Y-110609047D01*
X223798095Y-110799523D01*
X223702857Y-110894761D01*
X223607619Y-110942380D01*
X223417142Y-110942380D01*
X223321904Y-110894761D01*
X223226666Y-110799523D01*
X223179047Y-110609047D01*
X223179047Y-110275714D01*
X223226666Y-110085238D01*
X223321904Y-109990000D01*
X223417142Y-109942380D01*
X224131428Y-110275714D02*
X224512380Y-110275714D01*
X224274285Y-110942380D02*
X224274285Y-110085238D01*
X224321904Y-109990000D01*
X224417142Y-109942380D01*
X224512380Y-109942380D01*
X224702857Y-110275714D02*
X225083809Y-110275714D01*
X224845714Y-110942380D02*
X224845714Y-110085238D01*
X224893333Y-109990000D01*
X224988571Y-109942380D01*
X225083809Y-109942380D01*
X225369523Y-110894761D02*
X225464761Y-110942380D01*
X225655238Y-110942380D01*
X225750476Y-110894761D01*
X225798095Y-110799523D01*
X225798095Y-110751904D01*
X225750476Y-110656666D01*
X225655238Y-110609047D01*
X225512380Y-110609047D01*
X225417142Y-110561428D01*
X225369523Y-110466190D01*
X225369523Y-110418571D01*
X225417142Y-110323333D01*
X225512380Y-110275714D01*
X225655238Y-110275714D01*
X225750476Y-110323333D01*
X226607619Y-110894761D02*
X226512380Y-110942380D01*
X226321904Y-110942380D01*
X226226666Y-110894761D01*
X226179047Y-110799523D01*
X226179047Y-110418571D01*
X226226666Y-110323333D01*
X226321904Y-110275714D01*
X226512380Y-110275714D01*
X226607619Y-110323333D01*
X226655238Y-110418571D01*
X226655238Y-110513809D01*
X226179047Y-110609047D01*
X226940952Y-110275714D02*
X227321904Y-110275714D01*
X227083809Y-109942380D02*
X227083809Y-110799523D01*
X227131428Y-110894761D01*
X227226666Y-110942380D01*
X227321904Y-110942380D01*
X228321904Y-109942380D02*
X228988571Y-110942380D01*
X228988571Y-109942380D02*
X228321904Y-110942380D01*
X76970000Y-105878095D02*
X76922380Y-105973333D01*
X76922380Y-106116190D01*
X76970000Y-106259047D01*
X77065238Y-106354285D01*
X77160476Y-106401904D01*
X77350952Y-106449523D01*
X77493809Y-106449523D01*
X77684285Y-106401904D01*
X77779523Y-106354285D01*
X77874761Y-106259047D01*
X77922380Y-106116190D01*
X77922380Y-106020952D01*
X77874761Y-105878095D01*
X77827142Y-105830476D01*
X77493809Y-105830476D01*
X77493809Y-106020952D01*
X77922380Y-104973333D02*
X77398571Y-104973333D01*
X77303333Y-105020952D01*
X77255714Y-105116190D01*
X77255714Y-105306666D01*
X77303333Y-105401904D01*
X77874761Y-104973333D02*
X77922380Y-105068571D01*
X77922380Y-105306666D01*
X77874761Y-105401904D01*
X77779523Y-105449523D01*
X77684285Y-105449523D01*
X77589047Y-105401904D01*
X77541428Y-105306666D01*
X77541428Y-105068571D01*
X77493809Y-104973333D01*
X77922380Y-104497142D02*
X77255714Y-104497142D01*
X76922380Y-104497142D02*
X76970000Y-104544761D01*
X77017619Y-104497142D01*
X76970000Y-104449523D01*
X76922380Y-104497142D01*
X77017619Y-104497142D01*
X77255714Y-104020952D02*
X77922380Y-104020952D01*
X77350952Y-104020952D02*
X77303333Y-103973333D01*
X77255714Y-103878095D01*
X77255714Y-103735238D01*
X77303333Y-103640000D01*
X77398571Y-103592380D01*
X77922380Y-103592380D01*
X78017619Y-103354285D02*
X78017619Y-102592380D01*
X76922380Y-102449523D02*
X77922380Y-101782857D01*
X76922380Y-101782857D02*
X77922380Y-102449523D01*
X76970000Y-147740476D02*
X76922380Y-147835714D01*
X76922380Y-147978571D01*
X76970000Y-148121428D01*
X77065238Y-148216666D01*
X77160476Y-148264285D01*
X77350952Y-148311904D01*
X77493809Y-148311904D01*
X77684285Y-148264285D01*
X77779523Y-148216666D01*
X77874761Y-148121428D01*
X77922380Y-147978571D01*
X77922380Y-147883333D01*
X77874761Y-147740476D01*
X77827142Y-147692857D01*
X77493809Y-147692857D01*
X77493809Y-147883333D01*
X77922380Y-146835714D02*
X77398571Y-146835714D01*
X77303333Y-146883333D01*
X77255714Y-146978571D01*
X77255714Y-147169047D01*
X77303333Y-147264285D01*
X77874761Y-146835714D02*
X77922380Y-146930952D01*
X77922380Y-147169047D01*
X77874761Y-147264285D01*
X77779523Y-147311904D01*
X77684285Y-147311904D01*
X77589047Y-147264285D01*
X77541428Y-147169047D01*
X77541428Y-146930952D01*
X77493809Y-146835714D01*
X77922380Y-146359523D02*
X77255714Y-146359523D01*
X76922380Y-146359523D02*
X76970000Y-146407142D01*
X77017619Y-146359523D01*
X76970000Y-146311904D01*
X76922380Y-146359523D01*
X77017619Y-146359523D01*
X77255714Y-145883333D02*
X77922380Y-145883333D01*
X77350952Y-145883333D02*
X77303333Y-145835714D01*
X77255714Y-145740476D01*
X77255714Y-145597619D01*
X77303333Y-145502380D01*
X77398571Y-145454761D01*
X77922380Y-145454761D01*
X78017619Y-145216666D02*
X78017619Y-144454761D01*
X77446190Y-144026190D02*
X77922380Y-144026190D01*
X76922380Y-144359523D02*
X77446190Y-144026190D01*
X76922380Y-143692857D01*
X92019761Y-156297380D02*
X92210238Y-156297380D01*
X92305476Y-156345000D01*
X92400714Y-156440238D01*
X92448333Y-156630714D01*
X92448333Y-156964047D01*
X92400714Y-157154523D01*
X92305476Y-157249761D01*
X92210238Y-157297380D01*
X92019761Y-157297380D01*
X91924523Y-157249761D01*
X91829285Y-157154523D01*
X91781666Y-156964047D01*
X91781666Y-156630714D01*
X91829285Y-156440238D01*
X91924523Y-156345000D01*
X92019761Y-156297380D01*
X92734047Y-156630714D02*
X93115000Y-156630714D01*
X92876904Y-157297380D02*
X92876904Y-156440238D01*
X92924523Y-156345000D01*
X93019761Y-156297380D01*
X93115000Y-156297380D01*
X93305476Y-156630714D02*
X93686428Y-156630714D01*
X93448333Y-157297380D02*
X93448333Y-156440238D01*
X93495952Y-156345000D01*
X93591190Y-156297380D01*
X93686428Y-156297380D01*
X93972142Y-157249761D02*
X94067380Y-157297380D01*
X94257857Y-157297380D01*
X94353095Y-157249761D01*
X94400714Y-157154523D01*
X94400714Y-157106904D01*
X94353095Y-157011666D01*
X94257857Y-156964047D01*
X94115000Y-156964047D01*
X94019761Y-156916428D01*
X93972142Y-156821190D01*
X93972142Y-156773571D01*
X94019761Y-156678333D01*
X94115000Y-156630714D01*
X94257857Y-156630714D01*
X94353095Y-156678333D01*
X95210238Y-157249761D02*
X95115000Y-157297380D01*
X94924523Y-157297380D01*
X94829285Y-157249761D01*
X94781666Y-157154523D01*
X94781666Y-156773571D01*
X94829285Y-156678333D01*
X94924523Y-156630714D01*
X95115000Y-156630714D01*
X95210238Y-156678333D01*
X95257857Y-156773571D01*
X95257857Y-156868809D01*
X94781666Y-156964047D01*
X95543571Y-156630714D02*
X95924523Y-156630714D01*
X95686428Y-156297380D02*
X95686428Y-157154523D01*
X95734047Y-157249761D01*
X95829285Y-157297380D01*
X95924523Y-157297380D01*
X96019761Y-157392619D02*
X96781666Y-157392619D01*
X97210238Y-156821190D02*
X97210238Y-157297380D01*
X96876904Y-156297380D02*
X97210238Y-156821190D01*
X97543571Y-156297380D01*
X91972142Y-92162380D02*
X92162619Y-92162380D01*
X92257857Y-92210000D01*
X92353095Y-92305238D01*
X92400714Y-92495714D01*
X92400714Y-92829047D01*
X92353095Y-93019523D01*
X92257857Y-93114761D01*
X92162619Y-93162380D01*
X91972142Y-93162380D01*
X91876904Y-93114761D01*
X91781666Y-93019523D01*
X91734047Y-92829047D01*
X91734047Y-92495714D01*
X91781666Y-92305238D01*
X91876904Y-92210000D01*
X91972142Y-92162380D01*
X92686428Y-92495714D02*
X93067380Y-92495714D01*
X92829285Y-93162380D02*
X92829285Y-92305238D01*
X92876904Y-92210000D01*
X92972142Y-92162380D01*
X93067380Y-92162380D01*
X93257857Y-92495714D02*
X93638809Y-92495714D01*
X93400714Y-93162380D02*
X93400714Y-92305238D01*
X93448333Y-92210000D01*
X93543571Y-92162380D01*
X93638809Y-92162380D01*
X93924523Y-93114761D02*
X94019761Y-93162380D01*
X94210238Y-93162380D01*
X94305476Y-93114761D01*
X94353095Y-93019523D01*
X94353095Y-92971904D01*
X94305476Y-92876666D01*
X94210238Y-92829047D01*
X94067380Y-92829047D01*
X93972142Y-92781428D01*
X93924523Y-92686190D01*
X93924523Y-92638571D01*
X93972142Y-92543333D01*
X94067380Y-92495714D01*
X94210238Y-92495714D01*
X94305476Y-92543333D01*
X95162619Y-93114761D02*
X95067380Y-93162380D01*
X94876904Y-93162380D01*
X94781666Y-93114761D01*
X94734047Y-93019523D01*
X94734047Y-92638571D01*
X94781666Y-92543333D01*
X94876904Y-92495714D01*
X95067380Y-92495714D01*
X95162619Y-92543333D01*
X95210238Y-92638571D01*
X95210238Y-92733809D01*
X94734047Y-92829047D01*
X95495952Y-92495714D02*
X95876904Y-92495714D01*
X95638809Y-92162380D02*
X95638809Y-93019523D01*
X95686428Y-93114761D01*
X95781666Y-93162380D01*
X95876904Y-93162380D01*
X95972142Y-93257619D02*
X96734047Y-93257619D01*
X96876904Y-92162380D02*
X97543571Y-93162380D01*
X97543571Y-92162380D02*
X96876904Y-93162380D01*
D12*
X229330714Y-86534761D02*
X229711666Y-86534761D01*
X229902142Y-86630000D01*
X230092619Y-86820476D01*
X230187857Y-87201428D01*
X230187857Y-87868095D01*
X230092619Y-88249047D01*
X229902142Y-88439523D01*
X229711666Y-88534761D01*
X229330714Y-88534761D01*
X229140238Y-88439523D01*
X228949761Y-88249047D01*
X228854523Y-87868095D01*
X228854523Y-87201428D01*
X228949761Y-86820476D01*
X229140238Y-86630000D01*
X229330714Y-86534761D01*
X231045000Y-86534761D02*
X231045000Y-88153809D01*
X231140238Y-88344285D01*
X231235476Y-88439523D01*
X231425952Y-88534761D01*
X231806904Y-88534761D01*
X231997380Y-88439523D01*
X232092619Y-88344285D01*
X232187857Y-88153809D01*
X232187857Y-86534761D01*
X232854523Y-86534761D02*
X233997380Y-86534761D01*
X233425952Y-88534761D02*
X233425952Y-86534761D01*
X234187857Y-88725238D02*
X235711666Y-88725238D01*
X235997380Y-86534761D02*
X237330714Y-88534761D01*
X237330714Y-86534761D02*
X235997380Y-88534761D01*
X229425952Y-138604761D02*
X229806904Y-138604761D01*
X229997380Y-138700000D01*
X230187857Y-138890476D01*
X230283095Y-139271428D01*
X230283095Y-139938095D01*
X230187857Y-140319047D01*
X229997380Y-140509523D01*
X229806904Y-140604761D01*
X229425952Y-140604761D01*
X229235476Y-140509523D01*
X229045000Y-140319047D01*
X228949761Y-139938095D01*
X228949761Y-139271428D01*
X229045000Y-138890476D01*
X229235476Y-138700000D01*
X229425952Y-138604761D01*
X231140238Y-138604761D02*
X231140238Y-140223809D01*
X231235476Y-140414285D01*
X231330714Y-140509523D01*
X231521190Y-140604761D01*
X231902142Y-140604761D01*
X232092619Y-140509523D01*
X232187857Y-140414285D01*
X232283095Y-140223809D01*
X232283095Y-138604761D01*
X232949761Y-138604761D02*
X234092619Y-138604761D01*
X233521190Y-140604761D02*
X233521190Y-138604761D01*
X234283095Y-140795238D02*
X235806904Y-140795238D01*
X236664047Y-139652380D02*
X236664047Y-140604761D01*
X235997380Y-138604761D02*
X236664047Y-139652380D01*
X237330714Y-138604761D01*
X68453333Y-150764761D02*
X68453333Y-148764761D01*
X69405714Y-150764761D02*
X69405714Y-148764761D01*
X70548571Y-150764761D01*
X70548571Y-148764761D01*
X71024761Y-150955238D02*
X72548571Y-150955238D01*
X73405714Y-149812380D02*
X73405714Y-150764761D01*
X72739047Y-148764761D02*
X73405714Y-149812380D01*
X74072380Y-148764761D01*
X68358095Y-101234761D02*
X68358095Y-99234761D01*
X69310476Y-101234761D02*
X69310476Y-99234761D01*
X70453333Y-101234761D01*
X70453333Y-99234761D01*
X70929523Y-101425238D02*
X72453333Y-101425238D01*
X72739047Y-99234761D02*
X74072380Y-101234761D01*
X74072380Y-99234761D02*
X72739047Y-101234761D01*
D10*
X84519047Y-68080000D02*
X84423809Y-68032380D01*
X84280952Y-68032380D01*
X84138095Y-68080000D01*
X84042857Y-68175238D01*
X83995238Y-68270476D01*
X83947619Y-68460952D01*
X83947619Y-68603809D01*
X83995238Y-68794285D01*
X84042857Y-68889523D01*
X84138095Y-68984761D01*
X84280952Y-69032380D01*
X84376190Y-69032380D01*
X84519047Y-68984761D01*
X84566666Y-68937142D01*
X84566666Y-68603809D01*
X84376190Y-68603809D01*
X84995238Y-69032380D02*
X84995238Y-68032380D01*
X85566666Y-69032380D01*
X85566666Y-68032380D01*
X86042857Y-69032380D02*
X86042857Y-68032380D01*
X86280952Y-68032380D01*
X86423809Y-68080000D01*
X86519047Y-68175238D01*
X86566666Y-68270476D01*
X86614285Y-68460952D01*
X86614285Y-68603809D01*
X86566666Y-68794285D01*
X86519047Y-68889523D01*
X86423809Y-68984761D01*
X86280952Y-69032380D01*
X86042857Y-69032380D01*
X88519047Y-67984761D02*
X87661904Y-69270476D01*
X89947619Y-68508571D02*
X90090476Y-68556190D01*
X90138095Y-68603809D01*
X90185714Y-68699047D01*
X90185714Y-68841904D01*
X90138095Y-68937142D01*
X90090476Y-68984761D01*
X89995238Y-69032380D01*
X89614285Y-69032380D01*
X89614285Y-68032380D01*
X89947619Y-68032380D01*
X90042857Y-68080000D01*
X90090476Y-68127619D01*
X90138095Y-68222857D01*
X90138095Y-68318095D01*
X90090476Y-68413333D01*
X90042857Y-68460952D01*
X89947619Y-68508571D01*
X89614285Y-68508571D01*
X91090476Y-69032380D02*
X90614285Y-69032380D01*
X90614285Y-68032380D01*
X91376190Y-68746666D02*
X91852380Y-68746666D01*
X91280952Y-69032380D02*
X91614285Y-68032380D01*
X91947619Y-69032380D01*
X92852380Y-68937142D02*
X92804761Y-68984761D01*
X92661904Y-69032380D01*
X92566666Y-69032380D01*
X92423809Y-68984761D01*
X92328571Y-68889523D01*
X92280952Y-68794285D01*
X92233333Y-68603809D01*
X92233333Y-68460952D01*
X92280952Y-68270476D01*
X92328571Y-68175238D01*
X92423809Y-68080000D01*
X92566666Y-68032380D01*
X92661904Y-68032380D01*
X92804761Y-68080000D01*
X92852380Y-68127619D01*
X93280952Y-69032380D02*
X93280952Y-68032380D01*
X93852380Y-69032380D02*
X93423809Y-68460952D01*
X93852380Y-68032380D02*
X93280952Y-68603809D01*
X93154523Y-73112380D02*
X92678333Y-73112380D01*
X92630714Y-73588571D01*
X92678333Y-73540952D01*
X92773571Y-73493333D01*
X93011666Y-73493333D01*
X93106904Y-73540952D01*
X93154523Y-73588571D01*
X93202142Y-73683809D01*
X93202142Y-73921904D01*
X93154523Y-74017142D01*
X93106904Y-74064761D01*
X93011666Y-74112380D01*
X92773571Y-74112380D01*
X92678333Y-74064761D01*
X92630714Y-74017142D01*
X93487857Y-73112380D02*
X93821190Y-74112380D01*
X94154523Y-73112380D01*
X93178333Y-76652380D02*
X92845000Y-76176190D01*
X92606904Y-76652380D02*
X92606904Y-75652380D01*
X92987857Y-75652380D01*
X93083095Y-75700000D01*
X93130714Y-75747619D01*
X93178333Y-75842857D01*
X93178333Y-75985714D01*
X93130714Y-76080952D01*
X93083095Y-76128571D01*
X92987857Y-76176190D01*
X92606904Y-76176190D01*
X93511666Y-75652380D02*
X94178333Y-76652380D01*
X94178333Y-75652380D02*
X93511666Y-76652380D01*
X92583095Y-78192380D02*
X93154523Y-78192380D01*
X92868809Y-79192380D02*
X92868809Y-78192380D01*
X93392619Y-78192380D02*
X94059285Y-79192380D01*
X94059285Y-78192380D02*
X93392619Y-79192380D01*
D12*
X130315714Y-104183571D02*
X130315714Y-102683571D01*
X131172857Y-104183571D01*
X131172857Y-102683571D01*
X131887142Y-102683571D02*
X131887142Y-103897857D01*
X131958571Y-104040714D01*
X132030000Y-104112142D01*
X132172857Y-104183571D01*
X132458571Y-104183571D01*
X132601428Y-104112142D01*
X132672857Y-104040714D01*
X132744285Y-103897857D01*
X132744285Y-102683571D01*
X134315714Y-104040714D02*
X134244285Y-104112142D01*
X134030000Y-104183571D01*
X133887142Y-104183571D01*
X133672857Y-104112142D01*
X133530000Y-103969285D01*
X133458571Y-103826428D01*
X133387142Y-103540714D01*
X133387142Y-103326428D01*
X133458571Y-103040714D01*
X133530000Y-102897857D01*
X133672857Y-102755000D01*
X133887142Y-102683571D01*
X134030000Y-102683571D01*
X134244285Y-102755000D01*
X134315714Y-102826428D01*
X135672857Y-104183571D02*
X134958571Y-104183571D01*
X134958571Y-102683571D01*
X136172857Y-103397857D02*
X136672857Y-103397857D01*
X136887142Y-104183571D02*
X136172857Y-104183571D01*
X136172857Y-102683571D01*
X136887142Y-102683571D01*
X137815714Y-102683571D02*
X138101428Y-102683571D01*
X138244285Y-102755000D01*
X138387142Y-102897857D01*
X138458571Y-103183571D01*
X138458571Y-103683571D01*
X138387142Y-103969285D01*
X138244285Y-104112142D01*
X138101428Y-104183571D01*
X137815714Y-104183571D01*
X137672857Y-104112142D01*
X137530000Y-103969285D01*
X137458571Y-103683571D01*
X137458571Y-103183571D01*
X137530000Y-102897857D01*
X137672857Y-102755000D01*
X137815714Y-102683571D01*
X140744285Y-103397857D02*
X140958571Y-103469285D01*
X141030000Y-103540714D01*
X141101428Y-103683571D01*
X141101428Y-103897857D01*
X141030000Y-104040714D01*
X140958571Y-104112142D01*
X140815714Y-104183571D01*
X140244285Y-104183571D01*
X140244285Y-102683571D01*
X140744285Y-102683571D01*
X140887142Y-102755000D01*
X140958571Y-102826428D01*
X141030000Y-102969285D01*
X141030000Y-103112142D01*
X140958571Y-103255000D01*
X140887142Y-103326428D01*
X140744285Y-103397857D01*
X140244285Y-103397857D01*
X142030000Y-102683571D02*
X142315714Y-102683571D01*
X142458571Y-102755000D01*
X142601428Y-102897857D01*
X142672857Y-103183571D01*
X142672857Y-103683571D01*
X142601428Y-103969285D01*
X142458571Y-104112142D01*
X142315714Y-104183571D01*
X142030000Y-104183571D01*
X141887142Y-104112142D01*
X141744285Y-103969285D01*
X141672857Y-103683571D01*
X141672857Y-103183571D01*
X141744285Y-102897857D01*
X141887142Y-102755000D01*
X142030000Y-102683571D01*
X143244285Y-103755000D02*
X143958571Y-103755000D01*
X143101428Y-104183571D02*
X143601428Y-102683571D01*
X144101428Y-104183571D01*
X145458571Y-104183571D02*
X144958571Y-103469285D01*
X144601428Y-104183571D02*
X144601428Y-102683571D01*
X145172857Y-102683571D01*
X145315714Y-102755000D01*
X145387142Y-102826428D01*
X145458571Y-102969285D01*
X145458571Y-103183571D01*
X145387142Y-103326428D01*
X145315714Y-103397857D01*
X145172857Y-103469285D01*
X144601428Y-103469285D01*
X146101428Y-104183571D02*
X146101428Y-102683571D01*
X146458571Y-102683571D01*
X146672857Y-102755000D01*
X146815714Y-102897857D01*
X146887142Y-103040714D01*
X146958571Y-103326428D01*
X146958571Y-103540714D01*
X146887142Y-103826428D01*
X146815714Y-103969285D01*
X146672857Y-104112142D01*
X146458571Y-104183571D01*
X146101428Y-104183571D01*
X149815714Y-102612142D02*
X148530000Y-104540714D01*
X152172857Y-104183571D02*
X151458571Y-104183571D01*
X151458571Y-102683571D01*
X153315714Y-103183571D02*
X153315714Y-104183571D01*
X152958571Y-102612142D02*
X152601428Y-103683571D01*
X153530000Y-103683571D01*
X153958571Y-102683571D02*
X154958571Y-102683571D01*
X154315714Y-104183571D01*
X156172857Y-102683571D02*
X155887142Y-102683571D01*
X155744285Y-102755000D01*
X155672857Y-102826428D01*
X155530000Y-103040714D01*
X155458571Y-103326428D01*
X155458571Y-103897857D01*
X155530000Y-104040714D01*
X155601428Y-104112142D01*
X155744285Y-104183571D01*
X156030000Y-104183571D01*
X156172857Y-104112142D01*
X156244285Y-104040714D01*
X156315714Y-103897857D01*
X156315714Y-103540714D01*
X156244285Y-103397857D01*
X156172857Y-103326428D01*
X156030000Y-103255000D01*
X155744285Y-103255000D01*
X155601428Y-103326428D01*
X155530000Y-103397857D01*
X155458571Y-103540714D01*
X157815714Y-104183571D02*
X157315714Y-103469285D01*
X156958571Y-104183571D02*
X156958571Y-102683571D01*
X157530000Y-102683571D01*
X157672857Y-102755000D01*
X157744285Y-102826428D01*
X157815714Y-102969285D01*
X157815714Y-103183571D01*
X157744285Y-103326428D01*
X157672857Y-103397857D01*
X157530000Y-103469285D01*
X156958571Y-103469285D01*
X159244285Y-102755000D02*
X159101428Y-102683571D01*
X158887142Y-102683571D01*
X158672857Y-102755000D01*
X158530000Y-102897857D01*
X158458571Y-103040714D01*
X158387142Y-103326428D01*
X158387142Y-103540714D01*
X158458571Y-103826428D01*
X158530000Y-103969285D01*
X158672857Y-104112142D01*
X158887142Y-104183571D01*
X159030000Y-104183571D01*
X159244285Y-104112142D01*
X159315714Y-104040714D01*
X159315714Y-103540714D01*
X159030000Y-103540714D01*
X211694285Y-164354761D02*
X210741904Y-164354761D01*
X210741904Y-162354761D01*
X212360952Y-163307142D02*
X213027619Y-163307142D01*
X213313333Y-164354761D02*
X212360952Y-164354761D01*
X212360952Y-162354761D01*
X213313333Y-162354761D01*
X214170476Y-163021428D02*
X214170476Y-164354761D01*
X214170476Y-163211904D02*
X214265714Y-163116666D01*
X214456190Y-163021428D01*
X214741904Y-163021428D01*
X214932380Y-163116666D01*
X215027619Y-163307142D01*
X215027619Y-164354761D01*
X215884761Y-164259523D02*
X216075238Y-164354761D01*
X216456190Y-164354761D01*
X216646666Y-164259523D01*
X216741904Y-164069047D01*
X216741904Y-163973809D01*
X216646666Y-163783333D01*
X216456190Y-163688095D01*
X216170476Y-163688095D01*
X215980000Y-163592857D01*
X215884761Y-163402380D01*
X215884761Y-163307142D01*
X215980000Y-163116666D01*
X216170476Y-163021428D01*
X216456190Y-163021428D01*
X216646666Y-163116666D01*
X217599047Y-163307142D02*
X218265714Y-163307142D01*
X218551428Y-164354761D02*
X217599047Y-164354761D01*
X217599047Y-162354761D01*
X218551428Y-162354761D01*
X222360952Y-162259523D02*
X220646666Y-164830952D01*
X224456190Y-162545238D02*
X224551428Y-162450000D01*
X224741904Y-162354761D01*
X225218095Y-162354761D01*
X225408571Y-162450000D01*
X225503809Y-162545238D01*
X225599047Y-162735714D01*
X225599047Y-162926190D01*
X225503809Y-163211904D01*
X224360952Y-164354761D01*
X225599047Y-164354761D01*
X226837142Y-162354761D02*
X227027619Y-162354761D01*
X227218095Y-162450000D01*
X227313333Y-162545238D01*
X227408571Y-162735714D01*
X227503809Y-163116666D01*
X227503809Y-163592857D01*
X227408571Y-163973809D01*
X227313333Y-164164285D01*
X227218095Y-164259523D01*
X227027619Y-164354761D01*
X226837142Y-164354761D01*
X226646666Y-164259523D01*
X226551428Y-164164285D01*
X226456190Y-163973809D01*
X226360952Y-163592857D01*
X226360952Y-163116666D01*
X226456190Y-162735714D01*
X226551428Y-162545238D01*
X226646666Y-162450000D01*
X226837142Y-162354761D01*
X228265714Y-162545238D02*
X228360952Y-162450000D01*
X228551428Y-162354761D01*
X229027619Y-162354761D01*
X229218095Y-162450000D01*
X229313333Y-162545238D01*
X229408571Y-162735714D01*
X229408571Y-162926190D01*
X229313333Y-163211904D01*
X228170476Y-164354761D01*
X229408571Y-164354761D01*
X230646666Y-162354761D02*
X230837142Y-162354761D01*
X231027619Y-162450000D01*
X231122857Y-162545238D01*
X231218095Y-162735714D01*
X231313333Y-163116666D01*
X231313333Y-163592857D01*
X231218095Y-163973809D01*
X231122857Y-164164285D01*
X231027619Y-164259523D01*
X230837142Y-164354761D01*
X230646666Y-164354761D01*
X230456190Y-164259523D01*
X230360952Y-164164285D01*
X230265714Y-163973809D01*
X230170476Y-163592857D01*
X230170476Y-163116666D01*
X230265714Y-162735714D01*
X230360952Y-162545238D01*
X230456190Y-162450000D01*
X230646666Y-162354761D01*
X206218095Y-167654761D02*
X206218095Y-165654761D01*
X206980000Y-165654761D01*
X207170476Y-165750000D01*
X207265714Y-165845238D01*
X207360952Y-166035714D01*
X207360952Y-166321428D01*
X207265714Y-166511904D01*
X207170476Y-166607142D01*
X206980000Y-166702380D01*
X206218095Y-166702380D01*
X208218095Y-167654761D02*
X208218095Y-165654761D01*
X209170476Y-167654761D02*
X209170476Y-165654761D01*
X209646666Y-165654761D01*
X209932380Y-165750000D01*
X210122857Y-165940476D01*
X210218095Y-166130952D01*
X210313333Y-166511904D01*
X210313333Y-166797619D01*
X210218095Y-167178571D01*
X210122857Y-167369047D01*
X209932380Y-167559523D01*
X209646666Y-167654761D01*
X209170476Y-167654761D01*
X211170476Y-166892857D02*
X212694285Y-166892857D01*
X214599047Y-167654761D02*
X213646666Y-167654761D01*
X213646666Y-165654761D01*
X216599047Y-167845238D02*
X216408571Y-167750000D01*
X216218095Y-167559523D01*
X215932380Y-167273809D01*
X215741904Y-167178571D01*
X215551428Y-167178571D01*
X215646666Y-167654761D02*
X215456190Y-167559523D01*
X215265714Y-167369047D01*
X215170476Y-166988095D01*
X215170476Y-166321428D01*
X215265714Y-165940476D01*
X215456190Y-165750000D01*
X215646666Y-165654761D01*
X216027619Y-165654761D01*
X216218095Y-165750000D01*
X216408571Y-165940476D01*
X216503809Y-166321428D01*
X216503809Y-166988095D01*
X216408571Y-167369047D01*
X216218095Y-167559523D01*
X216027619Y-167654761D01*
X215646666Y-167654761D01*
X218408571Y-165750000D02*
X218218095Y-165654761D01*
X217932380Y-165654761D01*
X217646666Y-165750000D01*
X217456190Y-165940476D01*
X217360952Y-166130952D01*
X217265714Y-166511904D01*
X217265714Y-166797619D01*
X217360952Y-167178571D01*
X217456190Y-167369047D01*
X217646666Y-167559523D01*
X217932380Y-167654761D01*
X218122857Y-167654761D01*
X218408571Y-167559523D01*
X218503809Y-167464285D01*
X218503809Y-166797619D01*
X218122857Y-166797619D01*
X220884761Y-167654761D02*
X220884761Y-165654761D01*
X222027619Y-167654761D01*
X222027619Y-165654761D01*
X223837142Y-166321428D02*
X223837142Y-167654761D01*
X222980000Y-166321428D02*
X222980000Y-167369047D01*
X223075238Y-167559523D01*
X223265714Y-167654761D01*
X223551428Y-167654761D01*
X223741904Y-167559523D01*
X223837142Y-167464285D01*
X224789523Y-167654761D02*
X224789523Y-166321428D01*
X224789523Y-166511904D02*
X224884761Y-166416666D01*
X225075238Y-166321428D01*
X225360952Y-166321428D01*
X225551428Y-166416666D01*
X225646666Y-166607142D01*
X225646666Y-167654761D01*
X225646666Y-166607142D02*
X225741904Y-166416666D01*
X225932380Y-166321428D01*
X226218095Y-166321428D01*
X226408571Y-166416666D01*
X226503809Y-166607142D01*
X226503809Y-167654761D01*
X228218095Y-167559523D02*
X228027619Y-167654761D01*
X227646666Y-167654761D01*
X227456190Y-167559523D01*
X227360952Y-167369047D01*
X227360952Y-166607142D01*
X227456190Y-166416666D01*
X227646666Y-166321428D01*
X228027619Y-166321428D01*
X228218095Y-166416666D01*
X228313333Y-166607142D01*
X228313333Y-166797619D01*
X227360952Y-166988095D01*
X229170476Y-167654761D02*
X229170476Y-166321428D01*
X229170476Y-166702380D02*
X229265714Y-166511904D01*
X229360952Y-166416666D01*
X229551428Y-166321428D01*
X229741904Y-166321428D01*
X230408571Y-167654761D02*
X230408571Y-166321428D01*
X230408571Y-165654761D02*
X230313333Y-165750000D01*
X230408571Y-165845238D01*
X230503809Y-165750000D01*
X230408571Y-165654761D01*
X230408571Y-165845238D01*
X232218095Y-166321428D02*
X232218095Y-168321428D01*
X232218095Y-167559523D02*
X232027619Y-167654761D01*
X231646666Y-167654761D01*
X231456190Y-167559523D01*
X231360952Y-167464285D01*
X231265714Y-167273809D01*
X231265714Y-166702380D01*
X231360952Y-166511904D01*
X231456190Y-166416666D01*
X231646666Y-166321428D01*
X232027619Y-166321428D01*
X232218095Y-166416666D01*
X234027619Y-166321428D02*
X234027619Y-167654761D01*
X233170476Y-166321428D02*
X233170476Y-167369047D01*
X233265714Y-167559523D01*
X233456190Y-167654761D01*
X233741904Y-167654761D01*
X233932380Y-167559523D01*
X234027619Y-167464285D01*
X235741904Y-167559523D02*
X235551428Y-167654761D01*
X235170476Y-167654761D01*
X234980000Y-167559523D01*
X234884761Y-167369047D01*
X234884761Y-166607142D01*
X234980000Y-166416666D01*
X235170476Y-166321428D01*
X235551428Y-166321428D01*
X235741904Y-166416666D01*
X235837142Y-166607142D01*
X235837142Y-166797619D01*
X234884761Y-166988095D01*
D13*
%TO.C,R22*%
X228695000Y-136625000D02*
X228695000Y-133885000D01*
X228695000Y-133885000D02*
X222155000Y-133885000D01*
X222155000Y-133885000D02*
X222155000Y-136625000D01*
X222155000Y-136625000D02*
X228695000Y-136625000D01*
X229465000Y-135255000D02*
X228695000Y-135255000D01*
X221385000Y-135255000D02*
X222155000Y-135255000D01*
%TO.C,R6*%
X70585000Y-130715000D02*
X67845000Y-130715000D01*
X67845000Y-130715000D02*
X67845000Y-137255000D01*
X67845000Y-137255000D02*
X70585000Y-137255000D01*
X70585000Y-137255000D02*
X70585000Y-130715000D01*
X69215000Y-129945000D02*
X69215000Y-130715000D01*
X69215000Y-138025000D02*
X69215000Y-137255000D01*
%TO.C,J3*%
X109795000Y-94555000D02*
X112395000Y-94555000D01*
X109795000Y-94555000D02*
X109795000Y-145475000D01*
X109795000Y-145475000D02*
X114995000Y-145475000D01*
X114995000Y-97155000D02*
X114995000Y-145475000D01*
X112395000Y-97155000D02*
X114995000Y-97155000D01*
X112395000Y-94555000D02*
X112395000Y-97155000D01*
X114995000Y-94555000D02*
X114995000Y-95885000D01*
X113665000Y-94555000D02*
X114995000Y-94555000D01*
%TO.C,J4*%
X174752000Y-94555000D02*
X176082000Y-94555000D01*
X176082000Y-94555000D02*
X176082000Y-95885000D01*
X173482000Y-94555000D02*
X173482000Y-97155000D01*
X173482000Y-97155000D02*
X176082000Y-97155000D01*
X176082000Y-97155000D02*
X176082000Y-145475000D01*
X170882000Y-145475000D02*
X176082000Y-145475000D01*
X170882000Y-94555000D02*
X170882000Y-145475000D01*
X170882000Y-94555000D02*
X173482000Y-94555000D01*
%TO.C,C1*%
X145415000Y-150265000D02*
X145415000Y-151035000D01*
X145415000Y-158345000D02*
X145415000Y-157575000D01*
X144045000Y-151035000D02*
X144045000Y-157575000D01*
X146785000Y-151035000D02*
X144045000Y-151035000D01*
X146785000Y-157575000D02*
X146785000Y-151035000D01*
X144045000Y-157575000D02*
X146785000Y-157575000D01*
%TO.C,C2*%
X122455000Y-157575000D02*
X125195000Y-157575000D01*
X125195000Y-157575000D02*
X125195000Y-151035000D01*
X125195000Y-151035000D02*
X122455000Y-151035000D01*
X122455000Y-151035000D02*
X122455000Y-157575000D01*
X123825000Y-158345000D02*
X123825000Y-157575000D01*
X123825000Y-150265000D02*
X123825000Y-151035000D01*
%TO.C,C7*%
X177260000Y-158215000D02*
X177260000Y-155475000D01*
X177260000Y-155475000D02*
X170720000Y-155475000D01*
X170720000Y-155475000D02*
X170720000Y-158215000D01*
X170720000Y-158215000D02*
X177260000Y-158215000D01*
X178030000Y-156845000D02*
X177260000Y-156845000D01*
X169950000Y-156845000D02*
X170720000Y-156845000D01*
%TO.C,C8*%
X178030000Y-161925000D02*
X177260000Y-161925000D01*
X169950000Y-161925000D02*
X170720000Y-161925000D01*
X177260000Y-160555000D02*
X170720000Y-160555000D01*
X177260000Y-163295000D02*
X177260000Y-160555000D01*
X170720000Y-163295000D02*
X177260000Y-163295000D01*
X170720000Y-160555000D02*
X170720000Y-163295000D01*
%TO.C,J1*%
X68896411Y-90362337D02*
G75*
G03*
X68910000Y-93825000I4763589J-1712663D01*
G01*
X71947337Y-96838589D02*
G75*
G03*
X75410000Y-96825000I1712663J4763589D01*
G01*
X78423589Y-93787663D02*
G75*
G03*
X78410000Y-90325000I-4763589J1712663D01*
G01*
X75372663Y-87311411D02*
G75*
G03*
X71910000Y-87325000I-1712663J-4763589D01*
G01*
%TO.C,J2*%
X75372663Y-153351411D02*
G75*
G03*
X71910000Y-153365000I-1712663J-4763589D01*
G01*
X78423589Y-159827663D02*
G75*
G03*
X78410000Y-156365000I-4763589J1712663D01*
G01*
X71947337Y-162878589D02*
G75*
G03*
X75410000Y-162865000I1712663J4763589D01*
G01*
X68896411Y-156402337D02*
G75*
G03*
X68910000Y-159865000I4763589J-1712663D01*
G01*
%TO.C,J5*%
X161350000Y-160655000D02*
X158690000Y-160655000D01*
X161350000Y-160655000D02*
X161350000Y-155515000D01*
X161350000Y-155515000D02*
X158690000Y-155515000D01*
X158690000Y-160655000D02*
X158690000Y-155515000D01*
X158690000Y-163255000D02*
X158690000Y-161925000D01*
X160020000Y-163255000D02*
X158690000Y-163255000D01*
%TO.C,J6*%
X227011411Y-77662337D02*
G75*
G03*
X227025000Y-81125000I4763589J-1712663D01*
G01*
X230062337Y-84138589D02*
G75*
G03*
X233525000Y-84125000I1712663J4763589D01*
G01*
X236538589Y-81087663D02*
G75*
G03*
X236525000Y-77625000I-4763589J1712663D01*
G01*
X233487663Y-74611411D02*
G75*
G03*
X230025000Y-74625000I-1712663J-4763589D01*
G01*
%TO.C,J7*%
X233487663Y-143191411D02*
G75*
G03*
X230025000Y-143205000I-1712663J-4763589D01*
G01*
X236538589Y-149667663D02*
G75*
G03*
X236525000Y-146205000I-4763589J1712663D01*
G01*
X230062337Y-152718589D02*
G75*
G03*
X233525000Y-152705000I1712663J4763589D01*
G01*
X227011411Y-146242337D02*
G75*
G03*
X227025000Y-149705000I4763589J-1712663D01*
G01*
%TO.C,J8*%
X103970000Y-82610000D02*
X103970000Y-67250000D01*
X103970000Y-67250000D02*
X101310000Y-67250000D01*
X101310000Y-67250000D02*
X101310000Y-82610000D01*
X101310000Y-82610000D02*
X103970000Y-82610000D01*
X101310000Y-81660000D02*
X95310000Y-81660000D01*
X95310000Y-81660000D02*
X95310000Y-80900000D01*
X95310000Y-80900000D02*
X101310000Y-80900000D01*
X101310000Y-81600000D02*
X95310000Y-81600000D01*
X101310000Y-81480000D02*
X95310000Y-81480000D01*
X101310000Y-81360000D02*
X95310000Y-81360000D01*
X101310000Y-81240000D02*
X95310000Y-81240000D01*
X101310000Y-81120000D02*
X95310000Y-81120000D01*
X101310000Y-81000000D02*
X95310000Y-81000000D01*
X104300000Y-81660000D02*
X103970000Y-81660000D01*
X104300000Y-80900000D02*
X103970000Y-80900000D01*
X103970000Y-80010000D02*
X101310000Y-80010000D01*
X101310000Y-79120000D02*
X95310000Y-79120000D01*
X95310000Y-79120000D02*
X95310000Y-78360000D01*
X95310000Y-78360000D02*
X101310000Y-78360000D01*
X104367071Y-79120000D02*
X103970000Y-79120000D01*
X104367071Y-78360000D02*
X103970000Y-78360000D01*
X103970000Y-77470000D02*
X101310000Y-77470000D01*
X101310000Y-76580000D02*
X95310000Y-76580000D01*
X95310000Y-76580000D02*
X95310000Y-75820000D01*
X95310000Y-75820000D02*
X101310000Y-75820000D01*
X104367071Y-76580000D02*
X103970000Y-76580000D01*
X104367071Y-75820000D02*
X103970000Y-75820000D01*
X103970000Y-74930000D02*
X101310000Y-74930000D01*
X101310000Y-74040000D02*
X95310000Y-74040000D01*
X95310000Y-74040000D02*
X95310000Y-73280000D01*
X95310000Y-73280000D02*
X101310000Y-73280000D01*
X104367071Y-74040000D02*
X103970000Y-74040000D01*
X104367071Y-73280000D02*
X103970000Y-73280000D01*
X103970000Y-72390000D02*
X101310000Y-72390000D01*
X101310000Y-71500000D02*
X95310000Y-71500000D01*
X95310000Y-71500000D02*
X95310000Y-70740000D01*
X95310000Y-70740000D02*
X101310000Y-70740000D01*
X104367071Y-71500000D02*
X103970000Y-71500000D01*
X104367071Y-70740000D02*
X103970000Y-70740000D01*
X103970000Y-69850000D02*
X101310000Y-69850000D01*
X101310000Y-68960000D02*
X95310000Y-68960000D01*
X95310000Y-68960000D02*
X95310000Y-68200000D01*
X95310000Y-68200000D02*
X101310000Y-68200000D01*
X104367071Y-68960000D02*
X103970000Y-68960000D01*
X104367071Y-68200000D02*
X103970000Y-68200000D01*
X106680000Y-81280000D02*
X106680000Y-82550000D01*
X106680000Y-82550000D02*
X105410000Y-82550000D01*
%TO.C,R1*%
X99290000Y-106045000D02*
X98520000Y-106045000D01*
X91210000Y-106045000D02*
X91980000Y-106045000D01*
X98520000Y-104675000D02*
X91980000Y-104675000D01*
X98520000Y-107415000D02*
X98520000Y-104675000D01*
X91980000Y-107415000D02*
X98520000Y-107415000D01*
X91980000Y-104675000D02*
X91980000Y-107415000D01*
%TO.C,R2*%
X85725000Y-162155000D02*
X85725000Y-161385000D01*
X85725000Y-154075000D02*
X85725000Y-154845000D01*
X87095000Y-161385000D02*
X87095000Y-154845000D01*
X84355000Y-161385000D02*
X87095000Y-161385000D01*
X84355000Y-154845000D02*
X84355000Y-161385000D01*
X87095000Y-154845000D02*
X84355000Y-154845000D01*
%TO.C,R3*%
X85725000Y-88035000D02*
X85725000Y-88805000D01*
X85725000Y-96115000D02*
X85725000Y-95345000D01*
X84355000Y-88805000D02*
X84355000Y-95345000D01*
X87095000Y-88805000D02*
X84355000Y-88805000D01*
X87095000Y-95345000D02*
X87095000Y-88805000D01*
X84355000Y-95345000D02*
X87095000Y-95345000D01*
%TO.C,R4*%
X91980000Y-143410000D02*
X91980000Y-146150000D01*
X91980000Y-146150000D02*
X98520000Y-146150000D01*
X98520000Y-146150000D02*
X98520000Y-143410000D01*
X98520000Y-143410000D02*
X91980000Y-143410000D01*
X91210000Y-144780000D02*
X91980000Y-144780000D01*
X99290000Y-144780000D02*
X98520000Y-144780000D01*
%TO.C,R5*%
X67845000Y-119475000D02*
X70585000Y-119475000D01*
X70585000Y-119475000D02*
X70585000Y-112935000D01*
X70585000Y-112935000D02*
X67845000Y-112935000D01*
X67845000Y-112935000D02*
X67845000Y-119475000D01*
X69215000Y-120245000D02*
X69215000Y-119475000D01*
X69215000Y-112165000D02*
X69215000Y-112935000D01*
%TO.C,R7*%
X83915000Y-113765000D02*
X83915000Y-111025000D01*
X83915000Y-111025000D02*
X77375000Y-111025000D01*
X77375000Y-111025000D02*
X77375000Y-113765000D01*
X77375000Y-113765000D02*
X83915000Y-113765000D01*
X84685000Y-112395000D02*
X83915000Y-112395000D01*
X76605000Y-112395000D02*
X77375000Y-112395000D01*
%TO.C,R8*%
X76605000Y-137795000D02*
X77375000Y-137795000D01*
X84685000Y-137795000D02*
X83915000Y-137795000D01*
X77375000Y-139165000D02*
X83915000Y-139165000D01*
X77375000Y-136425000D02*
X77375000Y-139165000D01*
X83915000Y-136425000D02*
X77375000Y-136425000D01*
X83915000Y-139165000D02*
X83915000Y-136425000D01*
%TO.C,R9*%
X192175000Y-102235000D02*
X192945000Y-102235000D01*
X200255000Y-102235000D02*
X199485000Y-102235000D01*
X192945000Y-103605000D02*
X199485000Y-103605000D01*
X192945000Y-100865000D02*
X192945000Y-103605000D01*
X199485000Y-100865000D02*
X192945000Y-100865000D01*
X199485000Y-103605000D02*
X199485000Y-100865000D01*
%TO.C,R10*%
X91210000Y-112395000D02*
X91980000Y-112395000D01*
X99290000Y-112395000D02*
X98520000Y-112395000D01*
X91980000Y-113765000D02*
X98520000Y-113765000D01*
X91980000Y-111025000D02*
X91980000Y-113765000D01*
X98520000Y-111025000D02*
X91980000Y-111025000D01*
X98520000Y-113765000D02*
X98520000Y-111025000D01*
%TO.C,R11*%
X216630000Y-103605000D02*
X216630000Y-100865000D01*
X216630000Y-100865000D02*
X210090000Y-100865000D01*
X210090000Y-100865000D02*
X210090000Y-103605000D01*
X210090000Y-103605000D02*
X216630000Y-103605000D01*
X217400000Y-102235000D02*
X216630000Y-102235000D01*
X209320000Y-102235000D02*
X210090000Y-102235000D01*
%TO.C,R12*%
X91210000Y-137795000D02*
X91980000Y-137795000D01*
X99290000Y-137795000D02*
X98520000Y-137795000D01*
X91980000Y-139165000D02*
X98520000Y-139165000D01*
X91980000Y-136425000D02*
X91980000Y-139165000D01*
X98520000Y-136425000D02*
X91980000Y-136425000D01*
X98520000Y-139165000D02*
X98520000Y-136425000D01*
%TO.C,R13*%
X192175000Y-95250000D02*
X192945000Y-95250000D01*
X200255000Y-95250000D02*
X199485000Y-95250000D01*
X192945000Y-96620000D02*
X199485000Y-96620000D01*
X192945000Y-93880000D02*
X192945000Y-96620000D01*
X199485000Y-93880000D02*
X192945000Y-93880000D01*
X199485000Y-96620000D02*
X199485000Y-93880000D01*
%TO.C,R14*%
X192175000Y-132080000D02*
X192945000Y-132080000D01*
X200255000Y-132080000D02*
X199485000Y-132080000D01*
X192945000Y-133450000D02*
X199485000Y-133450000D01*
X192945000Y-130710000D02*
X192945000Y-133450000D01*
X199485000Y-130710000D02*
X192945000Y-130710000D01*
X199485000Y-133450000D02*
X199485000Y-130710000D01*
%TO.C,R15*%
X199485000Y-126465000D02*
X199485000Y-123725000D01*
X199485000Y-123725000D02*
X192945000Y-123725000D01*
X192945000Y-123725000D02*
X192945000Y-126465000D01*
X192945000Y-126465000D02*
X199485000Y-126465000D01*
X200255000Y-125095000D02*
X199485000Y-125095000D01*
X192175000Y-125095000D02*
X192945000Y-125095000D01*
%TO.C,R16*%
X205645000Y-86260000D02*
X205645000Y-89000000D01*
X205645000Y-89000000D02*
X212185000Y-89000000D01*
X212185000Y-89000000D02*
X212185000Y-86260000D01*
X212185000Y-86260000D02*
X205645000Y-86260000D01*
X204875000Y-87630000D02*
X205645000Y-87630000D01*
X212955000Y-87630000D02*
X212185000Y-87630000D01*
%TO.C,R17*%
X205645000Y-138330000D02*
X205645000Y-141070000D01*
X205645000Y-141070000D02*
X212185000Y-141070000D01*
X212185000Y-141070000D02*
X212185000Y-138330000D01*
X212185000Y-138330000D02*
X205645000Y-138330000D01*
X204875000Y-139700000D02*
X205645000Y-139700000D01*
X212955000Y-139700000D02*
X212185000Y-139700000D01*
%TO.C,R18*%
X209320000Y-125095000D02*
X210090000Y-125095000D01*
X217400000Y-125095000D02*
X216630000Y-125095000D01*
X210090000Y-126465000D02*
X216630000Y-126465000D01*
X210090000Y-123725000D02*
X210090000Y-126465000D01*
X216630000Y-123725000D02*
X210090000Y-123725000D01*
X216630000Y-126465000D02*
X216630000Y-123725000D01*
%TO.C,R19*%
X205645000Y-81180000D02*
X205645000Y-83920000D01*
X205645000Y-83920000D02*
X212185000Y-83920000D01*
X212185000Y-83920000D02*
X212185000Y-81180000D01*
X212185000Y-81180000D02*
X205645000Y-81180000D01*
X204875000Y-82550000D02*
X205645000Y-82550000D01*
X212955000Y-82550000D02*
X212185000Y-82550000D01*
%TO.C,R20*%
X212955000Y-144780000D02*
X212185000Y-144780000D01*
X204875000Y-144780000D02*
X205645000Y-144780000D01*
X212185000Y-143410000D02*
X205645000Y-143410000D01*
X212185000Y-146150000D02*
X212185000Y-143410000D01*
X205645000Y-146150000D02*
X212185000Y-146150000D01*
X205645000Y-143410000D02*
X205645000Y-146150000D01*
%TO.C,R21*%
X228060000Y-94080000D02*
X228060000Y-91340000D01*
X228060000Y-91340000D02*
X221520000Y-91340000D01*
X221520000Y-91340000D02*
X221520000Y-94080000D01*
X221520000Y-94080000D02*
X228060000Y-94080000D01*
X228830000Y-92710000D02*
X228060000Y-92710000D01*
X220750000Y-92710000D02*
X221520000Y-92710000D01*
%TO.C,RV1*%
X98035000Y-94685000D02*
X91195000Y-94685000D01*
X98035000Y-99625000D02*
X91195000Y-99625000D01*
X91195000Y-97805000D02*
X91195000Y-99625000D01*
X91195000Y-94685000D02*
X91195000Y-96505000D01*
X98035000Y-97805000D02*
X98035000Y-99625000D01*
X98035000Y-94685000D02*
X98035000Y-96505000D01*
%TO.C,RV2*%
X78810000Y-100720000D02*
X78810000Y-107560000D01*
X83750000Y-100720000D02*
X83750000Y-107560000D01*
X81930000Y-107560000D02*
X83750000Y-107560000D01*
X78810000Y-107560000D02*
X80630000Y-107560000D01*
X81930000Y-100720000D02*
X83750000Y-100720000D01*
X78810000Y-100720000D02*
X80630000Y-100720000D01*
%TO.C,RV3*%
X223590000Y-101355000D02*
X225410000Y-101355000D01*
X226710000Y-101355000D02*
X228530000Y-101355000D01*
X223590000Y-108195000D02*
X225410000Y-108195000D01*
X226710000Y-108195000D02*
X228530000Y-108195000D01*
X228530000Y-101355000D02*
X228530000Y-108195000D01*
X223590000Y-101355000D02*
X223590000Y-108195000D01*
%TO.C,RV4*%
X98035000Y-150565000D02*
X98035000Y-152385000D01*
X98035000Y-153685000D02*
X98035000Y-155505000D01*
X91195000Y-150565000D02*
X91195000Y-152385000D01*
X91195000Y-153685000D02*
X91195000Y-155505000D01*
X98035000Y-155505000D02*
X91195000Y-155505000D01*
X98035000Y-150565000D02*
X91195000Y-150565000D01*
%TO.C,RV5*%
X83750000Y-149470000D02*
X83750000Y-142630000D01*
X78810000Y-149470000D02*
X78810000Y-142630000D01*
X80630000Y-142630000D02*
X78810000Y-142630000D01*
X83750000Y-142630000D02*
X81930000Y-142630000D01*
X80630000Y-149470000D02*
X78810000Y-149470000D01*
X83750000Y-149470000D02*
X81930000Y-149470000D01*
%TO.C,RV6*%
X208035000Y-97720000D02*
X208035000Y-95900000D01*
X208035000Y-94600000D02*
X208035000Y-92780000D01*
X214875000Y-97720000D02*
X214875000Y-95900000D01*
X214875000Y-94600000D02*
X214875000Y-92780000D01*
X208035000Y-92780000D02*
X214875000Y-92780000D01*
X208035000Y-97720000D02*
X214875000Y-97720000D01*
%TO.C,RV7*%
X208035000Y-134550000D02*
X208035000Y-132730000D01*
X208035000Y-131430000D02*
X208035000Y-129610000D01*
X214875000Y-134550000D02*
X214875000Y-132730000D01*
X214875000Y-131430000D02*
X214875000Y-129610000D01*
X208035000Y-129610000D02*
X214875000Y-129610000D01*
X208035000Y-134550000D02*
X214875000Y-134550000D01*
%TO.C,RV8*%
X228530000Y-125975000D02*
X228530000Y-119135000D01*
X223590000Y-125975000D02*
X223590000Y-119135000D01*
X225410000Y-119135000D02*
X223590000Y-119135000D01*
X228530000Y-119135000D02*
X226710000Y-119135000D01*
X225410000Y-125975000D02*
X223590000Y-125975000D01*
X228530000Y-125975000D02*
X226710000Y-125975000D01*
%TO.C,RV9*%
X236785000Y-108195000D02*
X236785000Y-101355000D01*
X231845000Y-108195000D02*
X231845000Y-101355000D01*
X233665000Y-101355000D02*
X231845000Y-101355000D01*
X236785000Y-101355000D02*
X234965000Y-101355000D01*
X233665000Y-108195000D02*
X231845000Y-108195000D01*
X236785000Y-108195000D02*
X234965000Y-108195000D01*
%TO.C,RV10*%
X231845000Y-119135000D02*
X233665000Y-119135000D01*
X234965000Y-119135000D02*
X236785000Y-119135000D01*
X231845000Y-125975000D02*
X233665000Y-125975000D01*
X234965000Y-125975000D02*
X236785000Y-125975000D01*
X236785000Y-119135000D02*
X236785000Y-125975000D01*
X231845000Y-119135000D02*
X231845000Y-125975000D01*
%TO.C,U1*%
X215385000Y-118915000D02*
X215385000Y-108415000D01*
X197365000Y-118915000D02*
X215385000Y-118915000D01*
X197365000Y-108415000D02*
X197365000Y-118915000D01*
X215385000Y-108415000D02*
X197365000Y-108415000D01*
X215325000Y-115915000D02*
X215325000Y-114665000D01*
X197425000Y-115915000D02*
X215325000Y-115915000D01*
X197425000Y-111415000D02*
X197425000Y-115915000D01*
X215325000Y-111415000D02*
X197425000Y-111415000D01*
X215325000Y-112665000D02*
X215325000Y-111415000D01*
X215325000Y-114665000D02*
G75*
G02*
X215325000Y-112665000I0J1000000D01*
G01*
%TO.C,U2*%
X139740000Y-152915000D02*
X129500000Y-152915000D01*
X139740000Y-168805000D02*
X129500000Y-168805000D01*
X139740000Y-168805000D02*
X139740000Y-152915000D01*
X129500000Y-168805000D02*
X129500000Y-152915000D01*
X137160000Y-152915000D02*
X137160000Y-150375000D01*
X134620000Y-152915000D02*
X134620000Y-150375000D01*
X132080000Y-152915000D02*
X132080000Y-150375000D01*
%TO.C,U3*%
X92135000Y-124095000D02*
X92135000Y-122845000D01*
X92135000Y-122845000D02*
X74235000Y-122845000D01*
X74235000Y-122845000D02*
X74235000Y-127345000D01*
X74235000Y-127345000D02*
X92135000Y-127345000D01*
X92135000Y-127345000D02*
X92135000Y-126095000D01*
X92195000Y-119845000D02*
X74175000Y-119845000D01*
X74175000Y-119845000D02*
X74175000Y-130345000D01*
X74175000Y-130345000D02*
X92195000Y-130345000D01*
X92195000Y-130345000D02*
X92195000Y-119845000D01*
X92135000Y-126095000D02*
G75*
G02*
X92135000Y-124095000I0J1000000D01*
G01*
%TO.C,R22*%
D10*
X224782142Y-138077380D02*
X224448809Y-137601190D01*
X224210714Y-138077380D02*
X224210714Y-137077380D01*
X224591666Y-137077380D01*
X224686904Y-137125000D01*
X224734523Y-137172619D01*
X224782142Y-137267857D01*
X224782142Y-137410714D01*
X224734523Y-137505952D01*
X224686904Y-137553571D01*
X224591666Y-137601190D01*
X224210714Y-137601190D01*
X225163095Y-137172619D02*
X225210714Y-137125000D01*
X225305952Y-137077380D01*
X225544047Y-137077380D01*
X225639285Y-137125000D01*
X225686904Y-137172619D01*
X225734523Y-137267857D01*
X225734523Y-137363095D01*
X225686904Y-137505952D01*
X225115476Y-138077380D01*
X225734523Y-138077380D01*
X226115476Y-137172619D02*
X226163095Y-137125000D01*
X226258333Y-137077380D01*
X226496428Y-137077380D01*
X226591666Y-137125000D01*
X226639285Y-137172619D01*
X226686904Y-137267857D01*
X226686904Y-137363095D01*
X226639285Y-137505952D01*
X226067857Y-138077380D01*
X226686904Y-138077380D01*
%TO.C,R6*%
X72037380Y-134151666D02*
X71561190Y-134485000D01*
X72037380Y-134723095D02*
X71037380Y-134723095D01*
X71037380Y-134342142D01*
X71085000Y-134246904D01*
X71132619Y-134199285D01*
X71227857Y-134151666D01*
X71370714Y-134151666D01*
X71465952Y-134199285D01*
X71513571Y-134246904D01*
X71561190Y-134342142D01*
X71561190Y-134723095D01*
X71037380Y-133294523D02*
X71037380Y-133485000D01*
X71085000Y-133580238D01*
X71132619Y-133627857D01*
X71275476Y-133723095D01*
X71465952Y-133770714D01*
X71846904Y-133770714D01*
X71942142Y-133723095D01*
X71989761Y-133675476D01*
X72037380Y-133580238D01*
X72037380Y-133389761D01*
X71989761Y-133294523D01*
X71942142Y-133246904D01*
X71846904Y-133199285D01*
X71608809Y-133199285D01*
X71513571Y-133246904D01*
X71465952Y-133294523D01*
X71418333Y-133389761D01*
X71418333Y-133580238D01*
X71465952Y-133675476D01*
X71513571Y-133723095D01*
X71608809Y-133770714D01*
%TO.C,J3*%
X112061666Y-92567380D02*
X112061666Y-93281666D01*
X112014047Y-93424523D01*
X111918809Y-93519761D01*
X111775952Y-93567380D01*
X111680714Y-93567380D01*
X112442619Y-92567380D02*
X113061666Y-92567380D01*
X112728333Y-92948333D01*
X112871190Y-92948333D01*
X112966428Y-92995952D01*
X113014047Y-93043571D01*
X113061666Y-93138809D01*
X113061666Y-93376904D01*
X113014047Y-93472142D01*
X112966428Y-93519761D01*
X112871190Y-93567380D01*
X112585476Y-93567380D01*
X112490238Y-93519761D01*
X112442619Y-93472142D01*
%TO.C,J4*%
X173148666Y-92567380D02*
X173148666Y-93281666D01*
X173101047Y-93424523D01*
X173005809Y-93519761D01*
X172862952Y-93567380D01*
X172767714Y-93567380D01*
X174053428Y-92900714D02*
X174053428Y-93567380D01*
X173815333Y-92519761D02*
X173577238Y-93234047D01*
X174196285Y-93234047D01*
%TO.C,C1*%
X143402142Y-154471666D02*
X143449761Y-154519285D01*
X143497380Y-154662142D01*
X143497380Y-154757380D01*
X143449761Y-154900238D01*
X143354523Y-154995476D01*
X143259285Y-155043095D01*
X143068809Y-155090714D01*
X142925952Y-155090714D01*
X142735476Y-155043095D01*
X142640238Y-154995476D01*
X142545000Y-154900238D01*
X142497380Y-154757380D01*
X142497380Y-154662142D01*
X142545000Y-154519285D01*
X142592619Y-154471666D01*
X143497380Y-153519285D02*
X143497380Y-154090714D01*
X143497380Y-153805000D02*
X142497380Y-153805000D01*
X142640238Y-153900238D01*
X142735476Y-153995476D01*
X142783095Y-154090714D01*
%TO.C,C2*%
X121812142Y-154471666D02*
X121859761Y-154519285D01*
X121907380Y-154662142D01*
X121907380Y-154757380D01*
X121859761Y-154900238D01*
X121764523Y-154995476D01*
X121669285Y-155043095D01*
X121478809Y-155090714D01*
X121335952Y-155090714D01*
X121145476Y-155043095D01*
X121050238Y-154995476D01*
X120955000Y-154900238D01*
X120907380Y-154757380D01*
X120907380Y-154662142D01*
X120955000Y-154519285D01*
X121002619Y-154471666D01*
X121002619Y-154090714D02*
X120955000Y-154043095D01*
X120907380Y-153947857D01*
X120907380Y-153709761D01*
X120955000Y-153614523D01*
X121002619Y-153566904D01*
X121097857Y-153519285D01*
X121193095Y-153519285D01*
X121335952Y-153566904D01*
X121907380Y-154138333D01*
X121907380Y-153519285D01*
%TO.C,C7*%
X173823333Y-159572142D02*
X173775714Y-159619761D01*
X173632857Y-159667380D01*
X173537619Y-159667380D01*
X173394761Y-159619761D01*
X173299523Y-159524523D01*
X173251904Y-159429285D01*
X173204285Y-159238809D01*
X173204285Y-159095952D01*
X173251904Y-158905476D01*
X173299523Y-158810238D01*
X173394761Y-158715000D01*
X173537619Y-158667380D01*
X173632857Y-158667380D01*
X173775714Y-158715000D01*
X173823333Y-158762619D01*
X174156666Y-158667380D02*
X174823333Y-158667380D01*
X174394761Y-159667380D01*
%TO.C,C8*%
X173823333Y-159912142D02*
X173775714Y-159959761D01*
X173632857Y-160007380D01*
X173537619Y-160007380D01*
X173394761Y-159959761D01*
X173299523Y-159864523D01*
X173251904Y-159769285D01*
X173204285Y-159578809D01*
X173204285Y-159435952D01*
X173251904Y-159245476D01*
X173299523Y-159150238D01*
X173394761Y-159055000D01*
X173537619Y-159007380D01*
X173632857Y-159007380D01*
X173775714Y-159055000D01*
X173823333Y-159102619D01*
X174394761Y-159435952D02*
X174299523Y-159388333D01*
X174251904Y-159340714D01*
X174204285Y-159245476D01*
X174204285Y-159197857D01*
X174251904Y-159102619D01*
X174299523Y-159055000D01*
X174394761Y-159007380D01*
X174585238Y-159007380D01*
X174680476Y-159055000D01*
X174728095Y-159102619D01*
X174775714Y-159197857D01*
X174775714Y-159245476D01*
X174728095Y-159340714D01*
X174680476Y-159388333D01*
X174585238Y-159435952D01*
X174394761Y-159435952D01*
X174299523Y-159483571D01*
X174251904Y-159531190D01*
X174204285Y-159626428D01*
X174204285Y-159816904D01*
X174251904Y-159912142D01*
X174299523Y-159959761D01*
X174394761Y-160007380D01*
X174585238Y-160007380D01*
X174680476Y-159959761D01*
X174728095Y-159912142D01*
X174775714Y-159816904D01*
X174775714Y-159626428D01*
X174728095Y-159531190D01*
X174680476Y-159483571D01*
X174585238Y-159435952D01*
%TO.C,J1*%
X73076666Y-85277380D02*
X73076666Y-85991666D01*
X73029047Y-86134523D01*
X72933809Y-86229761D01*
X72790952Y-86277380D01*
X72695714Y-86277380D01*
X74076666Y-86277380D02*
X73505238Y-86277380D01*
X73790952Y-86277380D02*
X73790952Y-85277380D01*
X73695714Y-85420238D01*
X73600476Y-85515476D01*
X73505238Y-85563095D01*
%TO.C,J2*%
X73076666Y-151317380D02*
X73076666Y-152031666D01*
X73029047Y-152174523D01*
X72933809Y-152269761D01*
X72790952Y-152317380D01*
X72695714Y-152317380D01*
X73505238Y-151412619D02*
X73552857Y-151365000D01*
X73648095Y-151317380D01*
X73886190Y-151317380D01*
X73981428Y-151365000D01*
X74029047Y-151412619D01*
X74076666Y-151507857D01*
X74076666Y-151603095D01*
X74029047Y-151745952D01*
X73457619Y-152317380D01*
X74076666Y-152317380D01*
%TO.C,J5*%
X159686666Y-164147380D02*
X159686666Y-164861666D01*
X159639047Y-165004523D01*
X159543809Y-165099761D01*
X159400952Y-165147380D01*
X159305714Y-165147380D01*
X160639047Y-164147380D02*
X160162857Y-164147380D01*
X160115238Y-164623571D01*
X160162857Y-164575952D01*
X160258095Y-164528333D01*
X160496190Y-164528333D01*
X160591428Y-164575952D01*
X160639047Y-164623571D01*
X160686666Y-164718809D01*
X160686666Y-164956904D01*
X160639047Y-165052142D01*
X160591428Y-165099761D01*
X160496190Y-165147380D01*
X160258095Y-165147380D01*
X160162857Y-165099761D01*
X160115238Y-165052142D01*
%TO.C,J6*%
X231191666Y-72577380D02*
X231191666Y-73291666D01*
X231144047Y-73434523D01*
X231048809Y-73529761D01*
X230905952Y-73577380D01*
X230810714Y-73577380D01*
X232096428Y-72577380D02*
X231905952Y-72577380D01*
X231810714Y-72625000D01*
X231763095Y-72672619D01*
X231667857Y-72815476D01*
X231620238Y-73005952D01*
X231620238Y-73386904D01*
X231667857Y-73482142D01*
X231715476Y-73529761D01*
X231810714Y-73577380D01*
X232001190Y-73577380D01*
X232096428Y-73529761D01*
X232144047Y-73482142D01*
X232191666Y-73386904D01*
X232191666Y-73148809D01*
X232144047Y-73053571D01*
X232096428Y-73005952D01*
X232001190Y-72958333D01*
X231810714Y-72958333D01*
X231715476Y-73005952D01*
X231667857Y-73053571D01*
X231620238Y-73148809D01*
%TO.C,J7*%
X231191666Y-141157380D02*
X231191666Y-141871666D01*
X231144047Y-142014523D01*
X231048809Y-142109761D01*
X230905952Y-142157380D01*
X230810714Y-142157380D01*
X231572619Y-141157380D02*
X232239285Y-141157380D01*
X231810714Y-142157380D01*
%TO.C,J8*%
X100691666Y-83002380D02*
X100691666Y-83716666D01*
X100644047Y-83859523D01*
X100548809Y-83954761D01*
X100405952Y-84002380D01*
X100310714Y-84002380D01*
X101310714Y-83430952D02*
X101215476Y-83383333D01*
X101167857Y-83335714D01*
X101120238Y-83240476D01*
X101120238Y-83192857D01*
X101167857Y-83097619D01*
X101215476Y-83050000D01*
X101310714Y-83002380D01*
X101501190Y-83002380D01*
X101596428Y-83050000D01*
X101644047Y-83097619D01*
X101691666Y-83192857D01*
X101691666Y-83240476D01*
X101644047Y-83335714D01*
X101596428Y-83383333D01*
X101501190Y-83430952D01*
X101310714Y-83430952D01*
X101215476Y-83478571D01*
X101167857Y-83526190D01*
X101120238Y-83621428D01*
X101120238Y-83811904D01*
X101167857Y-83907142D01*
X101215476Y-83954761D01*
X101310714Y-84002380D01*
X101501190Y-84002380D01*
X101596428Y-83954761D01*
X101644047Y-83907142D01*
X101691666Y-83811904D01*
X101691666Y-83621428D01*
X101644047Y-83526190D01*
X101596428Y-83478571D01*
X101501190Y-83430952D01*
%TO.C,R1*%
X95083333Y-104127380D02*
X94750000Y-103651190D01*
X94511904Y-104127380D02*
X94511904Y-103127380D01*
X94892857Y-103127380D01*
X94988095Y-103175000D01*
X95035714Y-103222619D01*
X95083333Y-103317857D01*
X95083333Y-103460714D01*
X95035714Y-103555952D01*
X94988095Y-103603571D01*
X94892857Y-103651190D01*
X94511904Y-103651190D01*
X96035714Y-104127380D02*
X95464285Y-104127380D01*
X95750000Y-104127380D02*
X95750000Y-103127380D01*
X95654761Y-103270238D01*
X95559523Y-103365476D01*
X95464285Y-103413095D01*
%TO.C,R2*%
X88547380Y-158281666D02*
X88071190Y-158615000D01*
X88547380Y-158853095D02*
X87547380Y-158853095D01*
X87547380Y-158472142D01*
X87595000Y-158376904D01*
X87642619Y-158329285D01*
X87737857Y-158281666D01*
X87880714Y-158281666D01*
X87975952Y-158329285D01*
X88023571Y-158376904D01*
X88071190Y-158472142D01*
X88071190Y-158853095D01*
X87642619Y-157900714D02*
X87595000Y-157853095D01*
X87547380Y-157757857D01*
X87547380Y-157519761D01*
X87595000Y-157424523D01*
X87642619Y-157376904D01*
X87737857Y-157329285D01*
X87833095Y-157329285D01*
X87975952Y-157376904D01*
X88547380Y-157948333D01*
X88547380Y-157329285D01*
%TO.C,R3*%
X83807380Y-92241666D02*
X83331190Y-92575000D01*
X83807380Y-92813095D02*
X82807380Y-92813095D01*
X82807380Y-92432142D01*
X82855000Y-92336904D01*
X82902619Y-92289285D01*
X82997857Y-92241666D01*
X83140714Y-92241666D01*
X83235952Y-92289285D01*
X83283571Y-92336904D01*
X83331190Y-92432142D01*
X83331190Y-92813095D01*
X82807380Y-91908333D02*
X82807380Y-91289285D01*
X83188333Y-91622619D01*
X83188333Y-91479761D01*
X83235952Y-91384523D01*
X83283571Y-91336904D01*
X83378809Y-91289285D01*
X83616904Y-91289285D01*
X83712142Y-91336904D01*
X83759761Y-91384523D01*
X83807380Y-91479761D01*
X83807380Y-91765476D01*
X83759761Y-91860714D01*
X83712142Y-91908333D01*
%TO.C,R4*%
X95083333Y-142862380D02*
X94750000Y-142386190D01*
X94511904Y-142862380D02*
X94511904Y-141862380D01*
X94892857Y-141862380D01*
X94988095Y-141910000D01*
X95035714Y-141957619D01*
X95083333Y-142052857D01*
X95083333Y-142195714D01*
X95035714Y-142290952D01*
X94988095Y-142338571D01*
X94892857Y-142386190D01*
X94511904Y-142386190D01*
X95940476Y-142195714D02*
X95940476Y-142862380D01*
X95702380Y-141814761D02*
X95464285Y-142529047D01*
X96083333Y-142529047D01*
%TO.C,R5*%
X67297380Y-116371666D02*
X66821190Y-116705000D01*
X67297380Y-116943095D02*
X66297380Y-116943095D01*
X66297380Y-116562142D01*
X66345000Y-116466904D01*
X66392619Y-116419285D01*
X66487857Y-116371666D01*
X66630714Y-116371666D01*
X66725952Y-116419285D01*
X66773571Y-116466904D01*
X66821190Y-116562142D01*
X66821190Y-116943095D01*
X66297380Y-115466904D02*
X66297380Y-115943095D01*
X66773571Y-115990714D01*
X66725952Y-115943095D01*
X66678333Y-115847857D01*
X66678333Y-115609761D01*
X66725952Y-115514523D01*
X66773571Y-115466904D01*
X66868809Y-115419285D01*
X67106904Y-115419285D01*
X67202142Y-115466904D01*
X67249761Y-115514523D01*
X67297380Y-115609761D01*
X67297380Y-115847857D01*
X67249761Y-115943095D01*
X67202142Y-115990714D01*
%TO.C,R7*%
X80478333Y-115217380D02*
X80145000Y-114741190D01*
X79906904Y-115217380D02*
X79906904Y-114217380D01*
X80287857Y-114217380D01*
X80383095Y-114265000D01*
X80430714Y-114312619D01*
X80478333Y-114407857D01*
X80478333Y-114550714D01*
X80430714Y-114645952D01*
X80383095Y-114693571D01*
X80287857Y-114741190D01*
X79906904Y-114741190D01*
X80811666Y-114217380D02*
X81478333Y-114217380D01*
X81049761Y-115217380D01*
%TO.C,R8*%
X80478333Y-140617380D02*
X80145000Y-140141190D01*
X79906904Y-140617380D02*
X79906904Y-139617380D01*
X80287857Y-139617380D01*
X80383095Y-139665000D01*
X80430714Y-139712619D01*
X80478333Y-139807857D01*
X80478333Y-139950714D01*
X80430714Y-140045952D01*
X80383095Y-140093571D01*
X80287857Y-140141190D01*
X79906904Y-140141190D01*
X81049761Y-140045952D02*
X80954523Y-139998333D01*
X80906904Y-139950714D01*
X80859285Y-139855476D01*
X80859285Y-139807857D01*
X80906904Y-139712619D01*
X80954523Y-139665000D01*
X81049761Y-139617380D01*
X81240238Y-139617380D01*
X81335476Y-139665000D01*
X81383095Y-139712619D01*
X81430714Y-139807857D01*
X81430714Y-139855476D01*
X81383095Y-139950714D01*
X81335476Y-139998333D01*
X81240238Y-140045952D01*
X81049761Y-140045952D01*
X80954523Y-140093571D01*
X80906904Y-140141190D01*
X80859285Y-140236428D01*
X80859285Y-140426904D01*
X80906904Y-140522142D01*
X80954523Y-140569761D01*
X81049761Y-140617380D01*
X81240238Y-140617380D01*
X81335476Y-140569761D01*
X81383095Y-140522142D01*
X81430714Y-140426904D01*
X81430714Y-140236428D01*
X81383095Y-140141190D01*
X81335476Y-140093571D01*
X81240238Y-140045952D01*
%TO.C,R9*%
X196048333Y-105057380D02*
X195715000Y-104581190D01*
X195476904Y-105057380D02*
X195476904Y-104057380D01*
X195857857Y-104057380D01*
X195953095Y-104105000D01*
X196000714Y-104152619D01*
X196048333Y-104247857D01*
X196048333Y-104390714D01*
X196000714Y-104485952D01*
X195953095Y-104533571D01*
X195857857Y-104581190D01*
X195476904Y-104581190D01*
X196524523Y-105057380D02*
X196715000Y-105057380D01*
X196810238Y-105009761D01*
X196857857Y-104962142D01*
X196953095Y-104819285D01*
X197000714Y-104628809D01*
X197000714Y-104247857D01*
X196953095Y-104152619D01*
X196905476Y-104105000D01*
X196810238Y-104057380D01*
X196619761Y-104057380D01*
X196524523Y-104105000D01*
X196476904Y-104152619D01*
X196429285Y-104247857D01*
X196429285Y-104485952D01*
X196476904Y-104581190D01*
X196524523Y-104628809D01*
X196619761Y-104676428D01*
X196810238Y-104676428D01*
X196905476Y-104628809D01*
X196953095Y-104581190D01*
X197000714Y-104485952D01*
%TO.C,R10*%
X94607142Y-115217380D02*
X94273809Y-114741190D01*
X94035714Y-115217380D02*
X94035714Y-114217380D01*
X94416666Y-114217380D01*
X94511904Y-114265000D01*
X94559523Y-114312619D01*
X94607142Y-114407857D01*
X94607142Y-114550714D01*
X94559523Y-114645952D01*
X94511904Y-114693571D01*
X94416666Y-114741190D01*
X94035714Y-114741190D01*
X95559523Y-115217380D02*
X94988095Y-115217380D01*
X95273809Y-115217380D02*
X95273809Y-114217380D01*
X95178571Y-114360238D01*
X95083333Y-114455476D01*
X94988095Y-114503095D01*
X96178571Y-114217380D02*
X96273809Y-114217380D01*
X96369047Y-114265000D01*
X96416666Y-114312619D01*
X96464285Y-114407857D01*
X96511904Y-114598333D01*
X96511904Y-114836428D01*
X96464285Y-115026904D01*
X96416666Y-115122142D01*
X96369047Y-115169761D01*
X96273809Y-115217380D01*
X96178571Y-115217380D01*
X96083333Y-115169761D01*
X96035714Y-115122142D01*
X95988095Y-115026904D01*
X95940476Y-114836428D01*
X95940476Y-114598333D01*
X95988095Y-114407857D01*
X96035714Y-114312619D01*
X96083333Y-114265000D01*
X96178571Y-114217380D01*
%TO.C,R11*%
X212717142Y-105057380D02*
X212383809Y-104581190D01*
X212145714Y-105057380D02*
X212145714Y-104057380D01*
X212526666Y-104057380D01*
X212621904Y-104105000D01*
X212669523Y-104152619D01*
X212717142Y-104247857D01*
X212717142Y-104390714D01*
X212669523Y-104485952D01*
X212621904Y-104533571D01*
X212526666Y-104581190D01*
X212145714Y-104581190D01*
X213669523Y-105057380D02*
X213098095Y-105057380D01*
X213383809Y-105057380D02*
X213383809Y-104057380D01*
X213288571Y-104200238D01*
X213193333Y-104295476D01*
X213098095Y-104343095D01*
X214621904Y-105057380D02*
X214050476Y-105057380D01*
X214336190Y-105057380D02*
X214336190Y-104057380D01*
X214240952Y-104200238D01*
X214145714Y-104295476D01*
X214050476Y-104343095D01*
%TO.C,R12*%
X94607142Y-140617380D02*
X94273809Y-140141190D01*
X94035714Y-140617380D02*
X94035714Y-139617380D01*
X94416666Y-139617380D01*
X94511904Y-139665000D01*
X94559523Y-139712619D01*
X94607142Y-139807857D01*
X94607142Y-139950714D01*
X94559523Y-140045952D01*
X94511904Y-140093571D01*
X94416666Y-140141190D01*
X94035714Y-140141190D01*
X95559523Y-140617380D02*
X94988095Y-140617380D01*
X95273809Y-140617380D02*
X95273809Y-139617380D01*
X95178571Y-139760238D01*
X95083333Y-139855476D01*
X94988095Y-139903095D01*
X95940476Y-139712619D02*
X95988095Y-139665000D01*
X96083333Y-139617380D01*
X96321428Y-139617380D01*
X96416666Y-139665000D01*
X96464285Y-139712619D01*
X96511904Y-139807857D01*
X96511904Y-139903095D01*
X96464285Y-140045952D01*
X95892857Y-140617380D01*
X96511904Y-140617380D01*
%TO.C,R13*%
X195572142Y-98072380D02*
X195238809Y-97596190D01*
X195000714Y-98072380D02*
X195000714Y-97072380D01*
X195381666Y-97072380D01*
X195476904Y-97120000D01*
X195524523Y-97167619D01*
X195572142Y-97262857D01*
X195572142Y-97405714D01*
X195524523Y-97500952D01*
X195476904Y-97548571D01*
X195381666Y-97596190D01*
X195000714Y-97596190D01*
X196524523Y-98072380D02*
X195953095Y-98072380D01*
X196238809Y-98072380D02*
X196238809Y-97072380D01*
X196143571Y-97215238D01*
X196048333Y-97310476D01*
X195953095Y-97358095D01*
X196857857Y-97072380D02*
X197476904Y-97072380D01*
X197143571Y-97453333D01*
X197286428Y-97453333D01*
X197381666Y-97500952D01*
X197429285Y-97548571D01*
X197476904Y-97643809D01*
X197476904Y-97881904D01*
X197429285Y-97977142D01*
X197381666Y-98024761D01*
X197286428Y-98072380D01*
X197000714Y-98072380D01*
X196905476Y-98024761D01*
X196857857Y-97977142D01*
%TO.C,R14*%
X195572142Y-134902380D02*
X195238809Y-134426190D01*
X195000714Y-134902380D02*
X195000714Y-133902380D01*
X195381666Y-133902380D01*
X195476904Y-133950000D01*
X195524523Y-133997619D01*
X195572142Y-134092857D01*
X195572142Y-134235714D01*
X195524523Y-134330952D01*
X195476904Y-134378571D01*
X195381666Y-134426190D01*
X195000714Y-134426190D01*
X196524523Y-134902380D02*
X195953095Y-134902380D01*
X196238809Y-134902380D02*
X196238809Y-133902380D01*
X196143571Y-134045238D01*
X196048333Y-134140476D01*
X195953095Y-134188095D01*
X197381666Y-134235714D02*
X197381666Y-134902380D01*
X197143571Y-133854761D02*
X196905476Y-134569047D01*
X197524523Y-134569047D01*
%TO.C,R15*%
X195572142Y-127917380D02*
X195238809Y-127441190D01*
X195000714Y-127917380D02*
X195000714Y-126917380D01*
X195381666Y-126917380D01*
X195476904Y-126965000D01*
X195524523Y-127012619D01*
X195572142Y-127107857D01*
X195572142Y-127250714D01*
X195524523Y-127345952D01*
X195476904Y-127393571D01*
X195381666Y-127441190D01*
X195000714Y-127441190D01*
X196524523Y-127917380D02*
X195953095Y-127917380D01*
X196238809Y-127917380D02*
X196238809Y-126917380D01*
X196143571Y-127060238D01*
X196048333Y-127155476D01*
X195953095Y-127203095D01*
X197429285Y-126917380D02*
X196953095Y-126917380D01*
X196905476Y-127393571D01*
X196953095Y-127345952D01*
X197048333Y-127298333D01*
X197286428Y-127298333D01*
X197381666Y-127345952D01*
X197429285Y-127393571D01*
X197476904Y-127488809D01*
X197476904Y-127726904D01*
X197429285Y-127822142D01*
X197381666Y-127869761D01*
X197286428Y-127917380D01*
X197048333Y-127917380D01*
X196953095Y-127869761D01*
X196905476Y-127822142D01*
%TO.C,R16*%
X208272142Y-85712380D02*
X207938809Y-85236190D01*
X207700714Y-85712380D02*
X207700714Y-84712380D01*
X208081666Y-84712380D01*
X208176904Y-84760000D01*
X208224523Y-84807619D01*
X208272142Y-84902857D01*
X208272142Y-85045714D01*
X208224523Y-85140952D01*
X208176904Y-85188571D01*
X208081666Y-85236190D01*
X207700714Y-85236190D01*
X209224523Y-85712380D02*
X208653095Y-85712380D01*
X208938809Y-85712380D02*
X208938809Y-84712380D01*
X208843571Y-84855238D01*
X208748333Y-84950476D01*
X208653095Y-84998095D01*
X210081666Y-84712380D02*
X209891190Y-84712380D01*
X209795952Y-84760000D01*
X209748333Y-84807619D01*
X209653095Y-84950476D01*
X209605476Y-85140952D01*
X209605476Y-85521904D01*
X209653095Y-85617142D01*
X209700714Y-85664761D01*
X209795952Y-85712380D01*
X209986428Y-85712380D01*
X210081666Y-85664761D01*
X210129285Y-85617142D01*
X210176904Y-85521904D01*
X210176904Y-85283809D01*
X210129285Y-85188571D01*
X210081666Y-85140952D01*
X209986428Y-85093333D01*
X209795952Y-85093333D01*
X209700714Y-85140952D01*
X209653095Y-85188571D01*
X209605476Y-85283809D01*
%TO.C,R17*%
X208272142Y-137782380D02*
X207938809Y-137306190D01*
X207700714Y-137782380D02*
X207700714Y-136782380D01*
X208081666Y-136782380D01*
X208176904Y-136830000D01*
X208224523Y-136877619D01*
X208272142Y-136972857D01*
X208272142Y-137115714D01*
X208224523Y-137210952D01*
X208176904Y-137258571D01*
X208081666Y-137306190D01*
X207700714Y-137306190D01*
X209224523Y-137782380D02*
X208653095Y-137782380D01*
X208938809Y-137782380D02*
X208938809Y-136782380D01*
X208843571Y-136925238D01*
X208748333Y-137020476D01*
X208653095Y-137068095D01*
X209557857Y-136782380D02*
X210224523Y-136782380D01*
X209795952Y-137782380D01*
%TO.C,R18*%
X212717142Y-127917380D02*
X212383809Y-127441190D01*
X212145714Y-127917380D02*
X212145714Y-126917380D01*
X212526666Y-126917380D01*
X212621904Y-126965000D01*
X212669523Y-127012619D01*
X212717142Y-127107857D01*
X212717142Y-127250714D01*
X212669523Y-127345952D01*
X212621904Y-127393571D01*
X212526666Y-127441190D01*
X212145714Y-127441190D01*
X213669523Y-127917380D02*
X213098095Y-127917380D01*
X213383809Y-127917380D02*
X213383809Y-126917380D01*
X213288571Y-127060238D01*
X213193333Y-127155476D01*
X213098095Y-127203095D01*
X214240952Y-127345952D02*
X214145714Y-127298333D01*
X214098095Y-127250714D01*
X214050476Y-127155476D01*
X214050476Y-127107857D01*
X214098095Y-127012619D01*
X214145714Y-126965000D01*
X214240952Y-126917380D01*
X214431428Y-126917380D01*
X214526666Y-126965000D01*
X214574285Y-127012619D01*
X214621904Y-127107857D01*
X214621904Y-127155476D01*
X214574285Y-127250714D01*
X214526666Y-127298333D01*
X214431428Y-127345952D01*
X214240952Y-127345952D01*
X214145714Y-127393571D01*
X214098095Y-127441190D01*
X214050476Y-127536428D01*
X214050476Y-127726904D01*
X214098095Y-127822142D01*
X214145714Y-127869761D01*
X214240952Y-127917380D01*
X214431428Y-127917380D01*
X214526666Y-127869761D01*
X214574285Y-127822142D01*
X214621904Y-127726904D01*
X214621904Y-127536428D01*
X214574285Y-127441190D01*
X214526666Y-127393571D01*
X214431428Y-127345952D01*
%TO.C,R19*%
X208272142Y-80632380D02*
X207938809Y-80156190D01*
X207700714Y-80632380D02*
X207700714Y-79632380D01*
X208081666Y-79632380D01*
X208176904Y-79680000D01*
X208224523Y-79727619D01*
X208272142Y-79822857D01*
X208272142Y-79965714D01*
X208224523Y-80060952D01*
X208176904Y-80108571D01*
X208081666Y-80156190D01*
X207700714Y-80156190D01*
X209224523Y-80632380D02*
X208653095Y-80632380D01*
X208938809Y-80632380D02*
X208938809Y-79632380D01*
X208843571Y-79775238D01*
X208748333Y-79870476D01*
X208653095Y-79918095D01*
X209700714Y-80632380D02*
X209891190Y-80632380D01*
X209986428Y-80584761D01*
X210034047Y-80537142D01*
X210129285Y-80394285D01*
X210176904Y-80203809D01*
X210176904Y-79822857D01*
X210129285Y-79727619D01*
X210081666Y-79680000D01*
X209986428Y-79632380D01*
X209795952Y-79632380D01*
X209700714Y-79680000D01*
X209653095Y-79727619D01*
X209605476Y-79822857D01*
X209605476Y-80060952D01*
X209653095Y-80156190D01*
X209700714Y-80203809D01*
X209795952Y-80251428D01*
X209986428Y-80251428D01*
X210081666Y-80203809D01*
X210129285Y-80156190D01*
X210176904Y-80060952D01*
%TO.C,R20*%
X208272142Y-142862380D02*
X207938809Y-142386190D01*
X207700714Y-142862380D02*
X207700714Y-141862380D01*
X208081666Y-141862380D01*
X208176904Y-141910000D01*
X208224523Y-141957619D01*
X208272142Y-142052857D01*
X208272142Y-142195714D01*
X208224523Y-142290952D01*
X208176904Y-142338571D01*
X208081666Y-142386190D01*
X207700714Y-142386190D01*
X208653095Y-141957619D02*
X208700714Y-141910000D01*
X208795952Y-141862380D01*
X209034047Y-141862380D01*
X209129285Y-141910000D01*
X209176904Y-141957619D01*
X209224523Y-142052857D01*
X209224523Y-142148095D01*
X209176904Y-142290952D01*
X208605476Y-142862380D01*
X209224523Y-142862380D01*
X209843571Y-141862380D02*
X209938809Y-141862380D01*
X210034047Y-141910000D01*
X210081666Y-141957619D01*
X210129285Y-142052857D01*
X210176904Y-142243333D01*
X210176904Y-142481428D01*
X210129285Y-142671904D01*
X210081666Y-142767142D01*
X210034047Y-142814761D01*
X209938809Y-142862380D01*
X209843571Y-142862380D01*
X209748333Y-142814761D01*
X209700714Y-142767142D01*
X209653095Y-142671904D01*
X209605476Y-142481428D01*
X209605476Y-142243333D01*
X209653095Y-142052857D01*
X209700714Y-141957619D01*
X209748333Y-141910000D01*
X209843571Y-141862380D01*
%TO.C,R21*%
X224147142Y-95532380D02*
X223813809Y-95056190D01*
X223575714Y-95532380D02*
X223575714Y-94532380D01*
X223956666Y-94532380D01*
X224051904Y-94580000D01*
X224099523Y-94627619D01*
X224147142Y-94722857D01*
X224147142Y-94865714D01*
X224099523Y-94960952D01*
X224051904Y-95008571D01*
X223956666Y-95056190D01*
X223575714Y-95056190D01*
X224528095Y-94627619D02*
X224575714Y-94580000D01*
X224670952Y-94532380D01*
X224909047Y-94532380D01*
X225004285Y-94580000D01*
X225051904Y-94627619D01*
X225099523Y-94722857D01*
X225099523Y-94818095D01*
X225051904Y-94960952D01*
X224480476Y-95532380D01*
X225099523Y-95532380D01*
X226051904Y-95532380D02*
X225480476Y-95532380D01*
X225766190Y-95532380D02*
X225766190Y-94532380D01*
X225670952Y-94675238D01*
X225575714Y-94770476D01*
X225480476Y-94818095D01*
%TO.C,RV1*%
X99617380Y-97750238D02*
X99141190Y-98083571D01*
X99617380Y-98321666D02*
X98617380Y-98321666D01*
X98617380Y-97940714D01*
X98665000Y-97845476D01*
X98712619Y-97797857D01*
X98807857Y-97750238D01*
X98950714Y-97750238D01*
X99045952Y-97797857D01*
X99093571Y-97845476D01*
X99141190Y-97940714D01*
X99141190Y-98321666D01*
X98617380Y-97464523D02*
X99617380Y-97131190D01*
X98617380Y-96797857D01*
X99617380Y-95940714D02*
X99617380Y-96512142D01*
X99617380Y-96226428D02*
X98617380Y-96226428D01*
X98760238Y-96321666D01*
X98855476Y-96416904D01*
X98903095Y-96512142D01*
%TO.C,RV2*%
X80684761Y-100042380D02*
X80351428Y-99566190D01*
X80113333Y-100042380D02*
X80113333Y-99042380D01*
X80494285Y-99042380D01*
X80589523Y-99090000D01*
X80637142Y-99137619D01*
X80684761Y-99232857D01*
X80684761Y-99375714D01*
X80637142Y-99470952D01*
X80589523Y-99518571D01*
X80494285Y-99566190D01*
X80113333Y-99566190D01*
X80970476Y-99042380D02*
X81303809Y-100042380D01*
X81637142Y-99042380D01*
X81922857Y-99137619D02*
X81970476Y-99090000D01*
X82065714Y-99042380D01*
X82303809Y-99042380D01*
X82399047Y-99090000D01*
X82446666Y-99137619D01*
X82494285Y-99232857D01*
X82494285Y-99328095D01*
X82446666Y-99470952D01*
X81875238Y-100042380D01*
X82494285Y-100042380D01*
%TO.C,RV3*%
X225464761Y-100677380D02*
X225131428Y-100201190D01*
X224893333Y-100677380D02*
X224893333Y-99677380D01*
X225274285Y-99677380D01*
X225369523Y-99725000D01*
X225417142Y-99772619D01*
X225464761Y-99867857D01*
X225464761Y-100010714D01*
X225417142Y-100105952D01*
X225369523Y-100153571D01*
X225274285Y-100201190D01*
X224893333Y-100201190D01*
X225750476Y-99677380D02*
X226083809Y-100677380D01*
X226417142Y-99677380D01*
X226655238Y-99677380D02*
X227274285Y-99677380D01*
X226940952Y-100058333D01*
X227083809Y-100058333D01*
X227179047Y-100105952D01*
X227226666Y-100153571D01*
X227274285Y-100248809D01*
X227274285Y-100486904D01*
X227226666Y-100582142D01*
X227179047Y-100629761D01*
X227083809Y-100677380D01*
X226798095Y-100677380D01*
X226702857Y-100629761D01*
X226655238Y-100582142D01*
%TO.C,RV4*%
X99617380Y-153630238D02*
X99141190Y-153963571D01*
X99617380Y-154201666D02*
X98617380Y-154201666D01*
X98617380Y-153820714D01*
X98665000Y-153725476D01*
X98712619Y-153677857D01*
X98807857Y-153630238D01*
X98950714Y-153630238D01*
X99045952Y-153677857D01*
X99093571Y-153725476D01*
X99141190Y-153820714D01*
X99141190Y-154201666D01*
X98617380Y-153344523D02*
X99617380Y-153011190D01*
X98617380Y-152677857D01*
X98950714Y-151915952D02*
X99617380Y-151915952D01*
X98569761Y-152154047D02*
X99284047Y-152392142D01*
X99284047Y-151773095D01*
%TO.C,RV5*%
X80684761Y-151052380D02*
X80351428Y-150576190D01*
X80113333Y-151052380D02*
X80113333Y-150052380D01*
X80494285Y-150052380D01*
X80589523Y-150100000D01*
X80637142Y-150147619D01*
X80684761Y-150242857D01*
X80684761Y-150385714D01*
X80637142Y-150480952D01*
X80589523Y-150528571D01*
X80494285Y-150576190D01*
X80113333Y-150576190D01*
X80970476Y-150052380D02*
X81303809Y-151052380D01*
X81637142Y-150052380D01*
X82446666Y-150052380D02*
X81970476Y-150052380D01*
X81922857Y-150528571D01*
X81970476Y-150480952D01*
X82065714Y-150433333D01*
X82303809Y-150433333D01*
X82399047Y-150480952D01*
X82446666Y-150528571D01*
X82494285Y-150623809D01*
X82494285Y-150861904D01*
X82446666Y-150957142D01*
X82399047Y-151004761D01*
X82303809Y-151052380D01*
X82065714Y-151052380D01*
X81970476Y-151004761D01*
X81922857Y-150957142D01*
%TO.C,RV6*%
X207357380Y-95845238D02*
X206881190Y-96178571D01*
X207357380Y-96416666D02*
X206357380Y-96416666D01*
X206357380Y-96035714D01*
X206405000Y-95940476D01*
X206452619Y-95892857D01*
X206547857Y-95845238D01*
X206690714Y-95845238D01*
X206785952Y-95892857D01*
X206833571Y-95940476D01*
X206881190Y-96035714D01*
X206881190Y-96416666D01*
X206357380Y-95559523D02*
X207357380Y-95226190D01*
X206357380Y-94892857D01*
X206357380Y-94130952D02*
X206357380Y-94321428D01*
X206405000Y-94416666D01*
X206452619Y-94464285D01*
X206595476Y-94559523D01*
X206785952Y-94607142D01*
X207166904Y-94607142D01*
X207262142Y-94559523D01*
X207309761Y-94511904D01*
X207357380Y-94416666D01*
X207357380Y-94226190D01*
X207309761Y-94130952D01*
X207262142Y-94083333D01*
X207166904Y-94035714D01*
X206928809Y-94035714D01*
X206833571Y-94083333D01*
X206785952Y-94130952D01*
X206738333Y-94226190D01*
X206738333Y-94416666D01*
X206785952Y-94511904D01*
X206833571Y-94559523D01*
X206928809Y-94607142D01*
%TO.C,RV7*%
X207357380Y-132675238D02*
X206881190Y-133008571D01*
X207357380Y-133246666D02*
X206357380Y-133246666D01*
X206357380Y-132865714D01*
X206405000Y-132770476D01*
X206452619Y-132722857D01*
X206547857Y-132675238D01*
X206690714Y-132675238D01*
X206785952Y-132722857D01*
X206833571Y-132770476D01*
X206881190Y-132865714D01*
X206881190Y-133246666D01*
X206357380Y-132389523D02*
X207357380Y-132056190D01*
X206357380Y-131722857D01*
X206357380Y-131484761D02*
X206357380Y-130818095D01*
X207357380Y-131246666D01*
%TO.C,RV8*%
X225464761Y-127557380D02*
X225131428Y-127081190D01*
X224893333Y-127557380D02*
X224893333Y-126557380D01*
X225274285Y-126557380D01*
X225369523Y-126605000D01*
X225417142Y-126652619D01*
X225464761Y-126747857D01*
X225464761Y-126890714D01*
X225417142Y-126985952D01*
X225369523Y-127033571D01*
X225274285Y-127081190D01*
X224893333Y-127081190D01*
X225750476Y-126557380D02*
X226083809Y-127557380D01*
X226417142Y-126557380D01*
X226893333Y-126985952D02*
X226798095Y-126938333D01*
X226750476Y-126890714D01*
X226702857Y-126795476D01*
X226702857Y-126747857D01*
X226750476Y-126652619D01*
X226798095Y-126605000D01*
X226893333Y-126557380D01*
X227083809Y-126557380D01*
X227179047Y-126605000D01*
X227226666Y-126652619D01*
X227274285Y-126747857D01*
X227274285Y-126795476D01*
X227226666Y-126890714D01*
X227179047Y-126938333D01*
X227083809Y-126985952D01*
X226893333Y-126985952D01*
X226798095Y-127033571D01*
X226750476Y-127081190D01*
X226702857Y-127176428D01*
X226702857Y-127366904D01*
X226750476Y-127462142D01*
X226798095Y-127509761D01*
X226893333Y-127557380D01*
X227083809Y-127557380D01*
X227179047Y-127509761D01*
X227226666Y-127462142D01*
X227274285Y-127366904D01*
X227274285Y-127176428D01*
X227226666Y-127081190D01*
X227179047Y-127033571D01*
X227083809Y-126985952D01*
%TO.C,RV9*%
X233719761Y-100782380D02*
X233386428Y-100306190D01*
X233148333Y-100782380D02*
X233148333Y-99782380D01*
X233529285Y-99782380D01*
X233624523Y-99830000D01*
X233672142Y-99877619D01*
X233719761Y-99972857D01*
X233719761Y-100115714D01*
X233672142Y-100210952D01*
X233624523Y-100258571D01*
X233529285Y-100306190D01*
X233148333Y-100306190D01*
X234005476Y-99782380D02*
X234338809Y-100782380D01*
X234672142Y-99782380D01*
X235053095Y-100782380D02*
X235243571Y-100782380D01*
X235338809Y-100734761D01*
X235386428Y-100687142D01*
X235481666Y-100544285D01*
X235529285Y-100353809D01*
X235529285Y-99972857D01*
X235481666Y-99877619D01*
X235434047Y-99830000D01*
X235338809Y-99782380D01*
X235148333Y-99782380D01*
X235053095Y-99830000D01*
X235005476Y-99877619D01*
X234957857Y-99972857D01*
X234957857Y-100210952D01*
X235005476Y-100306190D01*
X235053095Y-100353809D01*
X235148333Y-100401428D01*
X235338809Y-100401428D01*
X235434047Y-100353809D01*
X235481666Y-100306190D01*
X235529285Y-100210952D01*
%TO.C,RV10*%
X233243571Y-118457380D02*
X232910238Y-117981190D01*
X232672142Y-118457380D02*
X232672142Y-117457380D01*
X233053095Y-117457380D01*
X233148333Y-117505000D01*
X233195952Y-117552619D01*
X233243571Y-117647857D01*
X233243571Y-117790714D01*
X233195952Y-117885952D01*
X233148333Y-117933571D01*
X233053095Y-117981190D01*
X232672142Y-117981190D01*
X233529285Y-117457380D02*
X233862619Y-118457380D01*
X234195952Y-117457380D01*
X235053095Y-118457380D02*
X234481666Y-118457380D01*
X234767380Y-118457380D02*
X234767380Y-117457380D01*
X234672142Y-117600238D01*
X234576904Y-117695476D01*
X234481666Y-117743095D01*
X235672142Y-117457380D02*
X235767380Y-117457380D01*
X235862619Y-117505000D01*
X235910238Y-117552619D01*
X235957857Y-117647857D01*
X236005476Y-117838333D01*
X236005476Y-118076428D01*
X235957857Y-118266904D01*
X235910238Y-118362142D01*
X235862619Y-118409761D01*
X235767380Y-118457380D01*
X235672142Y-118457380D01*
X235576904Y-118409761D01*
X235529285Y-118362142D01*
X235481666Y-118266904D01*
X235434047Y-118076428D01*
X235434047Y-117838333D01*
X235481666Y-117647857D01*
X235529285Y-117552619D01*
X235576904Y-117505000D01*
X235672142Y-117457380D01*
%TO.C,U1*%
X215777380Y-114426904D02*
X216586904Y-114426904D01*
X216682142Y-114379285D01*
X216729761Y-114331666D01*
X216777380Y-114236428D01*
X216777380Y-114045952D01*
X216729761Y-113950714D01*
X216682142Y-113903095D01*
X216586904Y-113855476D01*
X215777380Y-113855476D01*
X216777380Y-112855476D02*
X216777380Y-113426904D01*
X216777380Y-113141190D02*
X215777380Y-113141190D01*
X215920238Y-113236428D01*
X216015476Y-113331666D01*
X216063095Y-113426904D01*
%TO.C,U2*%
X133858095Y-169257380D02*
X133858095Y-170066904D01*
X133905714Y-170162142D01*
X133953333Y-170209761D01*
X134048571Y-170257380D01*
X134239047Y-170257380D01*
X134334285Y-170209761D01*
X134381904Y-170162142D01*
X134429523Y-170066904D01*
X134429523Y-169257380D01*
X134858095Y-169352619D02*
X134905714Y-169305000D01*
X135000952Y-169257380D01*
X135239047Y-169257380D01*
X135334285Y-169305000D01*
X135381904Y-169352619D01*
X135429523Y-169447857D01*
X135429523Y-169543095D01*
X135381904Y-169685952D01*
X134810476Y-170257380D01*
X135429523Y-170257380D01*
%TO.C,U3*%
X92587380Y-125856904D02*
X93396904Y-125856904D01*
X93492142Y-125809285D01*
X93539761Y-125761666D01*
X93587380Y-125666428D01*
X93587380Y-125475952D01*
X93539761Y-125380714D01*
X93492142Y-125333095D01*
X93396904Y-125285476D01*
X92587380Y-125285476D01*
X92587380Y-124904523D02*
X92587380Y-124285476D01*
X92968333Y-124618809D01*
X92968333Y-124475952D01*
X93015952Y-124380714D01*
X93063571Y-124333095D01*
X93158809Y-124285476D01*
X93396904Y-124285476D01*
X93492142Y-124333095D01*
X93539761Y-124380714D01*
X93587380Y-124475952D01*
X93587380Y-124761666D01*
X93539761Y-124856904D01*
X93492142Y-124904523D01*
%TD*%
M02*
