M48
; DRILL file {KiCad (5.1.6)-1} date 01/07/21 08:24:23
; FORMAT={-:-/ absolute / inch / decimal}
; #@! TF.CreationDate,2021-01-07T08:24:23+01:00
; #@! TF.GenerationSoftware,Kicad,Pcbnew,(5.1.6)-1
; #@! TF.FileFunction,Plated,1,2,PTH
FMAT,2
INCH
T1C0.0236
T2C0.0315
T3C0.0394
T4C0.0433
T5C0.0500
T6C0.0600
%
G90
G05
T1
X3.85Y-4.675
X3.85Y-5.2
X3.95Y-3.45
X4.05Y-5.85
X4.35Y-5.85
X4.4Y-3.45
X4.65Y-5.375
X5.925Y-5.875
X5.925Y-6.275
X6.5Y-5.375
X6.925Y-5.85
X7.525Y-4.25
X7.525Y-4.7
X7.525Y-5.85
X7.825Y-4.175
X7.825Y-4.775
X8.55Y-4.175
X8.55Y-4.775
T2
X2.975Y-5.425
X3.375Y-5.425
X2.725Y-4.375
X2.725Y-4.775
X5.725Y-5.875
X5.725Y-6.275
X2.975Y-4.425
X3.375Y-4.425
X3.55Y-4.175
X3.95Y-4.175
X8.225Y-3.75
X8.325Y-3.75
X8.425Y-3.75
X3.2Y-5.65
X3.2Y-5.75
X3.2Y-5.85
X8.025Y-5.7
X8.425Y-5.7
X8.675Y-5.325
X9.075Y-5.325
X8.2Y-4.925
X8.6Y-4.925
X3.2Y-4.0
X3.2Y-4.1
X3.2Y-4.2
X8.9Y-4.725
X8.9Y-4.825
X8.9Y-4.925
X6.65Y-6.175
X7.05Y-6.175
X3.375Y-6.025
X3.375Y-6.425
X8.2Y-4.025
X8.6Y-4.025
X3.55Y-5.7
X3.95Y-5.7
X2.975Y-4.775
X2.975Y-5.075
X3.075Y-4.775
X3.075Y-5.075
X3.175Y-4.775
X3.175Y-5.075
X3.275Y-4.775
X3.275Y-5.075
X3.375Y-4.775
X3.375Y-5.075
X3.475Y-4.775
X3.475Y-5.075
X3.575Y-4.775
X3.575Y-5.075
X7.825Y-4.325
X7.825Y-4.625
X7.925Y-4.325
X7.925Y-4.625
X8.025Y-4.325
X8.025Y-4.625
X8.125Y-4.325
X8.125Y-4.625
X8.225Y-4.325
X8.225Y-4.625
X8.325Y-4.325
X8.325Y-4.625
X8.425Y-4.325
X8.425Y-4.625
X8.225Y-5.2
X8.325Y-5.2
X8.425Y-5.2
X7.525Y-4.925
X7.925Y-4.925
X8.025Y-5.5
X8.425Y-5.5
X8.025Y-3.45
X8.425Y-3.45
X8.9Y-4.025
X8.9Y-4.125
X8.9Y-4.225
X9.225Y-4.725
X9.225Y-4.825
X9.225Y-4.925
X8.025Y-3.25
X8.425Y-3.25
X4.875Y-5.875
X4.875Y-6.275
X7.525Y-5.2
X7.925Y-5.2
X7.525Y-3.75
X7.925Y-3.75
X3.55Y-5.425
X3.95Y-5.425
X8.65Y-3.65
X9.05Y-3.65
X9.225Y-4.025
X9.225Y-4.125
X9.225Y-4.225
X2.725Y-5.075
X2.725Y-5.475
X6.65Y-6.375
X7.05Y-6.375
X7.525Y-4.025
X7.925Y-4.025
X3.55Y-4.425
X3.95Y-4.425
X3.375Y-3.425
X3.375Y-3.825
X3.625Y-3.825
X3.725Y-3.825
X3.825Y-3.825
X3.625Y-6.025
X3.725Y-6.025
X3.825Y-6.025
T3
X6.3Y-6.175
X6.3Y-6.275
X6.3Y-6.375
X4.15Y-2.7
X4.15Y-2.8
X4.15Y-2.9
X4.15Y-3.0
X4.15Y-3.1
X4.15Y-3.2
X6.78Y-3.775
X6.78Y-3.875
X6.78Y-3.975
X6.78Y-4.075
X6.78Y-4.175
X6.78Y-4.275
X6.78Y-4.375
X6.78Y-4.475
X6.78Y-4.575
X6.78Y-4.675
X6.78Y-4.775
X6.78Y-4.875
X6.78Y-4.975
X6.78Y-5.075
X6.78Y-5.175
X6.78Y-5.275
X6.78Y-5.375
X6.78Y-5.475
X6.78Y-5.575
X6.78Y-5.675
X6.88Y-3.775
X6.88Y-3.875
X6.88Y-3.975
X6.88Y-4.075
X6.88Y-4.175
X6.88Y-4.275
X6.88Y-4.375
X6.88Y-4.475
X6.88Y-4.575
X6.88Y-4.675
X6.88Y-4.775
X6.88Y-4.875
X6.88Y-4.975
X6.88Y-5.075
X6.88Y-5.175
X6.88Y-5.275
X6.88Y-5.375
X6.88Y-5.475
X6.88Y-5.575
X6.88Y-5.675
X4.375Y-3.775
X4.375Y-3.875
X4.375Y-3.975
X4.375Y-4.075
X4.375Y-4.175
X4.375Y-4.275
X4.375Y-4.375
X4.375Y-4.475
X4.375Y-4.575
X4.375Y-4.675
X4.375Y-4.775
X4.375Y-4.875
X4.375Y-4.975
X4.375Y-5.075
X4.375Y-5.175
X4.375Y-5.275
X4.375Y-5.375
X4.375Y-5.475
X4.375Y-5.575
X4.375Y-5.675
X4.475Y-3.775
X4.475Y-3.875
X4.475Y-3.975
X4.475Y-4.075
X4.475Y-4.175
X4.475Y-4.275
X4.475Y-4.375
X4.475Y-4.475
X4.475Y-4.575
X4.475Y-4.675
X4.475Y-4.775
X4.475Y-4.875
X4.475Y-4.975
X4.475Y-5.075
X4.475Y-5.175
X4.475Y-5.275
X4.475Y-5.375
X4.475Y-5.475
X4.475Y-5.575
X4.475Y-5.675
T4
X5.2Y-5.875
X5.3Y-5.875
X5.4Y-5.875
T5
X9.125Y-3.125
X9.125Y-5.825
X2.9Y-6.225
X2.9Y-3.625
T6
X9.0Y-3.0
X9.0Y-3.25
X9.25Y-3.0
X9.25Y-3.25
X9.0Y-5.7
X9.0Y-5.95
X9.25Y-5.7
X9.25Y-5.95
X2.775Y-6.1
X2.775Y-6.35
X3.025Y-6.1
X3.025Y-6.35
X2.775Y-3.5
X2.775Y-3.75
X3.025Y-3.5
X3.025Y-3.75
T0
M30
