M48
; DRILL file {KiCad (5.1.6)-1} date 06/29/23 19:29:12
; FORMAT={-:-/ absolute / inch / decimal}
; #@! TF.CreationDate,2023-06-29T19:29:12+02:00
; #@! TF.GenerationSoftware,Kicad,Pcbnew,(5.1.6)-1
; #@! TF.FileFunction,Plated,1,2,PTH
FMAT,2
INCH
T1C0.0315
T2C0.0394
T3C0.0598
%
G90
G05
T1
X6.06Y-5.46
X6.06Y-5.56
X6.06Y-5.66
X6.06Y-5.76
X6.36Y-5.46
X6.36Y-5.56
X6.36Y-5.66
X6.36Y-5.76
X5.6Y-5.5
X5.7Y-5.5
X5.8Y-5.5
X5.34Y-5.76
X5.84Y-5.76
X5.34Y-5.96
X5.84Y-5.96
T2
X6.58Y-5.86
X6.58Y-5.96
X6.58Y-6.06
X6.58Y-5.62
X6.8753Y-5.62
X6.06Y-5.16
X6.06Y-5.26
T3
X6.62Y-5.2185
X6.82Y-5.2185
T0
M30
