%TF.GenerationSoftware,KiCad,Pcbnew,(5.1.6)-1*%
%TF.CreationDate,2023-06-29T19:29:05+02:00*%
%TF.ProjectId,carteAdaptationPiezo,63617274-6541-4646-9170-746174696f6e,rev?*%
%TF.SameCoordinates,Original*%
%TF.FileFunction,Copper,L2,Bot*%
%TF.FilePolarity,Positive*%
%FSLAX46Y46*%
G04 Gerber Fmt 4.6, Leading zero omitted, Abs format (unit mm)*
G04 Created by KiCad (PCBNEW (5.1.6)-1) date 2023-06-29 19:29:05*
%MOMM*%
%LPD*%
G01*
G04 APERTURE LIST*
%TA.AperFunction,NonConductor*%
%ADD10C,0.300000*%
%TD*%
%TA.AperFunction,NonConductor*%
%ADD11C,0.200000*%
%TD*%
%TA.AperFunction,ComponentPad*%
%ADD12C,2.000000*%
%TD*%
%TA.AperFunction,ComponentPad*%
%ADD13R,1.700000X1.700000*%
%TD*%
%TA.AperFunction,ComponentPad*%
%ADD14O,1.700000X1.700000*%
%TD*%
%TA.AperFunction,ComponentPad*%
%ADD15R,3.000000X3.000000*%
%TD*%
%TA.AperFunction,ComponentPad*%
%ADD16C,3.000000*%
%TD*%
%TA.AperFunction,ComponentPad*%
%ADD17C,1.600000*%
%TD*%
%TA.AperFunction,ComponentPad*%
%ADD18O,1.600000X1.600000*%
%TD*%
%TA.AperFunction,ComponentPad*%
%ADD19C,1.700000*%
%TD*%
%TA.AperFunction,ComponentPad*%
%ADD20R,2.400000X1.600000*%
%TD*%
%TA.AperFunction,ComponentPad*%
%ADD21O,2.400000X1.600000*%
%TD*%
%TA.AperFunction,Conductor*%
%ADD22C,1.000000*%
%TD*%
%TA.AperFunction,Conductor*%
%ADD23C,0.254000*%
%TD*%
G04 APERTURE END LIST*
D10*
X138322571Y-131742571D02*
X139036857Y-131742571D01*
X139036857Y-130242571D01*
X137822571Y-130956857D02*
X137322571Y-130956857D01*
X137108285Y-131742571D02*
X137822571Y-131742571D01*
X137822571Y-130242571D01*
X137108285Y-130242571D01*
X136465428Y-130742571D02*
X136465428Y-131742571D01*
X136465428Y-130885428D02*
X136394000Y-130814000D01*
X136251142Y-130742571D01*
X136036857Y-130742571D01*
X135894000Y-130814000D01*
X135822571Y-130956857D01*
X135822571Y-131742571D01*
X135179714Y-131671142D02*
X135036857Y-131742571D01*
X134751142Y-131742571D01*
X134608285Y-131671142D01*
X134536857Y-131528285D01*
X134536857Y-131456857D01*
X134608285Y-131314000D01*
X134751142Y-131242571D01*
X134965428Y-131242571D01*
X135108285Y-131171142D01*
X135179714Y-131028285D01*
X135179714Y-130956857D01*
X135108285Y-130814000D01*
X134965428Y-130742571D01*
X134751142Y-130742571D01*
X134608285Y-130814000D01*
X133894000Y-130956857D02*
X133394000Y-130956857D01*
X133179714Y-131742571D02*
X133894000Y-131742571D01*
X133894000Y-130242571D01*
X133179714Y-130242571D01*
D11*
X143152190Y-129484380D02*
X143152190Y-128484380D01*
X142771238Y-128484380D01*
X142676000Y-128532000D01*
X142628380Y-128579619D01*
X142580761Y-128674857D01*
X142580761Y-128817714D01*
X142628380Y-128912952D01*
X142676000Y-128960571D01*
X142771238Y-129008190D01*
X143152190Y-129008190D01*
X142152190Y-129484380D02*
X142152190Y-128817714D01*
X142152190Y-128484380D02*
X142199809Y-128532000D01*
X142152190Y-128579619D01*
X142104571Y-128532000D01*
X142152190Y-128484380D01*
X142152190Y-128579619D01*
X141295047Y-129436761D02*
X141390285Y-129484380D01*
X141580761Y-129484380D01*
X141676000Y-129436761D01*
X141723619Y-129341523D01*
X141723619Y-128960571D01*
X141676000Y-128865333D01*
X141580761Y-128817714D01*
X141390285Y-128817714D01*
X141295047Y-128865333D01*
X141247428Y-128960571D01*
X141247428Y-129055809D01*
X141723619Y-129151047D01*
X140914095Y-128817714D02*
X140390285Y-128817714D01*
X140914095Y-129484380D01*
X140390285Y-129484380D01*
X139866476Y-129484380D02*
X139961714Y-129436761D01*
X140009333Y-129389142D01*
X140056952Y-129293904D01*
X140056952Y-129008190D01*
X140009333Y-128912952D01*
X139961714Y-128865333D01*
X139866476Y-128817714D01*
X139723619Y-128817714D01*
X139628380Y-128865333D01*
X139580761Y-128912952D01*
X139533142Y-129008190D01*
X139533142Y-129293904D01*
X139580761Y-129389142D01*
X139628380Y-129436761D01*
X139723619Y-129484380D01*
X139866476Y-129484380D01*
X137628380Y-128436761D02*
X138485523Y-129722476D01*
X136580761Y-128579619D02*
X136533142Y-128532000D01*
X136437904Y-128484380D01*
X136199809Y-128484380D01*
X136104571Y-128532000D01*
X136056952Y-128579619D01*
X136009333Y-128674857D01*
X136009333Y-128770095D01*
X136056952Y-128912952D01*
X136628380Y-129484380D01*
X136009333Y-129484380D01*
X135390285Y-128484380D02*
X135295047Y-128484380D01*
X135199809Y-128532000D01*
X135152190Y-128579619D01*
X135104571Y-128674857D01*
X135056952Y-128865333D01*
X135056952Y-129103428D01*
X135104571Y-129293904D01*
X135152190Y-129389142D01*
X135199809Y-129436761D01*
X135295047Y-129484380D01*
X135390285Y-129484380D01*
X135485523Y-129436761D01*
X135533142Y-129389142D01*
X135580761Y-129293904D01*
X135628380Y-129103428D01*
X135628380Y-128865333D01*
X135580761Y-128674857D01*
X135533142Y-128579619D01*
X135485523Y-128532000D01*
X135390285Y-128484380D01*
X134676000Y-128579619D02*
X134628380Y-128532000D01*
X134533142Y-128484380D01*
X134295047Y-128484380D01*
X134199809Y-128532000D01*
X134152190Y-128579619D01*
X134104571Y-128674857D01*
X134104571Y-128770095D01*
X134152190Y-128912952D01*
X134723619Y-129484380D01*
X134104571Y-129484380D01*
X133771238Y-128484380D02*
X133152190Y-128484380D01*
X133485523Y-128865333D01*
X133342666Y-128865333D01*
X133247428Y-128912952D01*
X133199809Y-128960571D01*
X133152190Y-129055809D01*
X133152190Y-129293904D01*
X133199809Y-129389142D01*
X133247428Y-129436761D01*
X133342666Y-129484380D01*
X133628380Y-129484380D01*
X133723619Y-129436761D01*
X133771238Y-129389142D01*
D12*
%TO.P,C1,1*%
%TO.N,12V*%
X174632000Y-142748000D03*
%TO.P,C1,2*%
%TO.N,GND*%
X167132000Y-142748000D03*
%TD*%
D13*
%TO.P,J1,1*%
%TO.N,12V*%
X167132000Y-148844000D03*
D14*
%TO.P,J1,2*%
%TO.N,GND*%
X167132000Y-151384000D03*
%TO.P,J1,3*%
%TO.N,Net-(J1-Pad3)*%
X167132000Y-153924000D03*
%TD*%
D13*
%TO.P,J2,1*%
%TO.N,Net-(J2-Pad1)*%
X153924000Y-133604000D03*
D14*
%TO.P,J2,2*%
%TO.N,GND*%
X153924000Y-131064000D03*
%TD*%
D15*
%TO.P,J3,1*%
%TO.N,GND*%
X168148000Y-132549001D03*
D16*
%TO.P,J3,2*%
%TO.N,12V*%
X173228000Y-132549001D03*
%TD*%
D17*
%TO.P,R1,1*%
%TO.N,Net-(R1-Pad1)*%
X135636000Y-151384000D03*
D18*
%TO.P,R1,2*%
%TO.N,GND*%
X148336000Y-151384000D03*
%TD*%
%TO.P,R2,2*%
%TO.N,Net-(R1-Pad1)*%
X148336000Y-146304000D03*
D17*
%TO.P,R2,1*%
%TO.N,Net-(R2-Pad1)*%
X135636000Y-146304000D03*
%TD*%
D19*
%TO.P,RV1,1*%
%TO.N,Net-(J2-Pad1)*%
X147320000Y-139700000D03*
%TO.P,RV1,2*%
%TO.N,Net-(R2-Pad1)*%
X144780000Y-139700000D03*
%TO.P,RV1,3*%
X142240000Y-139700000D03*
%TD*%
D20*
%TO.P,U1,1*%
%TO.N,Net-(J2-Pad1)*%
X153924000Y-138684000D03*
D21*
%TO.P,U1,5*%
%TO.N,N/C*%
X161544000Y-146304000D03*
%TO.P,U1,2*%
%TO.N,Net-(R1-Pad1)*%
X153924000Y-141224000D03*
%TO.P,U1,6*%
%TO.N,N/C*%
X161544000Y-143764000D03*
%TO.P,U1,3*%
%TO.N,Net-(J1-Pad3)*%
X153924000Y-143764000D03*
%TO.P,U1,7*%
%TO.N,N/C*%
X161544000Y-141224000D03*
%TO.P,U1,4*%
%TO.N,GND*%
X153924000Y-146304000D03*
%TO.P,U1,8*%
%TO.N,12V*%
X161544000Y-138684000D03*
%TD*%
D22*
%TO.N,12V*%
X174632000Y-133953001D02*
X173228000Y-132549001D01*
X174632000Y-142748000D02*
X174632000Y-133953001D01*
X161544000Y-138684000D02*
X164084000Y-138684000D01*
X164084000Y-138684000D02*
X164592000Y-139192000D01*
X165398000Y-148844000D02*
X167132000Y-148844000D01*
X164592000Y-148038000D02*
X165398000Y-148844000D01*
X164592000Y-139192000D02*
X164592000Y-148038000D01*
X167132000Y-148844000D02*
X172720000Y-148844000D01*
X174632000Y-146932000D02*
X174632000Y-142748000D01*
X172720000Y-148844000D02*
X174632000Y-146932000D01*
%TO.N,Net-(J1-Pad3)*%
X157480000Y-151384000D02*
X160020000Y-153924000D01*
X157480000Y-145288000D02*
X157480000Y-151384000D01*
X153924000Y-143764000D02*
X155956000Y-143764000D01*
X160020000Y-153924000D02*
X167132000Y-153924000D01*
X155956000Y-143764000D02*
X157480000Y-145288000D01*
%TO.N,Net-(J2-Pad1)*%
X153924000Y-133604000D02*
X153924000Y-138684000D01*
X147320000Y-139700000D02*
X148336000Y-138684000D01*
X148336000Y-138684000D02*
X153924000Y-138684000D01*
%TO.N,Net-(R1-Pad1)*%
X135636000Y-151384000D02*
X139192000Y-151384000D01*
X144272000Y-146304000D02*
X148336000Y-146304000D01*
X139192000Y-151384000D02*
X144272000Y-146304000D01*
X148336000Y-146304000D02*
X148336000Y-143256000D01*
X150368000Y-141224000D02*
X153924000Y-141224000D01*
X148336000Y-143256000D02*
X150368000Y-141224000D01*
%TO.N,Net-(R2-Pad1)*%
X144780000Y-139700000D02*
X142240000Y-139700000D01*
X135636000Y-146304000D02*
X142240000Y-139700000D01*
%TD*%
D23*
%TO.N,GND*%
G36*
X180188001Y-156312000D02*
G01*
X132740000Y-156312000D01*
X132740000Y-146162665D01*
X134201000Y-146162665D01*
X134201000Y-146445335D01*
X134256147Y-146722574D01*
X134364320Y-146983727D01*
X134521363Y-147218759D01*
X134721241Y-147418637D01*
X134956273Y-147575680D01*
X135217426Y-147683853D01*
X135494665Y-147739000D01*
X135777335Y-147739000D01*
X136054574Y-147683853D01*
X136315727Y-147575680D01*
X136550759Y-147418637D01*
X136750637Y-147218759D01*
X136907680Y-146983727D01*
X137015853Y-146722574D01*
X137063850Y-146481281D01*
X142360132Y-141185000D01*
X142386260Y-141185000D01*
X142673158Y-141127932D01*
X142943411Y-141015990D01*
X143186632Y-140853475D01*
X143205107Y-140835000D01*
X143814893Y-140835000D01*
X143833368Y-140853475D01*
X144076589Y-141015990D01*
X144346842Y-141127932D01*
X144633740Y-141185000D01*
X144926260Y-141185000D01*
X145213158Y-141127932D01*
X145483411Y-141015990D01*
X145726632Y-140853475D01*
X145933475Y-140646632D01*
X146050000Y-140472240D01*
X146166525Y-140646632D01*
X146373368Y-140853475D01*
X146616589Y-141015990D01*
X146886842Y-141127932D01*
X147173740Y-141185000D01*
X147466260Y-141185000D01*
X147753158Y-141127932D01*
X148023411Y-141015990D01*
X148266632Y-140853475D01*
X148473475Y-140646632D01*
X148635990Y-140403411D01*
X148747932Y-140133158D01*
X148805000Y-139846260D01*
X148805000Y-139820132D01*
X148806132Y-139819000D01*
X152183043Y-139819000D01*
X152193463Y-139838494D01*
X152272815Y-139935185D01*
X152369506Y-140014537D01*
X152479820Y-140073502D01*
X152530910Y-140089000D01*
X150423751Y-140089000D01*
X150368000Y-140083509D01*
X150312248Y-140089000D01*
X150145501Y-140105423D01*
X149931553Y-140170324D01*
X149734377Y-140275716D01*
X149561551Y-140417551D01*
X149526009Y-140460859D01*
X147572860Y-142414009D01*
X147529552Y-142449551D01*
X147387717Y-142622377D01*
X147340709Y-142710324D01*
X147282324Y-142819554D01*
X147217423Y-143033502D01*
X147195509Y-143256000D01*
X147201001Y-143311761D01*
X147201000Y-145169000D01*
X144327751Y-145169000D01*
X144272000Y-145163509D01*
X144216248Y-145169000D01*
X144049501Y-145185423D01*
X143835553Y-145250324D01*
X143638377Y-145355716D01*
X143465551Y-145497551D01*
X143430011Y-145540857D01*
X138721869Y-150249000D01*
X136520284Y-150249000D01*
X136315727Y-150112320D01*
X136054574Y-150004147D01*
X135777335Y-149949000D01*
X135494665Y-149949000D01*
X135217426Y-150004147D01*
X134956273Y-150112320D01*
X134721241Y-150269363D01*
X134521363Y-150469241D01*
X134364320Y-150704273D01*
X134256147Y-150965426D01*
X134201000Y-151242665D01*
X134201000Y-151525335D01*
X134256147Y-151802574D01*
X134364320Y-152063727D01*
X134521363Y-152298759D01*
X134721241Y-152498637D01*
X134956273Y-152655680D01*
X135217426Y-152763853D01*
X135494665Y-152819000D01*
X135777335Y-152819000D01*
X136054574Y-152763853D01*
X136315727Y-152655680D01*
X136520284Y-152519000D01*
X139136249Y-152519000D01*
X139192000Y-152524491D01*
X139247751Y-152519000D01*
X139247752Y-152519000D01*
X139414499Y-152502577D01*
X139628447Y-152437676D01*
X139825623Y-152332284D01*
X139998449Y-152190449D01*
X140033996Y-152147135D01*
X140307108Y-151874023D01*
X146987259Y-151874023D01*
X147035790Y-151991212D01*
X147179234Y-152233203D01*
X147367132Y-152442560D01*
X147592263Y-152611237D01*
X147845976Y-152732752D01*
X148063000Y-152634053D01*
X148063000Y-151657000D01*
X148609000Y-151657000D01*
X148609000Y-152634053D01*
X148826024Y-152732752D01*
X149079737Y-152611237D01*
X149304868Y-152442560D01*
X149492766Y-152233203D01*
X149636210Y-151991212D01*
X149684741Y-151874023D01*
X149582710Y-151657000D01*
X148609000Y-151657000D01*
X148063000Y-151657000D01*
X147089290Y-151657000D01*
X146987259Y-151874023D01*
X140307108Y-151874023D01*
X141287154Y-150893977D01*
X146987259Y-150893977D01*
X147089290Y-151111000D01*
X148063000Y-151111000D01*
X148063000Y-150133947D01*
X148609000Y-150133947D01*
X148609000Y-151111000D01*
X149582710Y-151111000D01*
X149684741Y-150893977D01*
X149636210Y-150776788D01*
X149492766Y-150534797D01*
X149304868Y-150325440D01*
X149079737Y-150156763D01*
X148826024Y-150035248D01*
X148609000Y-150133947D01*
X148063000Y-150133947D01*
X147845976Y-150035248D01*
X147592263Y-150156763D01*
X147367132Y-150325440D01*
X147179234Y-150534797D01*
X147035790Y-150776788D01*
X146987259Y-150893977D01*
X141287154Y-150893977D01*
X144742132Y-147439000D01*
X147451716Y-147439000D01*
X147656273Y-147575680D01*
X147917426Y-147683853D01*
X148194665Y-147739000D01*
X148477335Y-147739000D01*
X148754574Y-147683853D01*
X149015727Y-147575680D01*
X149250759Y-147418637D01*
X149450637Y-147218759D01*
X149607680Y-146983727D01*
X149686257Y-146794023D01*
X152175259Y-146794023D01*
X152263064Y-147025145D01*
X152427981Y-147257285D01*
X152635017Y-147452791D01*
X152876217Y-147604149D01*
X153142310Y-147705543D01*
X153423072Y-147753077D01*
X153651000Y-147592275D01*
X153651000Y-146577000D01*
X154197000Y-146577000D01*
X154197000Y-147592275D01*
X154424928Y-147753077D01*
X154705690Y-147705543D01*
X154971783Y-147604149D01*
X155212983Y-147452791D01*
X155420019Y-147257285D01*
X155584936Y-147025145D01*
X155672741Y-146794023D01*
X155570710Y-146577000D01*
X154197000Y-146577000D01*
X153651000Y-146577000D01*
X152277290Y-146577000D01*
X152175259Y-146794023D01*
X149686257Y-146794023D01*
X149715853Y-146722574D01*
X149771000Y-146445335D01*
X149771000Y-146162665D01*
X149715853Y-145885426D01*
X149607680Y-145624273D01*
X149471000Y-145419716D01*
X149471000Y-143726131D01*
X150838132Y-142359000D01*
X152644998Y-142359000D01*
X152722899Y-142422932D01*
X152855858Y-142494000D01*
X152722899Y-142565068D01*
X152504392Y-142744392D01*
X152325068Y-142962899D01*
X152191818Y-143212192D01*
X152109764Y-143482691D01*
X152082057Y-143764000D01*
X152109764Y-144045309D01*
X152191818Y-144315808D01*
X152325068Y-144565101D01*
X152504392Y-144783608D01*
X152722899Y-144962932D01*
X152840907Y-145026009D01*
X152635017Y-145155209D01*
X152427981Y-145350715D01*
X152263064Y-145582855D01*
X152175259Y-145813977D01*
X152277290Y-146031000D01*
X153651000Y-146031000D01*
X153651000Y-146011000D01*
X154197000Y-146011000D01*
X154197000Y-146031000D01*
X155570710Y-146031000D01*
X155672741Y-145813977D01*
X155584936Y-145582855D01*
X155420019Y-145350715D01*
X155212983Y-145155209D01*
X155007093Y-145026009D01*
X155125101Y-144962932D01*
X155203002Y-144899000D01*
X155485869Y-144899000D01*
X156345000Y-145758132D01*
X156345001Y-151328239D01*
X156339509Y-151384000D01*
X156361423Y-151606498D01*
X156426324Y-151820446D01*
X156475384Y-151912230D01*
X156531717Y-152017623D01*
X156673552Y-152190449D01*
X156716860Y-152225991D01*
X159178009Y-154687141D01*
X159213551Y-154730449D01*
X159386377Y-154872284D01*
X159583553Y-154977676D01*
X159797501Y-155042577D01*
X159964248Y-155059000D01*
X159964257Y-155059000D01*
X160019999Y-155064490D01*
X160075741Y-155059000D01*
X166166893Y-155059000D01*
X166185368Y-155077475D01*
X166428589Y-155239990D01*
X166698842Y-155351932D01*
X166985740Y-155409000D01*
X167278260Y-155409000D01*
X167565158Y-155351932D01*
X167835411Y-155239990D01*
X168078632Y-155077475D01*
X168285475Y-154870632D01*
X168447990Y-154627411D01*
X168559932Y-154357158D01*
X168617000Y-154070260D01*
X168617000Y-153777740D01*
X168559932Y-153490842D01*
X168447990Y-153220589D01*
X168285475Y-152977368D01*
X168078632Y-152770525D01*
X167902067Y-152652548D01*
X168127462Y-152485958D01*
X168323316Y-152270579D01*
X168473388Y-152021129D01*
X168531012Y-151881985D01*
X168429848Y-151657000D01*
X167405000Y-151657000D01*
X167405000Y-151677000D01*
X166859000Y-151677000D01*
X166859000Y-151657000D01*
X165834152Y-151657000D01*
X165732988Y-151881985D01*
X165790612Y-152021129D01*
X165940684Y-152270579D01*
X166136538Y-152485958D01*
X166361933Y-152652548D01*
X166185368Y-152770525D01*
X166166893Y-152789000D01*
X160490132Y-152789000D01*
X158615000Y-150913869D01*
X158615000Y-145343741D01*
X158620490Y-145287999D01*
X158615000Y-145232257D01*
X158615000Y-145232248D01*
X158598577Y-145065501D01*
X158533676Y-144851553D01*
X158428284Y-144654377D01*
X158286449Y-144481551D01*
X158243140Y-144446009D01*
X156797996Y-143000865D01*
X156762449Y-142957551D01*
X156589623Y-142815716D01*
X156392447Y-142710324D01*
X156178499Y-142645423D01*
X156011752Y-142629000D01*
X156011751Y-142629000D01*
X155956000Y-142623509D01*
X155900249Y-142629000D01*
X155203002Y-142629000D01*
X155125101Y-142565068D01*
X154992142Y-142494000D01*
X155125101Y-142422932D01*
X155343608Y-142243608D01*
X155522932Y-142025101D01*
X155656182Y-141775808D01*
X155738236Y-141505309D01*
X155765943Y-141224000D01*
X155738236Y-140942691D01*
X155656182Y-140672192D01*
X155522932Y-140422899D01*
X155343608Y-140204392D01*
X155230518Y-140111581D01*
X155248482Y-140109812D01*
X155368180Y-140073502D01*
X155478494Y-140014537D01*
X155575185Y-139935185D01*
X155654537Y-139838494D01*
X155713502Y-139728180D01*
X155749812Y-139608482D01*
X155762072Y-139484000D01*
X155762072Y-138684000D01*
X159702057Y-138684000D01*
X159729764Y-138965309D01*
X159811818Y-139235808D01*
X159945068Y-139485101D01*
X160124392Y-139703608D01*
X160342899Y-139882932D01*
X160475858Y-139954000D01*
X160342899Y-140025068D01*
X160124392Y-140204392D01*
X159945068Y-140422899D01*
X159811818Y-140672192D01*
X159729764Y-140942691D01*
X159702057Y-141224000D01*
X159729764Y-141505309D01*
X159811818Y-141775808D01*
X159945068Y-142025101D01*
X160124392Y-142243608D01*
X160342899Y-142422932D01*
X160475858Y-142494000D01*
X160342899Y-142565068D01*
X160124392Y-142744392D01*
X159945068Y-142962899D01*
X159811818Y-143212192D01*
X159729764Y-143482691D01*
X159702057Y-143764000D01*
X159729764Y-144045309D01*
X159811818Y-144315808D01*
X159945068Y-144565101D01*
X160124392Y-144783608D01*
X160342899Y-144962932D01*
X160475858Y-145034000D01*
X160342899Y-145105068D01*
X160124392Y-145284392D01*
X159945068Y-145502899D01*
X159811818Y-145752192D01*
X159729764Y-146022691D01*
X159702057Y-146304000D01*
X159729764Y-146585309D01*
X159811818Y-146855808D01*
X159945068Y-147105101D01*
X160124392Y-147323608D01*
X160342899Y-147502932D01*
X160592192Y-147636182D01*
X160862691Y-147718236D01*
X161073508Y-147739000D01*
X162014492Y-147739000D01*
X162225309Y-147718236D01*
X162495808Y-147636182D01*
X162745101Y-147502932D01*
X162963608Y-147323608D01*
X163142932Y-147105101D01*
X163276182Y-146855808D01*
X163358236Y-146585309D01*
X163385943Y-146304000D01*
X163358236Y-146022691D01*
X163276182Y-145752192D01*
X163142932Y-145502899D01*
X162963608Y-145284392D01*
X162745101Y-145105068D01*
X162612142Y-145034000D01*
X162745101Y-144962932D01*
X162963608Y-144783608D01*
X163142932Y-144565101D01*
X163276182Y-144315808D01*
X163358236Y-144045309D01*
X163385943Y-143764000D01*
X163358236Y-143482691D01*
X163276182Y-143212192D01*
X163142932Y-142962899D01*
X162963608Y-142744392D01*
X162745101Y-142565068D01*
X162612142Y-142494000D01*
X162745101Y-142422932D01*
X162963608Y-142243608D01*
X163142932Y-142025101D01*
X163276182Y-141775808D01*
X163358236Y-141505309D01*
X163385943Y-141224000D01*
X163358236Y-140942691D01*
X163276182Y-140672192D01*
X163142932Y-140422899D01*
X162963608Y-140204392D01*
X162745101Y-140025068D01*
X162612142Y-139954000D01*
X162745101Y-139882932D01*
X162823002Y-139819000D01*
X163457000Y-139819000D01*
X163457001Y-147982239D01*
X163451509Y-148038000D01*
X163473423Y-148260498D01*
X163538324Y-148474446D01*
X163538325Y-148474447D01*
X163643717Y-148671623D01*
X163785552Y-148844449D01*
X163828860Y-148879991D01*
X164556008Y-149607140D01*
X164591551Y-149650449D01*
X164764377Y-149792284D01*
X164961553Y-149897676D01*
X165095076Y-149938180D01*
X165175500Y-149962577D01*
X165397999Y-149984491D01*
X165453751Y-149979000D01*
X165714317Y-149979000D01*
X165751463Y-150048494D01*
X165830815Y-150145185D01*
X165927506Y-150224537D01*
X166037820Y-150283502D01*
X166114154Y-150306658D01*
X165940684Y-150497421D01*
X165790612Y-150746871D01*
X165732988Y-150886015D01*
X165834152Y-151111000D01*
X166859000Y-151111000D01*
X166859000Y-151091000D01*
X167405000Y-151091000D01*
X167405000Y-151111000D01*
X168429848Y-151111000D01*
X168531012Y-150886015D01*
X168473388Y-150746871D01*
X168323316Y-150497421D01*
X168149846Y-150306658D01*
X168226180Y-150283502D01*
X168336494Y-150224537D01*
X168433185Y-150145185D01*
X168512537Y-150048494D01*
X168549683Y-149979000D01*
X172664249Y-149979000D01*
X172720000Y-149984491D01*
X172775751Y-149979000D01*
X172775752Y-149979000D01*
X172942499Y-149962577D01*
X173156447Y-149897676D01*
X173353623Y-149792284D01*
X173526449Y-149650449D01*
X173561996Y-149607135D01*
X175395141Y-147773991D01*
X175438449Y-147738449D01*
X175580284Y-147565623D01*
X175685676Y-147368447D01*
X175750577Y-147154499D01*
X175767000Y-146987752D01*
X175767000Y-146987743D01*
X175772490Y-146932001D01*
X175767000Y-146876259D01*
X175767000Y-143925239D01*
X175901987Y-143790252D01*
X176080918Y-143522463D01*
X176204168Y-143224912D01*
X176267000Y-142909033D01*
X176267000Y-142586967D01*
X176204168Y-142271088D01*
X176080918Y-141973537D01*
X175901987Y-141705748D01*
X175767000Y-141570761D01*
X175767000Y-134008753D01*
X175772491Y-133953001D01*
X175750577Y-133730502D01*
X175685676Y-133516554D01*
X175580284Y-133319378D01*
X175574347Y-133312144D01*
X175438449Y-133146552D01*
X175395140Y-133111009D01*
X175309977Y-133025846D01*
X175363000Y-132759280D01*
X175363000Y-132338722D01*
X175280953Y-131926245D01*
X175120012Y-131537699D01*
X174886363Y-131188018D01*
X174588983Y-130890638D01*
X174239302Y-130656989D01*
X173850756Y-130496048D01*
X173438279Y-130414001D01*
X173017721Y-130414001D01*
X172605244Y-130496048D01*
X172216698Y-130656989D01*
X171867017Y-130890638D01*
X171569637Y-131188018D01*
X171335988Y-131537699D01*
X171175047Y-131926245D01*
X171093000Y-132338722D01*
X171093000Y-132759280D01*
X171175047Y-133171757D01*
X171335988Y-133560303D01*
X171569637Y-133909984D01*
X171867017Y-134207364D01*
X172216698Y-134441013D01*
X172605244Y-134601954D01*
X173017721Y-134684001D01*
X173438279Y-134684001D01*
X173497001Y-134672320D01*
X173497000Y-141570761D01*
X173362013Y-141705748D01*
X173183082Y-141973537D01*
X173059832Y-142271088D01*
X172997000Y-142586967D01*
X172997000Y-142909033D01*
X173059832Y-143224912D01*
X173183082Y-143522463D01*
X173362013Y-143790252D01*
X173497001Y-143925240D01*
X173497000Y-146461868D01*
X172249869Y-147709000D01*
X168549683Y-147709000D01*
X168512537Y-147639506D01*
X168433185Y-147542815D01*
X168336494Y-147463463D01*
X168226180Y-147404498D01*
X168106482Y-147368188D01*
X167982000Y-147355928D01*
X166282000Y-147355928D01*
X166157518Y-147368188D01*
X166037820Y-147404498D01*
X165927506Y-147463463D01*
X165830815Y-147542815D01*
X165772727Y-147613596D01*
X165727000Y-147567869D01*
X165727000Y-143972594D01*
X166293487Y-143972594D01*
X166400608Y-144219130D01*
X166701665Y-144333550D01*
X167019259Y-144387038D01*
X167341186Y-144377540D01*
X167655074Y-144305418D01*
X167863392Y-144219130D01*
X167970513Y-143972594D01*
X167132000Y-143134080D01*
X166293487Y-143972594D01*
X165727000Y-143972594D01*
X165727000Y-143508126D01*
X165907406Y-143586513D01*
X166745920Y-142748000D01*
X167518080Y-142748000D01*
X168356594Y-143586513D01*
X168603130Y-143479392D01*
X168717550Y-143178335D01*
X168771038Y-142860741D01*
X168761540Y-142538814D01*
X168689418Y-142224926D01*
X168603130Y-142016608D01*
X168356594Y-141909487D01*
X167518080Y-142748000D01*
X166745920Y-142748000D01*
X165907406Y-141909487D01*
X165727000Y-141987874D01*
X165727000Y-141523406D01*
X166293487Y-141523406D01*
X167132000Y-142361920D01*
X167970513Y-141523406D01*
X167863392Y-141276870D01*
X167562335Y-141162450D01*
X167244741Y-141108962D01*
X166922814Y-141118460D01*
X166608926Y-141190582D01*
X166400608Y-141276870D01*
X166293487Y-141523406D01*
X165727000Y-141523406D01*
X165727000Y-139247741D01*
X165732490Y-139191999D01*
X165727000Y-139136257D01*
X165727000Y-139136248D01*
X165710577Y-138969501D01*
X165645676Y-138755553D01*
X165540284Y-138558377D01*
X165398449Y-138385551D01*
X165355135Y-138350004D01*
X164925996Y-137920865D01*
X164890449Y-137877551D01*
X164717623Y-137735716D01*
X164520447Y-137630324D01*
X164306499Y-137565423D01*
X164139752Y-137549000D01*
X164139751Y-137549000D01*
X164084000Y-137543509D01*
X164028249Y-137549000D01*
X162823002Y-137549000D01*
X162745101Y-137485068D01*
X162495808Y-137351818D01*
X162225309Y-137269764D01*
X162014492Y-137249000D01*
X161073508Y-137249000D01*
X160862691Y-137269764D01*
X160592192Y-137351818D01*
X160342899Y-137485068D01*
X160124392Y-137664392D01*
X159945068Y-137882899D01*
X159811818Y-138132192D01*
X159729764Y-138402691D01*
X159702057Y-138684000D01*
X155762072Y-138684000D01*
X155762072Y-137884000D01*
X155749812Y-137759518D01*
X155713502Y-137639820D01*
X155654537Y-137529506D01*
X155575185Y-137432815D01*
X155478494Y-137353463D01*
X155368180Y-137294498D01*
X155248482Y-137258188D01*
X155124000Y-137245928D01*
X155059000Y-137245928D01*
X155059000Y-135021683D01*
X155128494Y-134984537D01*
X155225185Y-134905185D01*
X155304537Y-134808494D01*
X155363502Y-134698180D01*
X155399812Y-134578482D01*
X155412072Y-134454000D01*
X155412072Y-134049001D01*
X166009928Y-134049001D01*
X166022188Y-134173483D01*
X166058498Y-134293181D01*
X166117463Y-134403495D01*
X166196815Y-134500186D01*
X166293506Y-134579538D01*
X166403820Y-134638503D01*
X166523518Y-134674813D01*
X166648000Y-134687073D01*
X167716250Y-134684001D01*
X167875000Y-134525251D01*
X167875000Y-132822001D01*
X168421000Y-132822001D01*
X168421000Y-134525251D01*
X168579750Y-134684001D01*
X169648000Y-134687073D01*
X169772482Y-134674813D01*
X169892180Y-134638503D01*
X170002494Y-134579538D01*
X170099185Y-134500186D01*
X170178537Y-134403495D01*
X170237502Y-134293181D01*
X170273812Y-134173483D01*
X170286072Y-134049001D01*
X170283000Y-132980751D01*
X170124250Y-132822001D01*
X168421000Y-132822001D01*
X167875000Y-132822001D01*
X166171750Y-132822001D01*
X166013000Y-132980751D01*
X166009928Y-134049001D01*
X155412072Y-134049001D01*
X155412072Y-132754000D01*
X155399812Y-132629518D01*
X155363502Y-132509820D01*
X155304537Y-132399506D01*
X155225185Y-132302815D01*
X155128494Y-132223463D01*
X155018180Y-132164498D01*
X154941846Y-132141342D01*
X155115316Y-131950579D01*
X155265388Y-131701129D01*
X155323012Y-131561985D01*
X155221848Y-131337000D01*
X154197000Y-131337000D01*
X154197000Y-131357000D01*
X153651000Y-131357000D01*
X153651000Y-131337000D01*
X152626152Y-131337000D01*
X152524988Y-131561985D01*
X152582612Y-131701129D01*
X152732684Y-131950579D01*
X152906154Y-132141342D01*
X152829820Y-132164498D01*
X152719506Y-132223463D01*
X152622815Y-132302815D01*
X152543463Y-132399506D01*
X152484498Y-132509820D01*
X152448188Y-132629518D01*
X152435928Y-132754000D01*
X152435928Y-134454000D01*
X152448188Y-134578482D01*
X152484498Y-134698180D01*
X152543463Y-134808494D01*
X152622815Y-134905185D01*
X152719506Y-134984537D01*
X152789000Y-135021683D01*
X152789001Y-137245928D01*
X152724000Y-137245928D01*
X152599518Y-137258188D01*
X152479820Y-137294498D01*
X152369506Y-137353463D01*
X152272815Y-137432815D01*
X152193463Y-137529506D01*
X152183043Y-137549000D01*
X148391751Y-137549000D01*
X148336000Y-137543509D01*
X148280248Y-137549000D01*
X148113501Y-137565423D01*
X147899553Y-137630324D01*
X147702377Y-137735716D01*
X147529551Y-137877551D01*
X147494008Y-137920860D01*
X147199868Y-138215000D01*
X147173740Y-138215000D01*
X146886842Y-138272068D01*
X146616589Y-138384010D01*
X146373368Y-138546525D01*
X146166525Y-138753368D01*
X146050000Y-138927760D01*
X145933475Y-138753368D01*
X145726632Y-138546525D01*
X145483411Y-138384010D01*
X145213158Y-138272068D01*
X144926260Y-138215000D01*
X144633740Y-138215000D01*
X144346842Y-138272068D01*
X144076589Y-138384010D01*
X143833368Y-138546525D01*
X143814893Y-138565000D01*
X143205107Y-138565000D01*
X143186632Y-138546525D01*
X142943411Y-138384010D01*
X142673158Y-138272068D01*
X142386260Y-138215000D01*
X142093740Y-138215000D01*
X141806842Y-138272068D01*
X141536589Y-138384010D01*
X141293368Y-138546525D01*
X141086525Y-138753368D01*
X140924010Y-138996589D01*
X140812068Y-139266842D01*
X140755000Y-139553740D01*
X140755000Y-139579868D01*
X135458719Y-144876150D01*
X135217426Y-144924147D01*
X134956273Y-145032320D01*
X134721241Y-145189363D01*
X134521363Y-145389241D01*
X134364320Y-145624273D01*
X134256147Y-145885426D01*
X134201000Y-146162665D01*
X132740000Y-146162665D01*
X132740000Y-133094000D01*
X140179000Y-133094000D01*
X140179000Y-131049001D01*
X166009928Y-131049001D01*
X166013000Y-132117251D01*
X166171750Y-132276001D01*
X167875000Y-132276001D01*
X167875000Y-130572751D01*
X168421000Y-130572751D01*
X168421000Y-132276001D01*
X170124250Y-132276001D01*
X170283000Y-132117251D01*
X170286072Y-131049001D01*
X170273812Y-130924519D01*
X170237502Y-130804821D01*
X170178537Y-130694507D01*
X170099185Y-130597816D01*
X170002494Y-130518464D01*
X169892180Y-130459499D01*
X169772482Y-130423189D01*
X169648000Y-130410929D01*
X168579750Y-130414001D01*
X168421000Y-130572751D01*
X167875000Y-130572751D01*
X167716250Y-130414001D01*
X166648000Y-130410929D01*
X166523518Y-130423189D01*
X166403820Y-130459499D01*
X166293506Y-130518464D01*
X166196815Y-130597816D01*
X166117463Y-130694507D01*
X166058498Y-130804821D01*
X166022188Y-130924519D01*
X166009928Y-131049001D01*
X140179000Y-131049001D01*
X140179000Y-130597000D01*
X144125286Y-130597000D01*
X144125286Y-130566015D01*
X152524988Y-130566015D01*
X152626152Y-130791000D01*
X153651000Y-130791000D01*
X153651000Y-129763049D01*
X154197000Y-129763049D01*
X154197000Y-130791000D01*
X155221848Y-130791000D01*
X155323012Y-130566015D01*
X155265388Y-130426871D01*
X155115316Y-130177421D01*
X154919462Y-129962042D01*
X154685353Y-129789011D01*
X154421986Y-129664977D01*
X154197000Y-129763049D01*
X153651000Y-129763049D01*
X153426014Y-129664977D01*
X153162647Y-129789011D01*
X152928538Y-129962042D01*
X152732684Y-130177421D01*
X152582612Y-130426871D01*
X152524988Y-130566015D01*
X144125286Y-130566015D01*
X144125286Y-128168000D01*
X180188000Y-128168000D01*
X180188001Y-156312000D01*
G37*
X180188001Y-156312000D02*
X132740000Y-156312000D01*
X132740000Y-146162665D01*
X134201000Y-146162665D01*
X134201000Y-146445335D01*
X134256147Y-146722574D01*
X134364320Y-146983727D01*
X134521363Y-147218759D01*
X134721241Y-147418637D01*
X134956273Y-147575680D01*
X135217426Y-147683853D01*
X135494665Y-147739000D01*
X135777335Y-147739000D01*
X136054574Y-147683853D01*
X136315727Y-147575680D01*
X136550759Y-147418637D01*
X136750637Y-147218759D01*
X136907680Y-146983727D01*
X137015853Y-146722574D01*
X137063850Y-146481281D01*
X142360132Y-141185000D01*
X142386260Y-141185000D01*
X142673158Y-141127932D01*
X142943411Y-141015990D01*
X143186632Y-140853475D01*
X143205107Y-140835000D01*
X143814893Y-140835000D01*
X143833368Y-140853475D01*
X144076589Y-141015990D01*
X144346842Y-141127932D01*
X144633740Y-141185000D01*
X144926260Y-141185000D01*
X145213158Y-141127932D01*
X145483411Y-141015990D01*
X145726632Y-140853475D01*
X145933475Y-140646632D01*
X146050000Y-140472240D01*
X146166525Y-140646632D01*
X146373368Y-140853475D01*
X146616589Y-141015990D01*
X146886842Y-141127932D01*
X147173740Y-141185000D01*
X147466260Y-141185000D01*
X147753158Y-141127932D01*
X148023411Y-141015990D01*
X148266632Y-140853475D01*
X148473475Y-140646632D01*
X148635990Y-140403411D01*
X148747932Y-140133158D01*
X148805000Y-139846260D01*
X148805000Y-139820132D01*
X148806132Y-139819000D01*
X152183043Y-139819000D01*
X152193463Y-139838494D01*
X152272815Y-139935185D01*
X152369506Y-140014537D01*
X152479820Y-140073502D01*
X152530910Y-140089000D01*
X150423751Y-140089000D01*
X150368000Y-140083509D01*
X150312248Y-140089000D01*
X150145501Y-140105423D01*
X149931553Y-140170324D01*
X149734377Y-140275716D01*
X149561551Y-140417551D01*
X149526009Y-140460859D01*
X147572860Y-142414009D01*
X147529552Y-142449551D01*
X147387717Y-142622377D01*
X147340709Y-142710324D01*
X147282324Y-142819554D01*
X147217423Y-143033502D01*
X147195509Y-143256000D01*
X147201001Y-143311761D01*
X147201000Y-145169000D01*
X144327751Y-145169000D01*
X144272000Y-145163509D01*
X144216248Y-145169000D01*
X144049501Y-145185423D01*
X143835553Y-145250324D01*
X143638377Y-145355716D01*
X143465551Y-145497551D01*
X143430011Y-145540857D01*
X138721869Y-150249000D01*
X136520284Y-150249000D01*
X136315727Y-150112320D01*
X136054574Y-150004147D01*
X135777335Y-149949000D01*
X135494665Y-149949000D01*
X135217426Y-150004147D01*
X134956273Y-150112320D01*
X134721241Y-150269363D01*
X134521363Y-150469241D01*
X134364320Y-150704273D01*
X134256147Y-150965426D01*
X134201000Y-151242665D01*
X134201000Y-151525335D01*
X134256147Y-151802574D01*
X134364320Y-152063727D01*
X134521363Y-152298759D01*
X134721241Y-152498637D01*
X134956273Y-152655680D01*
X135217426Y-152763853D01*
X135494665Y-152819000D01*
X135777335Y-152819000D01*
X136054574Y-152763853D01*
X136315727Y-152655680D01*
X136520284Y-152519000D01*
X139136249Y-152519000D01*
X139192000Y-152524491D01*
X139247751Y-152519000D01*
X139247752Y-152519000D01*
X139414499Y-152502577D01*
X139628447Y-152437676D01*
X139825623Y-152332284D01*
X139998449Y-152190449D01*
X140033996Y-152147135D01*
X140307108Y-151874023D01*
X146987259Y-151874023D01*
X147035790Y-151991212D01*
X147179234Y-152233203D01*
X147367132Y-152442560D01*
X147592263Y-152611237D01*
X147845976Y-152732752D01*
X148063000Y-152634053D01*
X148063000Y-151657000D01*
X148609000Y-151657000D01*
X148609000Y-152634053D01*
X148826024Y-152732752D01*
X149079737Y-152611237D01*
X149304868Y-152442560D01*
X149492766Y-152233203D01*
X149636210Y-151991212D01*
X149684741Y-151874023D01*
X149582710Y-151657000D01*
X148609000Y-151657000D01*
X148063000Y-151657000D01*
X147089290Y-151657000D01*
X146987259Y-151874023D01*
X140307108Y-151874023D01*
X141287154Y-150893977D01*
X146987259Y-150893977D01*
X147089290Y-151111000D01*
X148063000Y-151111000D01*
X148063000Y-150133947D01*
X148609000Y-150133947D01*
X148609000Y-151111000D01*
X149582710Y-151111000D01*
X149684741Y-150893977D01*
X149636210Y-150776788D01*
X149492766Y-150534797D01*
X149304868Y-150325440D01*
X149079737Y-150156763D01*
X148826024Y-150035248D01*
X148609000Y-150133947D01*
X148063000Y-150133947D01*
X147845976Y-150035248D01*
X147592263Y-150156763D01*
X147367132Y-150325440D01*
X147179234Y-150534797D01*
X147035790Y-150776788D01*
X146987259Y-150893977D01*
X141287154Y-150893977D01*
X144742132Y-147439000D01*
X147451716Y-147439000D01*
X147656273Y-147575680D01*
X147917426Y-147683853D01*
X148194665Y-147739000D01*
X148477335Y-147739000D01*
X148754574Y-147683853D01*
X149015727Y-147575680D01*
X149250759Y-147418637D01*
X149450637Y-147218759D01*
X149607680Y-146983727D01*
X149686257Y-146794023D01*
X152175259Y-146794023D01*
X152263064Y-147025145D01*
X152427981Y-147257285D01*
X152635017Y-147452791D01*
X152876217Y-147604149D01*
X153142310Y-147705543D01*
X153423072Y-147753077D01*
X153651000Y-147592275D01*
X153651000Y-146577000D01*
X154197000Y-146577000D01*
X154197000Y-147592275D01*
X154424928Y-147753077D01*
X154705690Y-147705543D01*
X154971783Y-147604149D01*
X155212983Y-147452791D01*
X155420019Y-147257285D01*
X155584936Y-147025145D01*
X155672741Y-146794023D01*
X155570710Y-146577000D01*
X154197000Y-146577000D01*
X153651000Y-146577000D01*
X152277290Y-146577000D01*
X152175259Y-146794023D01*
X149686257Y-146794023D01*
X149715853Y-146722574D01*
X149771000Y-146445335D01*
X149771000Y-146162665D01*
X149715853Y-145885426D01*
X149607680Y-145624273D01*
X149471000Y-145419716D01*
X149471000Y-143726131D01*
X150838132Y-142359000D01*
X152644998Y-142359000D01*
X152722899Y-142422932D01*
X152855858Y-142494000D01*
X152722899Y-142565068D01*
X152504392Y-142744392D01*
X152325068Y-142962899D01*
X152191818Y-143212192D01*
X152109764Y-143482691D01*
X152082057Y-143764000D01*
X152109764Y-144045309D01*
X152191818Y-144315808D01*
X152325068Y-144565101D01*
X152504392Y-144783608D01*
X152722899Y-144962932D01*
X152840907Y-145026009D01*
X152635017Y-145155209D01*
X152427981Y-145350715D01*
X152263064Y-145582855D01*
X152175259Y-145813977D01*
X152277290Y-146031000D01*
X153651000Y-146031000D01*
X153651000Y-146011000D01*
X154197000Y-146011000D01*
X154197000Y-146031000D01*
X155570710Y-146031000D01*
X155672741Y-145813977D01*
X155584936Y-145582855D01*
X155420019Y-145350715D01*
X155212983Y-145155209D01*
X155007093Y-145026009D01*
X155125101Y-144962932D01*
X155203002Y-144899000D01*
X155485869Y-144899000D01*
X156345000Y-145758132D01*
X156345001Y-151328239D01*
X156339509Y-151384000D01*
X156361423Y-151606498D01*
X156426324Y-151820446D01*
X156475384Y-151912230D01*
X156531717Y-152017623D01*
X156673552Y-152190449D01*
X156716860Y-152225991D01*
X159178009Y-154687141D01*
X159213551Y-154730449D01*
X159386377Y-154872284D01*
X159583553Y-154977676D01*
X159797501Y-155042577D01*
X159964248Y-155059000D01*
X159964257Y-155059000D01*
X160019999Y-155064490D01*
X160075741Y-155059000D01*
X166166893Y-155059000D01*
X166185368Y-155077475D01*
X166428589Y-155239990D01*
X166698842Y-155351932D01*
X166985740Y-155409000D01*
X167278260Y-155409000D01*
X167565158Y-155351932D01*
X167835411Y-155239990D01*
X168078632Y-155077475D01*
X168285475Y-154870632D01*
X168447990Y-154627411D01*
X168559932Y-154357158D01*
X168617000Y-154070260D01*
X168617000Y-153777740D01*
X168559932Y-153490842D01*
X168447990Y-153220589D01*
X168285475Y-152977368D01*
X168078632Y-152770525D01*
X167902067Y-152652548D01*
X168127462Y-152485958D01*
X168323316Y-152270579D01*
X168473388Y-152021129D01*
X168531012Y-151881985D01*
X168429848Y-151657000D01*
X167405000Y-151657000D01*
X167405000Y-151677000D01*
X166859000Y-151677000D01*
X166859000Y-151657000D01*
X165834152Y-151657000D01*
X165732988Y-151881985D01*
X165790612Y-152021129D01*
X165940684Y-152270579D01*
X166136538Y-152485958D01*
X166361933Y-152652548D01*
X166185368Y-152770525D01*
X166166893Y-152789000D01*
X160490132Y-152789000D01*
X158615000Y-150913869D01*
X158615000Y-145343741D01*
X158620490Y-145287999D01*
X158615000Y-145232257D01*
X158615000Y-145232248D01*
X158598577Y-145065501D01*
X158533676Y-144851553D01*
X158428284Y-144654377D01*
X158286449Y-144481551D01*
X158243140Y-144446009D01*
X156797996Y-143000865D01*
X156762449Y-142957551D01*
X156589623Y-142815716D01*
X156392447Y-142710324D01*
X156178499Y-142645423D01*
X156011752Y-142629000D01*
X156011751Y-142629000D01*
X155956000Y-142623509D01*
X155900249Y-142629000D01*
X155203002Y-142629000D01*
X155125101Y-142565068D01*
X154992142Y-142494000D01*
X155125101Y-142422932D01*
X155343608Y-142243608D01*
X155522932Y-142025101D01*
X155656182Y-141775808D01*
X155738236Y-141505309D01*
X155765943Y-141224000D01*
X155738236Y-140942691D01*
X155656182Y-140672192D01*
X155522932Y-140422899D01*
X155343608Y-140204392D01*
X155230518Y-140111581D01*
X155248482Y-140109812D01*
X155368180Y-140073502D01*
X155478494Y-140014537D01*
X155575185Y-139935185D01*
X155654537Y-139838494D01*
X155713502Y-139728180D01*
X155749812Y-139608482D01*
X155762072Y-139484000D01*
X155762072Y-138684000D01*
X159702057Y-138684000D01*
X159729764Y-138965309D01*
X159811818Y-139235808D01*
X159945068Y-139485101D01*
X160124392Y-139703608D01*
X160342899Y-139882932D01*
X160475858Y-139954000D01*
X160342899Y-140025068D01*
X160124392Y-140204392D01*
X159945068Y-140422899D01*
X159811818Y-140672192D01*
X159729764Y-140942691D01*
X159702057Y-141224000D01*
X159729764Y-141505309D01*
X159811818Y-141775808D01*
X159945068Y-142025101D01*
X160124392Y-142243608D01*
X160342899Y-142422932D01*
X160475858Y-142494000D01*
X160342899Y-142565068D01*
X160124392Y-142744392D01*
X159945068Y-142962899D01*
X159811818Y-143212192D01*
X159729764Y-143482691D01*
X159702057Y-143764000D01*
X159729764Y-144045309D01*
X159811818Y-144315808D01*
X159945068Y-144565101D01*
X160124392Y-144783608D01*
X160342899Y-144962932D01*
X160475858Y-145034000D01*
X160342899Y-145105068D01*
X160124392Y-145284392D01*
X159945068Y-145502899D01*
X159811818Y-145752192D01*
X159729764Y-146022691D01*
X159702057Y-146304000D01*
X159729764Y-146585309D01*
X159811818Y-146855808D01*
X159945068Y-147105101D01*
X160124392Y-147323608D01*
X160342899Y-147502932D01*
X160592192Y-147636182D01*
X160862691Y-147718236D01*
X161073508Y-147739000D01*
X162014492Y-147739000D01*
X162225309Y-147718236D01*
X162495808Y-147636182D01*
X162745101Y-147502932D01*
X162963608Y-147323608D01*
X163142932Y-147105101D01*
X163276182Y-146855808D01*
X163358236Y-146585309D01*
X163385943Y-146304000D01*
X163358236Y-146022691D01*
X163276182Y-145752192D01*
X163142932Y-145502899D01*
X162963608Y-145284392D01*
X162745101Y-145105068D01*
X162612142Y-145034000D01*
X162745101Y-144962932D01*
X162963608Y-144783608D01*
X163142932Y-144565101D01*
X163276182Y-144315808D01*
X163358236Y-144045309D01*
X163385943Y-143764000D01*
X163358236Y-143482691D01*
X163276182Y-143212192D01*
X163142932Y-142962899D01*
X162963608Y-142744392D01*
X162745101Y-142565068D01*
X162612142Y-142494000D01*
X162745101Y-142422932D01*
X162963608Y-142243608D01*
X163142932Y-142025101D01*
X163276182Y-141775808D01*
X163358236Y-141505309D01*
X163385943Y-141224000D01*
X163358236Y-140942691D01*
X163276182Y-140672192D01*
X163142932Y-140422899D01*
X162963608Y-140204392D01*
X162745101Y-140025068D01*
X162612142Y-139954000D01*
X162745101Y-139882932D01*
X162823002Y-139819000D01*
X163457000Y-139819000D01*
X163457001Y-147982239D01*
X163451509Y-148038000D01*
X163473423Y-148260498D01*
X163538324Y-148474446D01*
X163538325Y-148474447D01*
X163643717Y-148671623D01*
X163785552Y-148844449D01*
X163828860Y-148879991D01*
X164556008Y-149607140D01*
X164591551Y-149650449D01*
X164764377Y-149792284D01*
X164961553Y-149897676D01*
X165095076Y-149938180D01*
X165175500Y-149962577D01*
X165397999Y-149984491D01*
X165453751Y-149979000D01*
X165714317Y-149979000D01*
X165751463Y-150048494D01*
X165830815Y-150145185D01*
X165927506Y-150224537D01*
X166037820Y-150283502D01*
X166114154Y-150306658D01*
X165940684Y-150497421D01*
X165790612Y-150746871D01*
X165732988Y-150886015D01*
X165834152Y-151111000D01*
X166859000Y-151111000D01*
X166859000Y-151091000D01*
X167405000Y-151091000D01*
X167405000Y-151111000D01*
X168429848Y-151111000D01*
X168531012Y-150886015D01*
X168473388Y-150746871D01*
X168323316Y-150497421D01*
X168149846Y-150306658D01*
X168226180Y-150283502D01*
X168336494Y-150224537D01*
X168433185Y-150145185D01*
X168512537Y-150048494D01*
X168549683Y-149979000D01*
X172664249Y-149979000D01*
X172720000Y-149984491D01*
X172775751Y-149979000D01*
X172775752Y-149979000D01*
X172942499Y-149962577D01*
X173156447Y-149897676D01*
X173353623Y-149792284D01*
X173526449Y-149650449D01*
X173561996Y-149607135D01*
X175395141Y-147773991D01*
X175438449Y-147738449D01*
X175580284Y-147565623D01*
X175685676Y-147368447D01*
X175750577Y-147154499D01*
X175767000Y-146987752D01*
X175767000Y-146987743D01*
X175772490Y-146932001D01*
X175767000Y-146876259D01*
X175767000Y-143925239D01*
X175901987Y-143790252D01*
X176080918Y-143522463D01*
X176204168Y-143224912D01*
X176267000Y-142909033D01*
X176267000Y-142586967D01*
X176204168Y-142271088D01*
X176080918Y-141973537D01*
X175901987Y-141705748D01*
X175767000Y-141570761D01*
X175767000Y-134008753D01*
X175772491Y-133953001D01*
X175750577Y-133730502D01*
X175685676Y-133516554D01*
X175580284Y-133319378D01*
X175574347Y-133312144D01*
X175438449Y-133146552D01*
X175395140Y-133111009D01*
X175309977Y-133025846D01*
X175363000Y-132759280D01*
X175363000Y-132338722D01*
X175280953Y-131926245D01*
X175120012Y-131537699D01*
X174886363Y-131188018D01*
X174588983Y-130890638D01*
X174239302Y-130656989D01*
X173850756Y-130496048D01*
X173438279Y-130414001D01*
X173017721Y-130414001D01*
X172605244Y-130496048D01*
X172216698Y-130656989D01*
X171867017Y-130890638D01*
X171569637Y-131188018D01*
X171335988Y-131537699D01*
X171175047Y-131926245D01*
X171093000Y-132338722D01*
X171093000Y-132759280D01*
X171175047Y-133171757D01*
X171335988Y-133560303D01*
X171569637Y-133909984D01*
X171867017Y-134207364D01*
X172216698Y-134441013D01*
X172605244Y-134601954D01*
X173017721Y-134684001D01*
X173438279Y-134684001D01*
X173497001Y-134672320D01*
X173497000Y-141570761D01*
X173362013Y-141705748D01*
X173183082Y-141973537D01*
X173059832Y-142271088D01*
X172997000Y-142586967D01*
X172997000Y-142909033D01*
X173059832Y-143224912D01*
X173183082Y-143522463D01*
X173362013Y-143790252D01*
X173497001Y-143925240D01*
X173497000Y-146461868D01*
X172249869Y-147709000D01*
X168549683Y-147709000D01*
X168512537Y-147639506D01*
X168433185Y-147542815D01*
X168336494Y-147463463D01*
X168226180Y-147404498D01*
X168106482Y-147368188D01*
X167982000Y-147355928D01*
X166282000Y-147355928D01*
X166157518Y-147368188D01*
X166037820Y-147404498D01*
X165927506Y-147463463D01*
X165830815Y-147542815D01*
X165772727Y-147613596D01*
X165727000Y-147567869D01*
X165727000Y-143972594D01*
X166293487Y-143972594D01*
X166400608Y-144219130D01*
X166701665Y-144333550D01*
X167019259Y-144387038D01*
X167341186Y-144377540D01*
X167655074Y-144305418D01*
X167863392Y-144219130D01*
X167970513Y-143972594D01*
X167132000Y-143134080D01*
X166293487Y-143972594D01*
X165727000Y-143972594D01*
X165727000Y-143508126D01*
X165907406Y-143586513D01*
X166745920Y-142748000D01*
X167518080Y-142748000D01*
X168356594Y-143586513D01*
X168603130Y-143479392D01*
X168717550Y-143178335D01*
X168771038Y-142860741D01*
X168761540Y-142538814D01*
X168689418Y-142224926D01*
X168603130Y-142016608D01*
X168356594Y-141909487D01*
X167518080Y-142748000D01*
X166745920Y-142748000D01*
X165907406Y-141909487D01*
X165727000Y-141987874D01*
X165727000Y-141523406D01*
X166293487Y-141523406D01*
X167132000Y-142361920D01*
X167970513Y-141523406D01*
X167863392Y-141276870D01*
X167562335Y-141162450D01*
X167244741Y-141108962D01*
X166922814Y-141118460D01*
X166608926Y-141190582D01*
X166400608Y-141276870D01*
X166293487Y-141523406D01*
X165727000Y-141523406D01*
X165727000Y-139247741D01*
X165732490Y-139191999D01*
X165727000Y-139136257D01*
X165727000Y-139136248D01*
X165710577Y-138969501D01*
X165645676Y-138755553D01*
X165540284Y-138558377D01*
X165398449Y-138385551D01*
X165355135Y-138350004D01*
X164925996Y-137920865D01*
X164890449Y-137877551D01*
X164717623Y-137735716D01*
X164520447Y-137630324D01*
X164306499Y-137565423D01*
X164139752Y-137549000D01*
X164139751Y-137549000D01*
X164084000Y-137543509D01*
X164028249Y-137549000D01*
X162823002Y-137549000D01*
X162745101Y-137485068D01*
X162495808Y-137351818D01*
X162225309Y-137269764D01*
X162014492Y-137249000D01*
X161073508Y-137249000D01*
X160862691Y-137269764D01*
X160592192Y-137351818D01*
X160342899Y-137485068D01*
X160124392Y-137664392D01*
X159945068Y-137882899D01*
X159811818Y-138132192D01*
X159729764Y-138402691D01*
X159702057Y-138684000D01*
X155762072Y-138684000D01*
X155762072Y-137884000D01*
X155749812Y-137759518D01*
X155713502Y-137639820D01*
X155654537Y-137529506D01*
X155575185Y-137432815D01*
X155478494Y-137353463D01*
X155368180Y-137294498D01*
X155248482Y-137258188D01*
X155124000Y-137245928D01*
X155059000Y-137245928D01*
X155059000Y-135021683D01*
X155128494Y-134984537D01*
X155225185Y-134905185D01*
X155304537Y-134808494D01*
X155363502Y-134698180D01*
X155399812Y-134578482D01*
X155412072Y-134454000D01*
X155412072Y-134049001D01*
X166009928Y-134049001D01*
X166022188Y-134173483D01*
X166058498Y-134293181D01*
X166117463Y-134403495D01*
X166196815Y-134500186D01*
X166293506Y-134579538D01*
X166403820Y-134638503D01*
X166523518Y-134674813D01*
X166648000Y-134687073D01*
X167716250Y-134684001D01*
X167875000Y-134525251D01*
X167875000Y-132822001D01*
X168421000Y-132822001D01*
X168421000Y-134525251D01*
X168579750Y-134684001D01*
X169648000Y-134687073D01*
X169772482Y-134674813D01*
X169892180Y-134638503D01*
X170002494Y-134579538D01*
X170099185Y-134500186D01*
X170178537Y-134403495D01*
X170237502Y-134293181D01*
X170273812Y-134173483D01*
X170286072Y-134049001D01*
X170283000Y-132980751D01*
X170124250Y-132822001D01*
X168421000Y-132822001D01*
X167875000Y-132822001D01*
X166171750Y-132822001D01*
X166013000Y-132980751D01*
X166009928Y-134049001D01*
X155412072Y-134049001D01*
X155412072Y-132754000D01*
X155399812Y-132629518D01*
X155363502Y-132509820D01*
X155304537Y-132399506D01*
X155225185Y-132302815D01*
X155128494Y-132223463D01*
X155018180Y-132164498D01*
X154941846Y-132141342D01*
X155115316Y-131950579D01*
X155265388Y-131701129D01*
X155323012Y-131561985D01*
X155221848Y-131337000D01*
X154197000Y-131337000D01*
X154197000Y-131357000D01*
X153651000Y-131357000D01*
X153651000Y-131337000D01*
X152626152Y-131337000D01*
X152524988Y-131561985D01*
X152582612Y-131701129D01*
X152732684Y-131950579D01*
X152906154Y-132141342D01*
X152829820Y-132164498D01*
X152719506Y-132223463D01*
X152622815Y-132302815D01*
X152543463Y-132399506D01*
X152484498Y-132509820D01*
X152448188Y-132629518D01*
X152435928Y-132754000D01*
X152435928Y-134454000D01*
X152448188Y-134578482D01*
X152484498Y-134698180D01*
X152543463Y-134808494D01*
X152622815Y-134905185D01*
X152719506Y-134984537D01*
X152789000Y-135021683D01*
X152789001Y-137245928D01*
X152724000Y-137245928D01*
X152599518Y-137258188D01*
X152479820Y-137294498D01*
X152369506Y-137353463D01*
X152272815Y-137432815D01*
X152193463Y-137529506D01*
X152183043Y-137549000D01*
X148391751Y-137549000D01*
X148336000Y-137543509D01*
X148280248Y-137549000D01*
X148113501Y-137565423D01*
X147899553Y-137630324D01*
X147702377Y-137735716D01*
X147529551Y-137877551D01*
X147494008Y-137920860D01*
X147199868Y-138215000D01*
X147173740Y-138215000D01*
X146886842Y-138272068D01*
X146616589Y-138384010D01*
X146373368Y-138546525D01*
X146166525Y-138753368D01*
X146050000Y-138927760D01*
X145933475Y-138753368D01*
X145726632Y-138546525D01*
X145483411Y-138384010D01*
X145213158Y-138272068D01*
X144926260Y-138215000D01*
X144633740Y-138215000D01*
X144346842Y-138272068D01*
X144076589Y-138384010D01*
X143833368Y-138546525D01*
X143814893Y-138565000D01*
X143205107Y-138565000D01*
X143186632Y-138546525D01*
X142943411Y-138384010D01*
X142673158Y-138272068D01*
X142386260Y-138215000D01*
X142093740Y-138215000D01*
X141806842Y-138272068D01*
X141536589Y-138384010D01*
X141293368Y-138546525D01*
X141086525Y-138753368D01*
X140924010Y-138996589D01*
X140812068Y-139266842D01*
X140755000Y-139553740D01*
X140755000Y-139579868D01*
X135458719Y-144876150D01*
X135217426Y-144924147D01*
X134956273Y-145032320D01*
X134721241Y-145189363D01*
X134521363Y-145389241D01*
X134364320Y-145624273D01*
X134256147Y-145885426D01*
X134201000Y-146162665D01*
X132740000Y-146162665D01*
X132740000Y-133094000D01*
X140179000Y-133094000D01*
X140179000Y-131049001D01*
X166009928Y-131049001D01*
X166013000Y-132117251D01*
X166171750Y-132276001D01*
X167875000Y-132276001D01*
X167875000Y-130572751D01*
X168421000Y-130572751D01*
X168421000Y-132276001D01*
X170124250Y-132276001D01*
X170283000Y-132117251D01*
X170286072Y-131049001D01*
X170273812Y-130924519D01*
X170237502Y-130804821D01*
X170178537Y-130694507D01*
X170099185Y-130597816D01*
X170002494Y-130518464D01*
X169892180Y-130459499D01*
X169772482Y-130423189D01*
X169648000Y-130410929D01*
X168579750Y-130414001D01*
X168421000Y-130572751D01*
X167875000Y-130572751D01*
X167716250Y-130414001D01*
X166648000Y-130410929D01*
X166523518Y-130423189D01*
X166403820Y-130459499D01*
X166293506Y-130518464D01*
X166196815Y-130597816D01*
X166117463Y-130694507D01*
X166058498Y-130804821D01*
X166022188Y-130924519D01*
X166009928Y-131049001D01*
X140179000Y-131049001D01*
X140179000Y-130597000D01*
X144125286Y-130597000D01*
X144125286Y-130566015D01*
X152524988Y-130566015D01*
X152626152Y-130791000D01*
X153651000Y-130791000D01*
X153651000Y-129763049D01*
X154197000Y-129763049D01*
X154197000Y-130791000D01*
X155221848Y-130791000D01*
X155323012Y-130566015D01*
X155265388Y-130426871D01*
X155115316Y-130177421D01*
X154919462Y-129962042D01*
X154685353Y-129789011D01*
X154421986Y-129664977D01*
X154197000Y-129763049D01*
X153651000Y-129763049D01*
X153426014Y-129664977D01*
X153162647Y-129789011D01*
X152928538Y-129962042D01*
X152732684Y-130177421D01*
X152582612Y-130426871D01*
X152524988Y-130566015D01*
X144125286Y-130566015D01*
X144125286Y-128168000D01*
X180188000Y-128168000D01*
X180188001Y-156312000D01*
%TD*%
M02*
