%TF.GenerationSoftware,KiCad,Pcbnew,(5.1.6)-1*%
%TF.CreationDate,2023-06-29T19:29:05+02:00*%
%TF.ProjectId,carteAdaptationPiezo,63617274-6541-4646-9170-746174696f6e,rev?*%
%TF.SameCoordinates,Original*%
%TF.FileFunction,Legend,Top*%
%TF.FilePolarity,Positive*%
%FSLAX46Y46*%
G04 Gerber Fmt 4.6, Leading zero omitted, Abs format (unit mm)*
G04 Created by KiCad (PCBNEW (5.1.6)-1) date 2023-06-29 19:29:05*
%MOMM*%
%LPD*%
G01*
G04 APERTURE LIST*
%ADD10C,0.120000*%
%ADD11C,0.150000*%
G04 APERTURE END LIST*
D10*
%TO.C,C1*%
X167012000Y-141492000D02*
X167012000Y-140128000D01*
X167012000Y-145368000D02*
X167012000Y-144004000D01*
X174752000Y-141492000D02*
X174752000Y-140128000D01*
X174752000Y-145368000D02*
X174752000Y-144004000D01*
X174752000Y-140128000D02*
X167012000Y-140128000D01*
X174752000Y-145368000D02*
X167012000Y-145368000D01*
%TO.C,J1*%
X165862000Y-147574000D02*
X167132000Y-147574000D01*
X165862000Y-148844000D02*
X165862000Y-147574000D01*
X168174929Y-154304000D02*
X168572000Y-154304000D01*
X168174929Y-153544000D02*
X168572000Y-153544000D01*
X177232000Y-154304000D02*
X171232000Y-154304000D01*
X177232000Y-153544000D02*
X177232000Y-154304000D01*
X171232000Y-153544000D02*
X177232000Y-153544000D01*
X168572000Y-152654000D02*
X171232000Y-152654000D01*
X168174929Y-151764000D02*
X168572000Y-151764000D01*
X168174929Y-151004000D02*
X168572000Y-151004000D01*
X177232000Y-151764000D02*
X171232000Y-151764000D01*
X177232000Y-151004000D02*
X177232000Y-151764000D01*
X171232000Y-151004000D02*
X177232000Y-151004000D01*
X168572000Y-150114000D02*
X171232000Y-150114000D01*
X168242000Y-149224000D02*
X168572000Y-149224000D01*
X168242000Y-148464000D02*
X168572000Y-148464000D01*
X171232000Y-149124000D02*
X177232000Y-149124000D01*
X171232000Y-149004000D02*
X177232000Y-149004000D01*
X171232000Y-148884000D02*
X177232000Y-148884000D01*
X171232000Y-148764000D02*
X177232000Y-148764000D01*
X171232000Y-148644000D02*
X177232000Y-148644000D01*
X171232000Y-148524000D02*
X177232000Y-148524000D01*
X177232000Y-149224000D02*
X171232000Y-149224000D01*
X177232000Y-148464000D02*
X177232000Y-149224000D01*
X171232000Y-148464000D02*
X177232000Y-148464000D01*
X171232000Y-147514000D02*
X168572000Y-147514000D01*
X171232000Y-155254000D02*
X171232000Y-147514000D01*
X168572000Y-155254000D02*
X171232000Y-155254000D01*
X168572000Y-147514000D02*
X168572000Y-155254000D01*
%TO.C,J2*%
X155194000Y-134874000D02*
X153924000Y-134874000D01*
X155194000Y-133604000D02*
X155194000Y-134874000D01*
X152881071Y-130684000D02*
X152484000Y-130684000D01*
X152881071Y-131444000D02*
X152484000Y-131444000D01*
X143824000Y-130684000D02*
X149824000Y-130684000D01*
X143824000Y-131444000D02*
X143824000Y-130684000D01*
X149824000Y-131444000D02*
X143824000Y-131444000D01*
X152484000Y-132334000D02*
X149824000Y-132334000D01*
X152814000Y-133224000D02*
X152484000Y-133224000D01*
X152814000Y-133984000D02*
X152484000Y-133984000D01*
X149824000Y-133324000D02*
X143824000Y-133324000D01*
X149824000Y-133444000D02*
X143824000Y-133444000D01*
X149824000Y-133564000D02*
X143824000Y-133564000D01*
X149824000Y-133684000D02*
X143824000Y-133684000D01*
X149824000Y-133804000D02*
X143824000Y-133804000D01*
X149824000Y-133924000D02*
X143824000Y-133924000D01*
X143824000Y-133224000D02*
X149824000Y-133224000D01*
X143824000Y-133984000D02*
X143824000Y-133224000D01*
X149824000Y-133984000D02*
X143824000Y-133984000D01*
X149824000Y-134934000D02*
X152484000Y-134934000D01*
X149824000Y-129734000D02*
X149824000Y-134934000D01*
X152484000Y-129734000D02*
X149824000Y-129734000D01*
X152484000Y-134934000D02*
X152484000Y-129734000D01*
%TO.C,J3*%
X165608000Y-136359001D02*
X175768000Y-136359001D01*
X165608000Y-128739001D02*
X165608000Y-136359001D01*
X175768000Y-128739001D02*
X165608000Y-128739001D01*
X175768000Y-136359001D02*
X175768000Y-128739001D01*
X175768000Y-135089001D02*
X165608000Y-135089001D01*
%TO.C,R1*%
X147296000Y-151384000D02*
X146606000Y-151384000D01*
X136676000Y-151384000D02*
X137366000Y-151384000D01*
X146606000Y-149664000D02*
X137366000Y-149664000D01*
X146606000Y-153104000D02*
X146606000Y-149664000D01*
X137366000Y-153104000D02*
X146606000Y-153104000D01*
X137366000Y-149664000D02*
X137366000Y-153104000D01*
%TO.C,R2*%
X137366000Y-144584000D02*
X137366000Y-148024000D01*
X137366000Y-148024000D02*
X146606000Y-148024000D01*
X146606000Y-148024000D02*
X146606000Y-144584000D01*
X146606000Y-144584000D02*
X137366000Y-144584000D01*
X136676000Y-146304000D02*
X137366000Y-146304000D01*
X147296000Y-146304000D02*
X146606000Y-146304000D01*
%TO.C,RV1*%
X149665000Y-137170000D02*
X149665000Y-142240000D01*
X139895000Y-137170000D02*
X139895000Y-142240000D01*
X139895000Y-142240000D02*
X149665000Y-142240000D01*
X139895000Y-137170000D02*
X149665000Y-137170000D01*
%TO.C,U1*%
X159984000Y-137354000D02*
X158734000Y-137354000D01*
X159984000Y-147634000D02*
X159984000Y-137354000D01*
X155484000Y-147634000D02*
X159984000Y-147634000D01*
X155484000Y-137354000D02*
X155484000Y-147634000D01*
X156734000Y-137354000D02*
X155484000Y-137354000D01*
X158734000Y-137354000D02*
G75*
G02*
X156734000Y-137354000I-1000000J0D01*
G01*
%TO.C,C1*%
D11*
X170715333Y-146855142D02*
X170667714Y-146902761D01*
X170524857Y-146950380D01*
X170429619Y-146950380D01*
X170286761Y-146902761D01*
X170191523Y-146807523D01*
X170143904Y-146712285D01*
X170096285Y-146521809D01*
X170096285Y-146378952D01*
X170143904Y-146188476D01*
X170191523Y-146093238D01*
X170286761Y-145998000D01*
X170429619Y-145950380D01*
X170524857Y-145950380D01*
X170667714Y-145998000D01*
X170715333Y-146045619D01*
X171667714Y-146950380D02*
X171096285Y-146950380D01*
X171382000Y-146950380D02*
X171382000Y-145950380D01*
X171286761Y-146093238D01*
X171191523Y-146188476D01*
X171096285Y-146236095D01*
%TO.C,J1*%
X171183666Y-146026380D02*
X171183666Y-146740666D01*
X171136047Y-146883523D01*
X171040809Y-146978761D01*
X170897952Y-147026380D01*
X170802714Y-147026380D01*
X172183666Y-147026380D02*
X171612238Y-147026380D01*
X171897952Y-147026380D02*
X171897952Y-146026380D01*
X171802714Y-146169238D01*
X171707476Y-146264476D01*
X171612238Y-146312095D01*
%TO.C,J2*%
X149205666Y-135326380D02*
X149205666Y-136040666D01*
X149158047Y-136183523D01*
X149062809Y-136278761D01*
X148919952Y-136326380D01*
X148824714Y-136326380D01*
X149634238Y-135421619D02*
X149681857Y-135374000D01*
X149777095Y-135326380D01*
X150015190Y-135326380D01*
X150110428Y-135374000D01*
X150158047Y-135421619D01*
X150205666Y-135516857D01*
X150205666Y-135612095D01*
X150158047Y-135754952D01*
X149586619Y-136326380D01*
X150205666Y-136326380D01*
%TO.C,J3*%
X170354666Y-128992380D02*
X170354666Y-129706666D01*
X170307047Y-129849523D01*
X170211809Y-129944761D01*
X170068952Y-129992380D01*
X169973714Y-129992380D01*
X170735619Y-128992380D02*
X171354666Y-128992380D01*
X171021333Y-129373333D01*
X171164190Y-129373333D01*
X171259428Y-129420952D01*
X171307047Y-129468571D01*
X171354666Y-129563809D01*
X171354666Y-129801904D01*
X171307047Y-129897142D01*
X171259428Y-129944761D01*
X171164190Y-129992380D01*
X170878476Y-129992380D01*
X170783238Y-129944761D01*
X170735619Y-129897142D01*
%TO.C,R1*%
X141819333Y-149116380D02*
X141486000Y-148640190D01*
X141247904Y-149116380D02*
X141247904Y-148116380D01*
X141628857Y-148116380D01*
X141724095Y-148164000D01*
X141771714Y-148211619D01*
X141819333Y-148306857D01*
X141819333Y-148449714D01*
X141771714Y-148544952D01*
X141724095Y-148592571D01*
X141628857Y-148640190D01*
X141247904Y-148640190D01*
X142771714Y-149116380D02*
X142200285Y-149116380D01*
X142486000Y-149116380D02*
X142486000Y-148116380D01*
X142390761Y-148259238D01*
X142295523Y-148354476D01*
X142200285Y-148402095D01*
%TO.C,R2*%
X141819333Y-144036380D02*
X141486000Y-143560190D01*
X141247904Y-144036380D02*
X141247904Y-143036380D01*
X141628857Y-143036380D01*
X141724095Y-143084000D01*
X141771714Y-143131619D01*
X141819333Y-143226857D01*
X141819333Y-143369714D01*
X141771714Y-143464952D01*
X141724095Y-143512571D01*
X141628857Y-143560190D01*
X141247904Y-143560190D01*
X142200285Y-143131619D02*
X142247904Y-143084000D01*
X142343142Y-143036380D01*
X142581238Y-143036380D01*
X142676476Y-143084000D01*
X142724095Y-143131619D01*
X142771714Y-143226857D01*
X142771714Y-143322095D01*
X142724095Y-143464952D01*
X142152666Y-144036380D01*
X142771714Y-144036380D01*
%TO.C,RV1*%
X144184761Y-136492380D02*
X143851428Y-136016190D01*
X143613333Y-136492380D02*
X143613333Y-135492380D01*
X143994285Y-135492380D01*
X144089523Y-135540000D01*
X144137142Y-135587619D01*
X144184761Y-135682857D01*
X144184761Y-135825714D01*
X144137142Y-135920952D01*
X144089523Y-135968571D01*
X143994285Y-136016190D01*
X143613333Y-136016190D01*
X144470476Y-135492380D02*
X144803809Y-136492380D01*
X145137142Y-135492380D01*
X145994285Y-136492380D02*
X145422857Y-136492380D01*
X145708571Y-136492380D02*
X145708571Y-135492380D01*
X145613333Y-135635238D01*
X145518095Y-135730476D01*
X145422857Y-135778095D01*
%TO.C,U1*%
X156972095Y-135806380D02*
X156972095Y-136615904D01*
X157019714Y-136711142D01*
X157067333Y-136758761D01*
X157162571Y-136806380D01*
X157353047Y-136806380D01*
X157448285Y-136758761D01*
X157495904Y-136711142D01*
X157543523Y-136615904D01*
X157543523Y-135806380D01*
X158543523Y-136806380D02*
X157972095Y-136806380D01*
X158257809Y-136806380D02*
X158257809Y-135806380D01*
X158162571Y-135949238D01*
X158067333Y-136044476D01*
X157972095Y-136092095D01*
%TD*%
M02*
