M48
; DRILL file {KiCad (5.1.6)-1} date 11/12/20 09:17:11
; FORMAT={-:-/ absolute / inch / decimal}
; #@! TF.CreationDate,2020-11-12T09:17:11+01:00
; #@! TF.GenerationSoftware,Kicad,Pcbnew,(5.1.6)-1
; #@! TF.FileFunction,Plated,1,2,PTH
FMAT,2
INCH
T1C0.0236
T2C0.0315
T3C0.0394
T4C0.0500
T5C0.0600
%
G90
G05
T1
X4.12Y-3.02
X4.15Y-3.45
X4.225Y-3.525
X4.475Y-3.025
X4.575Y-2.825
X4.625Y-3.875
X4.625Y-6.625
X4.7Y-5.175
X4.7Y-6.725
X5.35Y-4.675
X5.35Y-5.925
X6.525Y-5.375
X6.525Y-6.2
X6.625Y-5.475
X6.625Y-6.0
X7.325Y-3.45
X7.325Y-3.8
X7.325Y-6.2
X7.4Y-3.525
X7.4Y-3.75
X7.4Y-6.1
X7.675Y-3.425
T2
X9.3Y-5.175
X9.3Y-5.575
X9.2Y-5.9
X9.3Y-5.9
X9.4Y-5.9
X3.215Y-6.64
X3.815Y-6.64
X9.125Y-3.95
X9.125Y-4.35
X3.415Y-5.1
X3.815Y-5.1
X2.615Y-5.815
X3.015Y-5.815
X8.8Y-4.6
X8.8Y-4.9
X8.9Y-4.6
X8.9Y-4.9
X9.0Y-4.6
X9.0Y-4.9
X9.1Y-4.6
X9.1Y-4.9
X9.2Y-4.6
X9.2Y-4.9
X9.3Y-4.6
X9.3Y-4.9
X9.4Y-4.6
X9.4Y-4.9
X2.82Y-2.82
X3.22Y-2.82
X5.2Y-4.575
X5.2Y-4.975
X8.475Y-4.25
X8.875Y-4.25
X8.475Y-3.95
X8.875Y-3.95
X10.1Y-4.85
X10.1Y-5.25
X9.775Y-5.575
X9.775Y-5.975
X4.075Y-6.425
X4.075Y-6.525
X4.075Y-6.625
X4.075Y-6.725
X4.375Y-6.425
X4.375Y-6.525
X4.375Y-6.625
X4.375Y-6.725
X2.62Y-3.16
X3.22Y-3.16
X4.925Y-4.575
X4.925Y-4.975
X2.615Y-4.02
X3.015Y-4.02
X8.475Y-5.275
X8.875Y-5.275
X3.54Y-5.6
X3.54Y-6.2
X3.82Y-6.18
X4.22Y-6.18
X7.675Y-3.55
X7.675Y-3.65
X7.675Y-3.75
X7.675Y-3.85
X7.975Y-3.55
X7.975Y-3.65
X7.975Y-3.75
X7.975Y-3.85
X2.615Y-5.99
X3.015Y-5.99
X9.5Y-3.95
X9.5Y-4.35
X7.55Y-5.9
X7.55Y-6.0
X7.55Y-6.1
X7.55Y-6.2
X7.85Y-5.9
X7.85Y-6.0
X7.85Y-6.1
X7.85Y-6.2
X3.68Y-2.82
X3.68Y-2.92
X3.68Y-3.02
X3.68Y-3.12
X3.98Y-2.82
X3.98Y-2.92
X3.98Y-3.02
X3.98Y-3.12
X9.125Y-5.175
X9.125Y-5.575
X8.475Y-5.575
X8.875Y-5.575
X9.75Y-3.55
X9.75Y-3.95
X3.42Y-4.62
X3.82Y-4.62
X10.1Y-4.25
X10.1Y-4.65
X3.54Y-3.66
X3.54Y-4.26
X9.2Y-3.65
X9.3Y-3.65
X9.4Y-3.65
X3.015Y-3.57
X3.115Y-3.57
X3.215Y-3.57
X2.615Y-3.845
X3.015Y-3.845
X9.3Y-3.95
X9.3Y-4.35
X9.5Y-5.175
X9.5Y-5.575
X3.815Y-5.92
X4.215Y-5.92
X3.45Y-3.4
X3.85Y-3.4
X3.015Y-6.265
X3.115Y-6.265
X3.215Y-6.265
T3
X7.85Y-4.15
X7.85Y-4.25
X7.85Y-4.35
X7.85Y-5.175
X7.85Y-5.275
X7.85Y-5.375
X6.78Y-3.775
X6.78Y-3.875
X6.78Y-3.975
X6.78Y-4.075
X6.78Y-4.175
X6.78Y-4.275
X6.78Y-4.375
X6.78Y-4.475
X6.78Y-4.575
X6.78Y-4.675
X6.78Y-4.775
X6.78Y-4.875
X6.78Y-4.975
X6.78Y-5.075
X6.78Y-5.175
X6.78Y-5.275
X6.78Y-5.375
X6.78Y-5.475
X6.78Y-5.575
X6.78Y-5.675
X6.88Y-3.775
X6.88Y-3.875
X6.88Y-3.975
X6.88Y-4.075
X6.88Y-4.175
X6.88Y-4.275
X6.88Y-4.375
X6.88Y-4.475
X6.88Y-4.575
X6.88Y-4.675
X6.88Y-4.775
X6.88Y-4.875
X6.88Y-4.975
X6.88Y-5.075
X6.88Y-5.175
X6.88Y-5.275
X6.88Y-5.375
X6.88Y-5.475
X6.88Y-5.575
X6.88Y-5.675
X4.375Y-3.775
X4.375Y-3.875
X4.375Y-3.975
X4.375Y-4.075
X4.375Y-4.175
X4.375Y-4.275
X4.375Y-4.375
X4.375Y-4.475
X4.375Y-4.575
X4.375Y-4.675
X4.375Y-4.775
X4.375Y-4.875
X4.375Y-4.975
X4.375Y-5.075
X4.375Y-5.175
X4.375Y-5.275
X4.375Y-5.375
X4.375Y-5.475
X4.375Y-5.575
X4.375Y-5.675
X4.475Y-3.775
X4.475Y-3.875
X4.475Y-3.975
X4.475Y-4.075
X4.475Y-4.175
X4.475Y-4.275
X4.475Y-4.375
X4.475Y-4.475
X4.475Y-4.575
X4.475Y-4.675
X4.475Y-4.775
X4.475Y-4.875
X4.475Y-4.975
X4.475Y-5.075
X4.475Y-5.175
X4.475Y-5.275
X4.475Y-5.375
X4.475Y-5.475
X4.475Y-5.575
X4.475Y-5.675
X9.75Y-4.65
X9.75Y-4.75
X9.75Y-4.85
T4
X2.74Y-5.22
X9.9Y-6.475
X2.74Y-4.5
X9.875Y-3.075
T5
X2.615Y-5.095
X2.615Y-5.345
X2.865Y-5.095
X2.865Y-5.345
X9.775Y-6.35
X9.775Y-6.6
X10.025Y-6.35
X10.025Y-6.6
X2.615Y-4.375
X2.615Y-4.625
X2.865Y-4.375
X2.865Y-4.625
X9.75Y-2.95
X9.75Y-3.2
X10.0Y-2.95
X10.0Y-3.2
T0
M30
